{"glyphs":{"2":{"ha":799,"x_min":79,"x_max":714,"o":"m 79 132 q 383 390 281 290 q 520 559 485 490 q 556 703 556 628 q 497 835 556 797 q 351 874 438 874 q 146 849 238 874 l 146 956 q 365 978 240 978 q 594 911 513 978 q 675 701 675 844 q 639 538 675 613 q 517 376 603 463 q 272 161 432 289 l 217 118 l 217 106 l 714 106 l 714 0 l 79 0 l 79 132 z "},"3":{"ha":799,"x_min":97,"x_max":685,"o":"m 314 -14 q 97 4 192 -14 l 97 114 q 313 90 193 90 q 565 267 565 90 q 498 408 565 367 q 289 450 431 450 l 213 450 l 213 546 l 288 546 q 478 592 411 546 q 544 718 544 638 q 494 838 544 801 q 339 875 444 875 q 242 867 296 875 q 143 847 188 860 l 143 950 q 236 970 181 963 q 344 978 292 978 q 581 917 503 978 q 660 725 660 856 q 616 583 660 635 q 489 506 572 531 l 489 497 q 638 422 590 481 q 685 265 685 364 q 593 58 685 129 q 314 -14 501 -14 z "},"6":{"ha":799,"x_min":79,"x_max":713,"o":"m 399 -14 q 79 374 79 -14 q 206 817 79 656 q 596 978 333 978 l 594 872 q 394 830 479 872 q 263 715 310 788 q 208 549 217 642 l 213 549 q 299 604 244 581 q 419 628 354 628 q 635 549 557 628 q 713 317 713 471 q 633 77 713 168 q 399 -14 554 -14 m 199 339 q 397 90 199 90 q 548 147 497 90 q 599 317 599 204 q 549 477 599 422 q 414 532 499 532 q 252 481 306 532 q 199 339 199 429 z "},"A":{"ha":926,"x_min":15,"x_max":911,"o":"m 15 0 l 381 964 l 547 964 l 911 0 l 779 0 l 675 288 l 249 288 l 143 0 l 15 0 m 635 399 l 472 847 l 456 847 l 290 399 l 635 399 z "},"E":{"ha":772,"x_min":128,"x_max":699,"o":"m 128 964 l 664 964 l 664 853 l 253 853 l 253 554 l 636 554 l 636 449 l 253 449 l 253 113 l 699 113 l 699 0 l 128 0 l 128 964 z "},"a":{"ha":850,"x_min":76,"x_max":722,"o":"m 424 764 q 656 703 590 764 q 722 532 722 643 l 722 0 l 621 0 l 603 114 q 496 20 569 54 q 335 -14 422 -14 q 76 210 76 -14 q 154 393 76 338 q 374 449 232 449 l 603 449 l 603 511 q 563 625 603 586 q 418 664 524 664 q 253 647 335 664 l 253 753 q 424 764 342 764 m 200 211 q 234 117 200 147 q 346 86 268 86 q 507 124 440 86 q 603 229 574 161 l 603 353 l 382 353 q 242 324 283 353 q 200 211 200 294 z "},"c":{"ha":690,"x_min":82,"x_max":628,"o":"m 429 -14 q 237 22 313 -14 q 122 144 161 58 q 82 375 82 229 q 122 606 82 521 q 237 728 161 692 q 429 764 313 764 q 625 736 547 764 l 625 626 q 431 660 536 660 q 299 634 346 660 q 231 547 251 608 q 210 374 210 485 q 231 203 210 264 q 299 117 251 142 q 432 92 346 92 q 628 124 550 92 l 628 14 q 539 -6 597 3 q 429 -14 481 -14 z "},"e":{"ha":803,"x_min":82,"x_max":722,"o":"m 722 450 q 715 363 722 421 l 207 331 q 261 149 207 206 q 447 92 315 92 q 574 106 508 92 q 682 140 639 119 l 682 31 q 575 -1 644 13 q 429 -14 506 -14 q 237 22 313 -14 q 122 144 161 58 q 82 375 82 229 q 167 676 82 589 q 422 764 251 764 q 658 675 594 764 q 722 450 722 586 m 604 449 q 592 563 604 517 q 539 637 579 608 q 422 665 499 665 q 292 637 339 665 q 228 556 246 608 q 207 419 210 503 l 604 449 z "},"i":{"ha":372,"x_min":115,"x_max":258,"o":"m 188 888 q 130 901 144 888 q 115 958 115 914 q 130 1016 115 1003 q 188 1029 144 1029 q 243 1016 228 1029 q 258 958 258 1003 q 243 901 258 915 q 188 888 228 888 m 126 750 l 246 750 l 246 0 l 126 0 l 126 750 z "},"n":{"ha":858,"x_min":126,"x_max":738,"o":"m 486 764 q 681 700 625 764 q 738 519 738 636 l 738 0 l 617 0 l 617 475 q 587 613 617 569 q 474 657 557 657 q 331 627 388 657 q 246 507 274 597 l 246 0 l 126 0 l 126 750 l 246 750 l 246 643 q 486 764 301 764 z "},"r":{"ha":526,"x_min":126,"x_max":499,"o":"m 478 656 q 246 490 296 656 l 246 0 l 126 0 l 126 750 l 246 750 l 246 614 q 341 732 279 700 q 485 764 403 764 l 499 764 l 494 656 l 478 656 z "},"s":{"ha":665,"x_min":82,"x_max":585,"o":"m 300 -8 q 181 -1 247 -8 q 82 15 115 7 l 82 118 q 185 98 122 107 q 299 89 249 89 q 431 115 389 89 q 472 204 472 140 q 460 274 472 250 q 413 312 447 297 q 304 344 379 326 q 176 389 221 363 q 113 456 131 415 q 94 561 94 496 q 163 710 94 656 q 364 764 232 764 q 472 757 419 764 q 553 739 525 750 l 544 638 q 365 667 469 667 q 244 643 282 667 q 207 558 207 619 q 219 499 207 519 q 260 465 231 478 q 350 439 289 451 q 491 392 442 417 q 563 324 540 367 q 585 208 585 281 q 513 44 585 97 q 300 -8 440 -8 z "},"t":{"ha":468,"x_min":21,"x_max":442,"o":"m 360 92 q 442 100 403 92 l 442 -1 q 357 -8 393 -8 q 222 10 269 -8 q 153 80 175 29 q 132 229 132 131 l 132 650 l 21 650 l 21 750 l 132 750 l 132 928 l 251 928 l 251 750 l 438 750 l 438 650 l 251 650 l 251 236 q 260 145 251 175 q 290 103 268 115 q 360 92 313 92 z "},"一":{"ha":1367,"x_min":78,"x_max":1289,"o":"m 1289 479 l 78 479 l 78 594 l 1289 594 l 1289 479 z "},"七":{"ha":1367,"x_min":86,"x_max":1261,"o":"m 1261 671 l 610 563 l 610 128 q 619 51 610 76 q 651 15 628 25 q 725 6 675 6 l 1235 6 l 1214 -97 l 714 -97 q 590 -78 635 -97 q 524 -17 544 -60 q 504 104 504 26 l 504 546 l 103 479 l 86 583 l 504 653 l 504 1108 l 610 1100 l 610 669 l 1249 775 l 1261 671 z "},"三":{"ha":1367,"x_min":92,"x_max":1275,"o":"m 1275 -47 l 92 -47 l 92 58 l 1275 58 l 1275 -47 m 168 999 l 1196 999 l 1196 892 l 168 892 l 168 999 m 231 560 l 1136 560 l 1136 456 l 231 456 l 231 560 z "},"上":{"ha":1367,"x_min":89,"x_max":1278,"o":"m 1278 -75 l 89 -75 l 89 28 l 585 28 l 585 1115 l 696 1107 l 696 717 l 1194 717 l 1194 614 l 696 614 l 696 28 l 1278 28 l 1278 -75 z "},"下":{"ha":1367,"x_min":96,"x_max":1272,"o":"m 1272 914 l 706 914 l 706 -132 l 596 -132 l 596 914 l 96 914 l 96 1017 l 1272 1017 l 1272 914 m 774 714 q 1004 547 868 649 q 1203 392 1140 444 l 1143 303 q 931 471 1058 372 q 718 629 804 569 l 774 714 z "},"不":{"ha":1367,"x_min":88,"x_max":1285,"o":"m 1246 921 l 821 921 q 736 771 788 854 l 736 -132 l 631 -132 l 631 621 q 157 174 440 372 l 88 267 q 442 564 285 393 q 700 921 600 735 l 126 921 l 126 1025 l 1246 1025 l 1246 921 m 843 660 q 1076 453 942 576 q 1285 254 1211 331 l 1208 165 q 1003 376 1133 253 q 778 578 874 500 l 843 660 z "},"丘":{"ha":1367,"x_min":82,"x_max":1286,"o":"m 1229 517 l 963 517 l 963 31 l 1286 31 l 1286 -67 l 82 -67 l 82 31 l 294 31 l 294 985 q 1118 1099 721 1008 l 1147 997 q 767 926 965 954 q 403 885 569 899 l 403 617 l 1229 617 l 1229 517 m 856 31 l 856 517 l 403 517 l 403 31 l 856 31 z "},"中":{"ha":1367,"x_min":167,"x_max":1199,"o":"m 735 856 l 1199 856 l 1199 279 l 735 279 l 735 -137 l 629 -137 l 629 279 l 167 279 l 167 856 l 629 856 l 629 1115 l 735 1111 l 735 856 m 629 378 l 629 757 l 261 757 l 261 378 l 629 378 m 1103 378 l 1103 757 l 735 757 l 735 378 l 1103 378 z "},"主":{"ha":1367,"x_min":88,"x_max":1278,"o":"m 631 19 l 631 376 l 193 376 l 193 476 l 631 476 l 631 771 l 132 771 l 132 874 l 1233 874 l 1233 771 l 736 771 l 736 476 l 1174 476 l 1174 376 l 736 376 l 736 19 l 1278 19 l 1278 -83 l 88 -83 l 88 19 l 631 19 m 658 1136 l 789 926 l 690 874 q 563 1086 611 1014 l 658 1136 z "},"乏":{"ha":1367,"x_min":110,"x_max":1278,"o":"m 144 964 q 656 1006 357 972 q 1160 1079 954 1040 l 1181 974 q 672 902 967 935 q 158 860 376 869 l 144 964 m 110 -8 q 585 241 372 106 q 997 553 799 376 l 193 553 l 193 658 l 668 658 q 586 832 619 768 l 685 863 q 779 658 728 785 l 1146 658 l 1146 553 q 483 63 853 269 q 582 28 526 39 q 731 10 638 17 q 1007 0 899 0 q 1278 10 1118 0 l 1260 -93 q 1001 -104 1119 -104 q 739 -93 883 -104 q 523 -61 603 -83 q 381 6 443 -39 q 158 -101 260 -57 l 110 -8 z "},"乙":{"ha":1367,"x_min":132,"x_max":1250,"o":"m 132 93 q 182 225 132 153 q 400 451 232 297 q 925 906 568 606 l 194 906 l 194 1011 l 1097 1011 l 1097 906 q 553 447 740 614 q 308 208 367 279 q 249 106 249 136 q 273 49 249 65 q 371 26 297 32 q 686 14 529 14 q 1003 26 844 14 q 1083 42 1056 31 q 1121 79 1110 54 q 1136 154 1132 104 q 1143 326 1139 200 l 1250 286 q 1238 117 1249 228 q 1210 5 1232 44 q 1141 -53 1188 -35 q 1013 -78 1094 -71 q 678 -90 846 -90 q 342 -78 511 -90 q 184 -29 236 -71 q 132 93 132 13 z "},"九":{"ha":1367,"x_min":69,"x_max":1286,"o":"m 69 -58 q 297 158 224 64 q 400 378 371 253 q 433 721 429 503 l 110 721 l 110 832 l 435 832 l 442 1113 l 549 1107 l 542 832 l 950 832 l 950 82 q 961 22 950 40 q 1004 0 972 4 q 1057 -4 1032 -4 q 1108 0 1083 -4 q 1165 22 1150 4 q 1182 85 1179 39 q 1190 263 1189 215 l 1286 229 q 1279 44 1282 99 q 1263 -40 1276 -10 q 1217 -84 1249 -69 q 1128 -104 1186 -99 q 1051 -107 1103 -107 q 975 -104 1001 -107 q 874 -60 904 -97 q 843 64 843 -24 l 843 721 l 540 721 q 501 348 533 486 q 388 101 468 210 q 147 -143 308 -8 l 69 -58 z "},"乳":{"ha":1367,"x_min":74,"x_max":1279,"o":"m 931 92 q 945 19 931 39 q 1000 -4 960 0 q 1049 -7 1017 -7 q 1099 -4 1082 -7 q 1160 21 1146 1 q 1178 93 1175 40 l 1179 143 q 1183 256 1183 200 l 1279 225 q 1272 61 1279 133 q 1235 -61 1269 -26 q 1117 -103 1201 -96 q 1049 -106 1094 -106 q 981 -103 1004 -106 q 865 -57 897 -96 q 833 76 833 -18 l 833 1097 l 931 1093 l 931 92 m 211 274 q 385 304 328 296 l 385 396 l 575 544 l 132 544 l 132 636 l 719 636 l 719 547 l 483 354 l 483 322 q 743 368 650 353 l 747 275 l 483 229 l 483 51 q 451 -59 483 -26 q 340 -99 419 -92 l 229 -110 l 201 -18 l 311 -10 q 369 11 354 -7 q 385 75 385 29 l 385 211 l 81 156 l 74 250 l 211 274 m 100 1018 q 428 1044 247 1025 q 743 1090 608 1064 l 757 996 q 444 949 628 969 q 107 921 260 929 l 100 1018 m 207 893 q 256 789 228 851 q 294 697 283 726 l 215 665 q 177 756 204 696 q 128 863 150 817 l 207 893 m 424 918 q 464 817 442 875 q 501 717 486 760 l 421 689 q 385 787 407 731 q 344 890 364 843 l 424 918 m 549 696 q 661 931 607 808 l 736 897 q 626 657 674 751 l 549 696 z "},"乾":{"ha":1367,"x_min":74,"x_max":1276,"o":"m 650 885 l 419 885 l 419 769 l 610 769 l 610 303 l 419 303 l 419 178 l 642 178 l 642 88 l 419 88 l 419 -133 l 322 -133 l 322 88 l 74 88 l 74 178 l 322 178 l 322 303 l 128 303 l 128 769 l 322 769 l 322 885 l 92 885 l 92 976 l 322 976 l 322 1117 l 419 1113 l 419 976 l 650 976 l 650 885 m 515 389 l 515 497 l 222 497 l 222 389 l 515 389 m 515 576 l 515 683 l 222 683 l 222 576 l 515 576 m 635 710 q 752 906 704 807 q 839 1129 800 1006 l 933 1104 q 872 935 901 1004 l 1276 935 l 1276 835 l 825 835 q 714 651 778 742 l 635 710 m 700 26 q 774 216 700 100 q 1044 554 847 332 l 750 554 l 750 647 l 1161 647 l 1161 554 q 875 196 951 307 q 799 49 799 85 q 811 8 799 22 q 853 -8 824 -6 q 978 -15 922 -15 q 1101 -8 1032 -15 q 1160 15 1146 -4 q 1176 81 1175 33 l 1182 211 l 1274 181 q 1268 49 1274 138 q 1231 -65 1263 -32 q 1121 -104 1200 -99 q 965 -111 1035 -111 q 821 -104 901 -111 q 728 -66 756 -99 q 700 26 700 -33 z "},"二":{"ha":1367,"x_min":88,"x_max":1276,"o":"m 1276 -11 l 88 -11 l 88 101 l 1276 101 l 1276 -11 m 203 946 l 1163 946 l 1163 833 l 203 833 l 203 946 z "},"五":{"ha":1367,"x_min":86,"x_max":1281,"o":"m 1229 922 l 618 922 l 567 614 l 1072 614 l 1051 32 l 1281 32 l 1281 -69 l 86 -69 l 86 32 l 363 32 l 442 508 l 172 508 l 172 614 l 458 614 l 510 922 l 144 922 l 144 1028 l 1229 1028 l 1229 922 m 944 32 l 963 508 l 549 508 l 469 32 l 944 32 z "},"井":{"ha":1367,"x_min":85,"x_max":1281,"o":"m 990 851 l 1238 851 l 1238 746 l 990 746 l 990 426 l 1281 426 l 1281 321 l 990 321 l 990 -142 l 883 -142 l 883 321 l 501 321 q 460 138 490 214 q 374 -6 431 61 q 219 -153 318 -72 l 140 -72 q 282 57 232 1 q 358 174 332 113 q 394 321 385 235 l 85 321 l 85 426 l 401 426 q 403 508 403 451 l 403 746 l 131 746 l 131 851 l 403 851 l 403 1099 l 510 1093 l 510 851 l 883 851 l 883 1101 l 990 1097 l 990 851 m 883 426 l 883 746 l 510 746 l 510 521 q 508 426 510 456 l 883 426 z "},"交":{"ha":1367,"x_min":69,"x_max":1297,"o":"m 1257 840 l 108 840 l 108 938 l 646 938 q 582 1101 610 1042 l 692 1129 q 763 938 738 1015 l 1257 938 l 1257 840 m 69 -47 q 378 58 249 3 q 603 182 508 113 q 389 479 492 292 l 471 532 q 682 247 569 351 q 881 532 797 357 l 969 483 q 761 183 881 299 q 985 65 857 115 q 1297 -29 1114 15 l 1257 -135 q 919 -22 1056 -81 q 682 114 782 36 q 445 -27 582 36 q 115 -149 308 -90 l 69 -47 m 121 457 q 314 610 218 522 q 486 789 410 699 l 563 718 q 384 534 485 628 q 182 364 283 440 l 121 457 m 851 786 q 1043 638 929 731 q 1240 474 1157 546 l 1178 385 q 985 552 1101 456 q 789 707 868 649 l 851 786 z "},"京":{"ha":1367,"x_min":68,"x_max":1294,"o":"m 1267 871 l 99 871 l 99 967 l 642 967 q 583 1099 603 1057 l 692 1126 q 760 967 732 1033 l 1267 967 l 1267 871 m 68 -1 q 249 131 154 54 q 403 275 343 207 l 474 201 q 315 49 413 131 q 126 -94 217 -33 l 68 -1 m 256 736 l 1122 736 l 1122 335 l 753 335 l 753 32 q 718 -74 753 -40 q 601 -118 683 -108 l 488 -132 l 454 -26 l 571 -17 q 630 9 614 -11 q 646 74 646 29 l 646 335 l 256 335 l 256 736 m 1017 432 l 1017 640 l 361 640 l 361 432 l 1017 432 m 932 271 q 1106 142 994 226 q 1294 -6 1217 57 l 1231 -94 q 1061 42 1172 -44 q 875 185 950 129 l 932 271 z "},"人":{"ha":1367,"x_min":86,"x_max":1281,"o":"m 86 -44 q 399 245 282 96 q 569 569 515 394 q 624 969 622 744 q 626 1099 626 1025 l 726 1094 l 725 929 q 724 881 725 897 q 891 363 751 590 q 1281 -44 1031 135 l 1210 -137 q 874 206 1003 25 q 686 594 744 386 q 504 209 633 386 q 160 -129 375 32 l 86 -44 z "},"仆":{"ha":1367,"x_min":65,"x_max":1322,"o":"m 293 -129 l 293 611 q 135 397 208 479 l 65 472 q 426 1118 289 733 l 519 1079 q 394 793 463 926 l 394 -129 l 293 -129 m 789 1111 l 892 1107 l 892 631 l 933 718 q 1140 581 1029 660 q 1322 442 1251 503 l 1263 336 q 1085 484 1194 401 q 892 619 975 567 l 892 -139 l 789 -139 l 789 1111 z "},"仙":{"ha":1367,"x_min":61,"x_max":1215,"o":"m 1215 -133 l 1117 -133 l 1117 -46 l 493 -46 l 493 878 l 590 872 l 590 49 l 803 49 l 803 1110 l 903 1106 l 903 49 l 1117 49 l 1117 878 l 1215 874 l 1215 -133 m 61 506 q 217 783 142 618 q 339 1113 293 947 l 433 1085 q 326 788 386 925 l 326 -137 l 231 -137 l 231 592 q 122 422 183 507 l 61 506 z "},"伏":{"ha":1367,"x_min":57,"x_max":1293,"o":"m 250 -135 l 250 603 q 119 404 186 492 l 57 489 q 227 772 142 596 q 367 1121 313 947 l 463 1093 q 350 797 413 938 l 350 -135 l 250 -135 m 381 -54 q 665 275 576 115 q 764 643 753 435 l 438 643 l 438 749 l 765 749 l 765 1113 l 871 1107 l 871 749 l 1269 749 l 1269 643 l 869 643 q 1293 -46 921 219 l 1217 -137 q 978 101 1076 -35 q 828 394 879 238 q 697 122 786 251 q 457 -143 607 -7 l 381 -54 m 1014 1069 q 1222 860 1081 1008 l 1149 789 l 1001 946 l 946 1004 l 1014 1069 z "},"位":{"ha":1367,"x_min":49,"x_max":1283,"o":"m 629 710 q 710 433 663 601 q 783 154 757 265 l 686 125 q 613 409 661 231 q 533 681 564 588 l 629 710 m 49 493 q 215 779 136 614 q 347 1121 294 944 l 446 1094 q 343 815 401 950 l 343 -124 l 246 -124 l 246 617 q 114 415 185 507 l 49 493 m 415 31 l 860 31 q 960 365 900 151 q 1056 719 1021 578 l 1156 688 q 1064 359 1121 553 q 963 31 1007 165 l 1283 31 l 1283 -71 l 415 -71 l 415 31 m 451 894 l 815 894 q 738 1104 779 1013 l 843 1129 q 929 894 871 1064 l 1260 894 l 1260 793 l 451 793 l 451 894 z "},"使":{"ha":1367,"x_min":56,"x_max":1299,"o":"m 1267 850 l 886 850 l 886 721 l 1219 721 l 1219 363 l 886 363 q 869 203 885 271 q 819 83 854 135 q 1299 -40 1000 -8 l 1272 -136 q 983 -76 1108 -112 q 760 14 857 -40 q 631 -68 708 -31 q 440 -140 553 -106 l 389 -44 q 674 69 585 3 q 482 274 563 151 l 553 324 q 736 133 632 206 q 778 231 767 176 q 792 363 790 286 l 471 363 l 471 721 l 793 721 l 793 850 l 428 850 l 428 944 l 793 944 l 793 1114 l 886 1108 l 886 944 l 1267 944 l 1267 850 m 56 483 q 207 763 135 597 q 331 1113 279 929 l 417 1088 q 318 783 376 928 l 318 -143 l 224 -143 l 224 581 q 118 410 181 500 l 56 483 m 792 451 l 792 635 l 558 635 l 558 451 l 792 451 m 1131 451 l 1131 635 l 886 635 l 886 451 l 1131 451 z "},"來":{"ha":1367,"x_min":81,"x_max":1290,"o":"m 733 946 l 1226 946 l 1226 850 l 733 850 l 733 475 q 963 233 831 336 q 1290 42 1096 131 l 1242 -58 q 949 122 1074 28 q 733 331 824 217 l 733 -139 l 633 -139 l 633 325 q 418 112 542 208 q 128 -69 294 15 l 81 25 q 403 221 269 113 q 633 468 536 329 l 633 850 l 143 850 l 143 946 l 633 946 l 633 1119 l 733 1115 l 733 946 m 124 411 q 353 788 290 575 l 444 769 q 401 649 424 701 q 558 486 503 547 l 501 408 q 360 563 453 464 q 190 346 292 442 l 124 411 m 797 486 q 981 796 918 619 l 1069 772 q 1018 642 1046 699 q 1239 422 1158 507 l 1176 351 q 1000 533 1132 399 l 974 560 q 865 419 932 493 l 797 486 z "},"侖":{"ha":1367,"x_min":64,"x_max":1299,"o":"m 1146 43 q 1119 -68 1146 -35 q 1017 -111 1092 -101 l 944 -119 l 914 -29 l 981 -19 q 1035 6 1019 -14 q 1050 65 1050 25 l 1050 182 l 863 182 l 863 -82 l 774 -82 l 774 182 l 590 182 l 590 -82 l 503 -82 l 503 182 l 315 182 l 315 -126 l 219 -126 l 219 560 l 1146 560 l 1146 43 m 64 694 q 391 878 246 769 q 635 1113 536 988 l 732 1113 q 974 877 832 983 q 1299 694 1117 771 l 1258 600 q 975 754 1106 668 l 975 676 l 389 676 l 389 747 q 108 593 263 664 l 64 694 m 503 275 l 503 471 l 315 471 l 315 275 l 503 275 m 951 771 q 689 1007 786 885 q 425 771 594 889 l 951 771 m 774 275 l 774 471 l 590 471 l 590 275 l 774 275 m 1050 275 l 1050 471 l 863 471 l 863 275 l 1050 275 z "},"俞":{"ha":1367,"x_min":75,"x_max":1296,"o":"m 979 714 l 390 714 l 390 800 l 979 800 l 979 714 m 75 763 q 394 919 253 826 q 635 1118 536 1011 l 738 1118 q 1296 771 944 900 l 1253 678 q 940 831 1089 739 q 685 1022 792 924 q 431 829 576 922 q 115 665 286 736 l 75 763 m 132 -92 q 192 66 175 -21 q 208 282 208 153 l 208 611 l 664 611 l 664 8 q 640 -77 664 -50 q 557 -111 615 -104 l 469 -121 l 439 -39 l 519 -31 q 563 -9 550 -28 q 576 46 576 10 l 576 135 l 289 135 q 218 -128 278 -15 l 132 -92 m 576 213 l 576 333 l 294 333 l 294 243 q 293 213 294 222 l 576 213 m 576 411 l 576 529 l 294 529 l 294 411 l 576 411 m 811 586 l 897 582 l 897 90 l 811 90 l 811 586 m 993 -25 q 1049 -1 1035 -21 q 1064 71 1064 19 l 1064 636 l 1151 632 l 1151 49 q 1140 -42 1151 -10 q 1101 -88 1128 -74 q 1024 -110 1074 -103 l 913 -124 l 882 -37 l 993 -25 z "},"俠":{"ha":1367,"x_min":61,"x_max":1296,"o":"m 1261 824 l 883 824 l 883 606 q 881 506 883 569 q 1006 172 904 303 q 1294 -33 1107 42 l 1240 -136 q 991 36 1089 -65 q 842 278 893 138 q 708 52 801 149 q 447 -143 615 -44 l 388 -49 q 629 122 544 36 q 750 322 714 208 q 786 610 786 436 l 786 824 l 435 824 l 435 925 l 786 925 l 786 1113 l 883 1108 l 883 925 l 1261 925 l 1261 824 m 61 488 q 219 767 140 596 q 350 1111 299 939 l 439 1085 q 336 796 393 933 l 336 -142 l 239 -142 l 239 590 q 124 404 190 497 l 61 488 m 392 349 q 497 549 447 433 q 569 765 546 665 l 654 743 q 613 604 638 676 q 768 422 713 489 l 703 353 q 575 510 644 429 q 458 290 526 397 l 392 349 m 918 394 q 1003 570 965 472 q 1063 767 1042 668 l 1147 746 q 1100 596 1124 663 q 1296 372 1203 486 l 1226 307 q 1064 503 1169 383 q 983 335 1033 428 l 918 394 z "},"信":{"ha":1367,"x_min":56,"x_max":1296,"o":"m 824 951 q 761 1099 789 1042 l 863 1124 q 906 1021 875 1096 l 935 951 l 1296 951 l 1296 856 l 432 856 l 432 951 l 824 951 m 56 497 q 213 781 136 608 q 331 1114 289 953 l 424 1093 q 332 811 383 943 l 332 -137 l 235 -137 l 235 600 q 121 415 178 493 l 56 497 m 508 532 l 1189 532 l 1189 443 l 508 443 l 508 532 m 508 736 l 1189 736 l 1189 647 l 508 647 l 508 736 m 510 326 l 1189 326 l 1189 -135 l 1089 -135 l 1089 -56 l 610 -56 l 610 -136 l 510 -136 l 510 326 m 1089 38 l 1089 232 l 610 232 l 610 38 l 1089 38 z "},"倉":{"ha":1367,"x_min":68,"x_max":1297,"o":"m 78 -50 q 203 110 161 36 q 263 281 246 183 q 281 540 281 379 l 281 722 q 107 635 201 679 l 68 731 q 644 1121 446 885 l 728 1121 q 1297 739 917 896 l 1256 643 q 1099 721 1179 678 l 1099 331 l 371 331 q 307 90 358 196 q 151 -124 256 -17 l 78 -50 m 1050 747 q 871 861 953 801 l 871 815 l 514 815 l 514 871 q 326 747 432 808 l 1050 747 m 363 231 l 1113 231 l 1113 -136 l 1014 -136 l 1014 -78 l 461 -78 l 461 -136 l 363 -136 l 363 231 m 1000 410 l 1000 497 l 376 497 l 376 410 l 1000 410 m 1000 576 l 1000 664 l 376 664 l 376 576 l 1000 576 m 1014 3 l 1014 149 l 461 149 l 461 3 l 1014 3 m 828 894 q 686 1028 747 957 q 544 894 626 960 l 828 894 z "},"偏":{"ha":1367,"x_min":54,"x_max":1238,"o":"m 214 -132 l 214 557 q 124 403 168 468 l 54 481 q 203 765 135 597 q 311 1103 271 933 l 401 1074 q 304 763 356 901 l 304 -132 l 214 -132 m 338 -54 q 461 575 458 171 l 461 1022 q 876 1053 694 1036 q 1199 1101 1057 1071 l 1218 1013 q 908 972 1100 990 q 550 944 715 954 l 550 869 l 1231 869 l 1231 601 l 550 601 l 550 596 q 516 204 546 389 q 421 -103 486 19 l 338 -54 m 550 510 l 1238 510 l 1238 14 q 1217 -71 1238 -40 q 1150 -107 1197 -101 l 1072 -118 l 1042 -31 l 1100 -22 q 1136 0 1124 -19 q 1149 49 1149 19 l 1149 172 l 1029 172 l 1029 -57 l 951 -57 l 951 172 l 832 172 l 832 -56 l 754 -56 l 754 172 l 636 172 l 636 -124 l 550 -124 l 550 510 m 1146 678 l 1146 790 l 550 790 l 550 678 l 1146 678 m 754 257 l 754 426 l 636 426 l 636 257 l 754 257 m 951 257 l 951 426 l 832 426 l 832 257 l 951 257 m 1149 257 l 1149 426 l 1029 426 l 1029 257 l 1149 257 z "},"健":{"ha":1367,"x_min":50,"x_max":1288,"o":"m 892 800 l 892 908 l 711 908 l 711 989 l 892 989 l 892 1113 l 981 1107 l 981 989 l 1203 989 l 1203 800 l 1288 800 l 1288 719 l 1203 719 l 1203 529 l 981 529 l 981 429 l 1217 429 l 1217 350 l 981 350 l 981 246 l 1254 246 l 1254 165 l 981 165 l 981 26 l 892 26 l 892 165 l 657 165 l 657 246 l 892 246 l 892 350 l 707 350 l 707 429 l 892 429 l 892 529 l 711 529 l 711 610 l 892 610 l 892 719 l 672 719 l 672 800 l 892 800 m 50 496 q 179 776 117 608 q 276 1104 242 943 l 361 1085 q 278 790 326 928 l 278 -125 l 190 -125 l 190 571 q 114 419 156 493 l 50 496 m 315 -65 q 458 143 407 46 q 343 433 389 258 l 422 460 q 501 239 458 324 q 540 372 525 300 q 564 540 554 444 l 378 540 l 378 626 l 550 919 l 382 919 l 382 1007 l 649 1007 l 649 918 l 478 626 l 647 626 l 647 536 q 612 317 632 407 q 560 149 592 226 q 691 41 614 79 q 875 -6 768 3 q 1072 -12 983 -12 q 1286 -6 1168 -12 l 1269 -92 q 1060 -99 1151 -99 q 867 -92 974 -99 q 669 -47 754 -83 q 518 63 583 -11 q 390 -129 474 -18 l 315 -65 m 1117 610 l 1117 719 l 981 719 l 981 610 l 1117 610 m 1117 800 l 1117 908 l 981 908 l 981 800 l 1117 800 z "},"側":{"ha":1367,"x_min":50,"x_max":1231,"o":"m 814 208 l 433 208 l 433 1032 l 814 1032 l 814 208 m 50 483 q 189 767 124 600 q 299 1111 254 935 l 382 1089 q 300 806 340 924 l 300 -137 l 208 -137 l 208 576 q 119 411 172 497 l 50 483 m 342 -85 q 436 42 392 -28 q 511 179 481 111 l 588 136 q 413 -136 506 -26 l 342 -85 m 731 308 l 731 460 l 522 460 l 522 308 l 731 308 m 731 544 l 731 697 l 522 697 l 522 544 l 731 544 m 731 782 l 731 935 l 522 935 l 522 782 l 731 782 m 726 176 q 881 -47 785 101 l 810 -96 q 736 19 782 -50 q 658 131 690 88 l 726 176 m 931 964 l 1015 960 l 1015 164 l 931 164 l 931 964 m 1063 -12 q 1122 16 1108 -7 q 1136 92 1136 39 l 1136 1094 l 1231 1090 l 1231 65 q 1218 -33 1231 3 q 1174 -85 1206 -68 q 1083 -110 1143 -103 l 979 -121 l 951 -24 l 1063 -12 z "},"元":{"ha":1367,"x_min":78,"x_max":1274,"o":"m 1161 922 l 207 922 l 207 1028 l 1161 1028 l 1161 922 m 78 -54 q 283 88 213 19 q 381 231 354 157 q 410 408 407 304 l 413 564 l 93 564 l 93 671 l 1274 671 l 1274 564 l 876 564 l 876 119 q 893 35 876 57 q 960 6 910 13 q 1015 3 999 3 q 1069 6 1036 3 q 1131 20 1111 11 q 1158 51 1150 29 q 1169 119 1167 74 l 1171 156 q 1174 254 1174 219 l 1274 221 q 1267 75 1274 193 q 1246 -26 1263 10 q 1192 -78 1229 -61 q 1089 -100 1156 -94 q 1010 -104 1050 -104 q 931 -100 971 -104 q 836 -76 871 -94 q 785 -16 801 -57 q 768 96 768 25 l 768 564 l 521 564 q 519 408 521 449 q 483 196 515 286 q 372 23 451 106 q 150 -147 293 -60 l 78 -54 z "},"光":{"ha":1367,"x_min":67,"x_max":1263,"o":"m 1263 485 l 867 485 l 867 103 q 883 32 867 50 q 943 8 899 14 q 1013 4 979 4 q 1082 8 1049 4 q 1142 32 1126 14 q 1160 100 1158 50 q 1163 236 1164 211 l 1261 206 q 1260 144 1263 185 q 1256 68 1258 103 q 1236 -32 1251 1 q 1189 -79 1221 -65 q 1096 -99 1157 -93 q 1001 -103 1049 -103 q 908 -99 957 -103 q 819 -78 850 -93 q 774 -28 788 -64 q 760 74 760 7 l 760 485 l 538 485 l 536 451 q 492 197 528 299 q 376 15 457 94 q 147 -140 294 -65 l 67 -49 q 282 84 206 17 q 392 238 358 151 q 429 454 425 325 l 429 485 l 97 485 l 97 590 l 626 590 l 626 1108 l 733 1104 l 733 590 l 1263 590 l 1263 485 m 261 1019 q 387 867 311 963 q 504 713 463 772 l 421 647 q 302 809 376 713 q 181 957 228 906 l 261 1019 m 856 710 q 981 863 914 774 q 1094 1024 1049 951 l 1181 964 q 1059 797 1129 889 q 935 644 989 706 l 856 710 z "},"兌":{"ha":1367,"x_min":79,"x_max":1269,"o":"m 79 728 q 333 898 219 797 q 519 1114 446 999 l 597 1063 q 321 765 493 897 l 1053 765 q 736 1049 940 875 l 797 1114 q 1038 905 911 1021 q 1269 685 1165 789 l 1204 611 q 1065 753 1131 690 l 1065 317 l 863 317 l 863 89 q 878 19 863 36 q 940 -1 893 3 q 1011 -4 964 -4 q 1079 -1 1057 -4 q 1136 19 1121 1 q 1154 85 1151 36 q 1161 211 1158 133 l 1249 182 q 1242 49 1247 119 q 1222 -36 1236 -7 q 1181 -77 1208 -65 q 1104 -92 1154 -89 q 1007 -94 1072 -94 q 910 -92 942 -94 q 799 -54 831 -87 q 768 63 768 -21 l 768 317 l 567 317 l 556 250 q 499 88 542 156 q 372 -31 456 21 q 146 -131 288 -83 l 106 -37 q 308 42 239 3 q 410 133 378 81 q 457 276 443 186 l 464 317 l 279 317 l 279 735 q 128 639 206 683 l 79 728 m 968 411 l 968 669 l 375 669 l 375 411 l 968 411 z "},"兔":{"ha":1367,"x_min":68,"x_max":1267,"o":"m 1004 911 l 835 747 l 1144 747 l 1144 342 l 783 342 l 783 86 q 799 20 783 36 q 864 0 815 4 q 969 -3 900 -3 q 1074 0 1039 -3 q 1129 10 1111 3 q 1155 33 1147 17 q 1165 85 1163 50 q 1171 203 1171 160 l 1267 172 q 1257 38 1264 113 q 1238 -40 1253 -12 q 1193 -80 1224 -68 q 1107 -96 1163 -92 q 971 -100 1039 -100 q 833 -96 903 -100 q 745 -78 776 -92 q 699 -33 714 -65 q 685 58 685 -1 l 683 342 q 505 69 631 181 q 143 -137 379 -42 l 94 -33 q 415 135 306 50 q 575 342 525 219 l 226 342 l 226 688 q 115 600 165 635 l 68 699 q 294 901 192 788 q 468 1139 396 1014 l 567 1104 q 501 999 542 1058 l 1004 999 l 1004 911 m 692 747 l 864 908 l 436 908 q 292 747 376 832 l 692 747 m 604 438 q 631 654 624 528 l 325 654 l 325 438 l 604 438 m 1046 438 l 1046 654 l 733 654 q 708 438 728 536 l 1046 438 m 914 314 q 1010 231 957 279 q 1099 146 1063 183 l 1033 72 q 944 163 997 111 q 854 244 892 214 l 914 314 z "},"內":{"ha":1367,"x_min":185,"x_max":1185,"o":"m 1185 74 q 1151 -65 1185 -24 q 1025 -114 1117 -107 l 893 -124 l 863 -25 l 996 -17 q 1068 16 1049 -12 q 1088 106 1088 44 l 1088 726 l 776 726 q 886 460 822 574 q 1051 239 950 346 l 979 161 q 823 374 886 267 q 715 613 760 482 q 594 376 664 476 q 393 153 525 275 l 324 229 q 531 459 456 346 q 654 726 606 572 l 282 726 l 282 -132 l 185 -132 l 185 828 l 653 828 q 621 983 632 915 l 356 983 l 356 1079 l 699 1079 q 750 828 725 931 l 1185 828 l 1185 74 z "},"八":{"ha":1367,"x_min":83,"x_max":1278,"o":"m 83 -40 q 286 260 214 114 q 392 573 358 407 q 436 972 425 739 l 539 971 q 492 547 526 722 q 383 213 458 371 q 171 -110 307 56 l 83 -40 m 640 1086 l 897 1086 l 897 990 q 950 555 910 728 q 1066 249 990 382 q 1278 -36 1142 117 l 1192 -111 q 974 194 1053 47 q 853 526 894 340 q 796 990 811 713 l 640 990 l 640 1086 z "},"公":{"ha":1367,"x_min":85,"x_max":1288,"o":"m 921 1081 q 1065 744 976 883 q 1288 511 1154 604 l 1219 419 q 990 669 1082 532 q 840 989 899 806 l 629 989 l 629 1081 l 921 1081 m 85 503 q 319 752 226 619 q 467 1044 411 885 l 560 1010 q 395 683 500 835 q 154 419 290 532 l 85 503 m 206 13 q 258 36 242 25 q 294 71 275 47 q 461 328 369 163 q 622 656 553 493 l 719 618 q 558 299 653 468 q 389 28 464 129 q 967 89 656 51 q 807 363 868 269 l 890 413 q 1028 178 947 322 q 1168 -82 1108 35 l 1081 -131 q 1054 -76 1067 -101 q 1032 -33 1042 -51 l 1015 -1 q 325 -78 736 -35 l 235 -87 l 206 13 z "},"其":{"ha":1367,"x_min":75,"x_max":1290,"o":"m 1247 869 l 1050 869 l 1050 279 l 1290 279 l 1290 186 l 75 186 l 75 279 l 314 279 l 314 869 l 117 869 l 117 963 l 314 963 l 314 1108 l 415 1103 l 415 963 l 950 963 l 950 1108 l 1050 1103 l 1050 963 l 1247 963 l 1247 869 m 107 -57 q 310 37 200 -21 q 517 157 419 94 l 564 67 q 357 -47 472 13 q 146 -151 242 -107 l 107 -57 m 950 279 l 950 417 l 415 417 l 415 279 l 950 279 m 950 506 l 950 643 l 415 643 l 415 506 l 950 506 m 950 733 l 950 869 l 415 869 l 415 733 l 950 733 m 833 153 q 1044 51 929 107 q 1253 -54 1160 -6 l 1207 -144 q 997 -35 1121 -97 q 792 63 874 26 l 833 153 z "},"冲":{"ha":1367,"x_min":78,"x_max":1200,"o":"m 774 867 l 774 1117 l 875 1111 l 875 867 l 1200 867 l 1200 260 l 875 260 l 875 -147 l 774 -147 l 774 260 l 453 260 l 453 867 l 774 867 m 78 -19 q 193 243 129 72 q 282 522 257 414 l 376 489 q 292 212 353 385 q 183 -60 231 39 l 78 -19 m 190 1061 q 288 896 231 1003 q 382 707 344 789 l 292 642 q 205 834 261 725 q 104 1014 149 943 l 190 1061 m 774 367 l 774 764 l 554 764 l 554 367 l 774 367 m 1094 367 l 1094 764 l 875 764 l 875 367 l 1094 367 z "},"冷":{"ha":1367,"x_min":103,"x_max":1301,"o":"m 186 1076 q 275 924 225 1015 q 361 758 325 832 l 274 707 q 189 875 240 776 q 103 1032 138 974 l 186 1076 m 106 -14 q 188 220 143 85 q 265 464 233 356 l 360 435 q 285 185 328 317 q 204 -46 243 53 l 106 -14 m 349 647 q 601 853 497 746 q 771 1088 704 960 l 863 1088 q 1041 842 932 949 q 1301 646 1150 736 l 1244 554 q 1042 704 1139 617 l 1042 631 l 596 631 l 596 711 q 414 563 511 633 l 349 647 m 472 485 l 1169 485 l 1169 390 q 886 72 1008 188 q 1069 -49 1017 -11 l 1017 -135 q 564 160 869 -22 l 621 236 l 801 126 q 940 262 867 183 q 1051 394 1013 340 l 472 394 l 472 485 m 1026 718 q 818 985 896 843 q 603 718 742 849 l 1026 718 z "},"凰":{"ha":1367,"x_min":53,"x_max":1303,"o":"m 969 293 l 707 293 l 707 189 l 947 189 l 947 114 l 707 114 l 707 8 l 1019 8 l 1019 -69 l 296 -69 l 296 8 l 614 8 l 614 114 l 372 114 l 372 189 l 614 189 l 614 293 l 351 293 l 351 369 l 969 369 l 969 293 m 53 -71 q 135 115 107 28 q 175 302 164 201 q 186 551 186 403 l 186 1056 l 1122 1056 l 1122 482 q 1142 90 1122 199 q 1175 11 1157 11 q 1193 28 1186 11 q 1208 88 1200 44 q 1228 210 1224 167 l 1303 169 q 1272 6 1292 75 q 1227 -96 1251 -65 q 1172 -126 1203 -126 q 1115 -99 1144 -126 q 1069 -19 1086 -72 q 1028 431 1028 132 l 1028 965 l 282 965 l 282 504 q 252 168 282 317 q 142 -132 222 19 l 53 -71 m 397 844 l 578 844 q 615 949 603 907 l 706 935 l 672 844 l 919 844 l 919 451 l 397 451 l 397 844 m 829 522 l 829 614 l 483 614 l 483 522 l 829 522 m 829 679 l 829 772 l 483 772 l 483 679 l 829 679 z "},"分":{"ha":1367,"x_min":74,"x_max":1292,"o":"m 74 571 q 319 798 221 679 q 486 1071 418 917 l 576 1033 q 400 738 501 861 q 128 485 299 615 l 74 571 m 128 -53 q 306 79 243 15 q 399 217 369 143 q 439 399 428 290 l 446 482 l 246 482 l 246 579 l 1046 579 q 1007 83 1025 272 q 978 -26 1000 14 q 913 -85 956 -65 q 799 -111 871 -104 l 688 -121 l 654 -24 l 771 -15 q 848 2 821 -11 q 888 44 875 15 q 908 125 901 72 q 939 482 926 282 l 546 482 l 540 399 q 499 186 531 274 q 396 22 467 99 q 199 -133 325 -54 l 128 -53 m 646 1106 l 861 1106 q 1028 805 908 946 q 1292 567 1149 664 l 1231 475 q 960 722 1074 594 q 794 1014 847 850 l 646 1014 l 646 1106 z "},"列":{"ha":1367,"x_min":71,"x_max":1217,"o":"m 956 176 l 854 176 l 854 968 l 956 963 l 956 176 m 71 374 q 236 628 163 474 q 339 938 310 783 l 124 938 l 124 1039 l 772 1039 l 772 938 l 442 938 q 390 744 424 853 l 707 744 l 707 647 q 602 332 665 465 q 436 90 539 199 q 174 -125 333 -19 l 107 -37 q 310 111 226 38 q 450 267 393 185 q 253 447 386 331 q 138 294 196 358 l 71 374 m 303 533 q 504 356 432 422 q 606 644 565 475 l 353 644 q 303 533 328 585 m 1017 -15 q 1097 10 1076 -12 q 1117 93 1117 32 l 1117 1097 l 1217 1093 l 1217 58 q 1201 -38 1217 -3 q 1147 -91 1185 -74 q 1042 -115 1110 -108 l 938 -125 l 906 -21 l 1017 -15 z "},"初":{"ha":1367,"x_min":61,"x_max":1232,"o":"m 260 -128 l 260 439 q 97 272 185 351 l 61 372 q 253 579 167 468 q 394 801 339 690 l 100 801 l 100 900 l 282 900 q 224 1100 244 1035 l 319 1122 l 354 1000 l 382 900 l 508 900 l 508 810 q 360 565 446 686 l 360 476 l 399 446 q 542 632 497 569 l 610 575 q 471 392 540 476 q 588 301 532 346 l 535 228 l 506 251 q 438 305 475 275 q 360 367 400 335 l 360 -128 l 260 -128 m 440 -69 q 614 151 557 57 q 697 366 671 246 q 733 693 722 486 q 738 860 738 743 q 739 907 739 876 l 567 907 l 567 1007 l 1232 1007 q 1214 517 1226 790 q 1190 101 1201 243 q 1163 -18 1183 25 q 1100 -83 1143 -61 q 981 -112 1057 -104 l 869 -125 l 836 -18 l 946 -10 q 1031 8 1001 -6 q 1073 52 1060 21 q 1090 143 1086 83 q 1124 907 1110 415 l 840 907 q 832 681 838 779 q 794 333 821 463 q 707 100 767 204 q 526 -142 647 -4 l 440 -69 z "},"制":{"ha":1367,"x_min":82,"x_max":1217,"o":"m 982 153 l 886 153 l 886 967 l 982 963 l 982 153 m 82 647 l 408 647 l 408 813 l 236 813 q 183 693 214 753 l 96 724 q 210 1053 176 888 l 303 1036 q 269 908 288 968 l 408 908 l 408 1101 l 503 1097 l 503 908 l 775 908 l 775 813 l 503 813 l 503 647 l 804 647 l 804 551 l 503 551 l 503 406 l 760 406 l 760 96 q 733 -1 760 32 q 646 -40 706 -35 l 581 -47 l 551 43 l 615 50 q 671 124 671 56 l 671 310 l 503 310 l 503 -151 l 408 -151 l 408 310 l 242 310 l 242 -54 l 153 -54 l 153 406 l 408 406 l 408 551 l 82 551 l 82 647 m 1031 -28 q 1101 1 1079 -25 q 1122 81 1122 26 l 1122 1085 l 1217 1081 l 1217 47 q 1183 -78 1217 -40 q 1060 -125 1149 -115 l 963 -135 l 928 -36 l 1031 -28 z "},"前":{"ha":1367,"x_min":83,"x_max":1272,"o":"m 1272 847 l 83 847 l 83 938 l 436 938 q 340 1081 383 1021 l 424 1125 q 544 938 483 1042 l 790 938 q 918 1128 878 1056 l 1007 1081 q 904 938 964 1013 l 1272 938 l 1272 847 m 93 -71 q 156 65 136 -3 q 180 224 175 132 q 186 510 185 317 l 186 728 l 653 728 l 653 29 q 626 -77 653 -46 q 529 -115 600 -108 l 442 -125 l 411 -37 l 497 -29 q 547 -6 532 -25 q 561 53 561 14 l 561 181 l 269 181 q 240 17 261 86 q 174 -122 218 -51 l 93 -71 m 561 268 l 561 408 l 278 408 l 276 363 q 274 268 276 326 l 561 268 m 561 499 l 561 642 l 278 642 l 278 499 l 561 499 m 806 697 l 894 693 l 894 110 l 806 110 l 806 697 m 983 -24 q 1046 5 1029 -18 q 1063 82 1063 28 l 1063 754 l 1156 750 l 1156 58 q 1143 -37 1156 -3 q 1100 -88 1131 -71 q 1013 -112 1069 -106 l 910 -125 l 881 -33 l 983 -24 z "},"副":{"ha":1367,"x_min":104,"x_max":1225,"o":"m 983 193 l 888 193 l 888 960 l 983 956 l 983 193 m 104 1035 l 806 1035 l 804 944 l 104 944 l 104 1035 m 133 465 l 774 465 l 774 -94 l 133 -94 l 133 465 m 185 844 l 724 844 l 724 563 l 185 563 l 185 844 m 410 -7 l 410 154 l 228 154 l 228 -7 l 410 -7 m 410 236 l 410 383 l 228 383 l 228 236 l 410 236 m 632 643 l 632 763 l 276 763 l 276 643 l 632 643 m 681 -7 l 681 154 l 500 154 l 500 -7 l 681 -7 m 681 236 l 681 383 l 500 383 l 500 236 l 681 236 m 1036 -15 q 1109 12 1090 -12 q 1128 97 1128 36 l 1128 1086 l 1225 1082 l 1225 64 q 1210 -36 1225 0 q 1162 -91 1196 -72 q 1064 -115 1128 -110 l 949 -125 l 915 -22 l 1036 -15 z "},"力":{"ha":1367,"x_min":93,"x_max":1179,"o":"m 1179 839 q 1163 458 1174 664 q 1142 117 1153 251 q 1110 -7 1135 38 q 1038 -72 1086 -51 q 906 -101 990 -93 l 750 -117 l 715 -7 l 871 4 q 967 22 935 8 q 1015 67 999 35 q 1038 167 1031 100 q 1067 738 1053 346 l 625 738 q 569 361 611 504 q 436 107 528 218 q 168 -135 344 -4 l 93 -49 q 344 169 260 71 q 467 394 429 267 q 518 738 506 522 l 132 738 l 132 839 l 524 839 l 533 1118 l 639 1114 q 629 839 635 974 l 1179 839 z "},"加":{"ha":1367,"x_min":64,"x_max":1225,"o":"m 663 878 q 654 465 661 701 q 638 88 647 228 q 615 -19 632 18 q 563 -74 599 -57 q 460 -97 526 -92 l 378 -106 l 343 1 l 439 7 q 496 20 476 10 q 526 57 515 31 q 540 136 538 83 q 561 772 558 417 l 361 772 q 336 392 354 538 q 276 124 318 246 q 154 -140 235 3 l 64 -83 q 181 163 142 50 q 238 413 221 276 q 263 772 256 550 l 94 772 l 94 878 l 265 878 l 268 1115 l 369 1111 l 364 878 l 663 878 m 783 946 l 1225 946 l 1225 -112 l 1128 -112 l 1128 -10 l 883 -10 l 883 -112 l 783 -112 l 783 946 m 1128 93 l 1128 842 l 883 842 l 883 93 l 1128 93 z "},"動":{"ha":1367,"x_min":74,"x_max":1231,"o":"m 696 308 l 454 308 l 454 219 l 703 219 l 703 142 l 454 142 l 454 31 l 699 56 l 700 -31 q 79 -86 385 -65 l 74 0 q 368 24 201 8 l 368 142 l 113 142 l 113 219 l 368 219 l 368 308 l 124 308 l 124 694 l 368 694 l 368 782 l 78 782 l 78 860 l 368 860 l 368 958 q 108 942 251 950 l 103 1031 q 415 1049 247 1036 q 694 1078 582 1063 l 704 992 q 454 965 586 976 l 454 860 l 715 860 l 715 782 l 454 782 l 454 694 l 696 694 l 696 308 m 368 381 l 368 467 l 211 467 l 211 381 l 368 381 m 368 538 l 368 622 l 211 622 l 211 538 l 368 538 m 611 381 l 611 467 l 454 467 l 454 381 l 611 381 m 611 538 l 611 622 l 454 622 l 454 538 l 611 538 m 663 -89 q 799 130 754 25 q 860 367 843 235 q 886 742 878 500 l 756 742 l 756 835 l 889 835 q 894 1111 894 1040 l 985 1107 l 978 835 l 1231 835 l 1231 790 q 1225 449 1231 644 q 1208 99 1219 254 q 1190 -9 1203 26 q 1146 -60 1176 -44 q 1054 -81 1115 -75 l 974 -89 l 944 8 l 1028 14 q 1083 27 1065 17 q 1109 61 1101 38 q 1121 136 1117 85 q 1143 742 1140 432 l 975 740 q 948 353 968 497 q 880 95 928 208 q 738 -142 832 -18 l 663 -89 z "},"勞":{"ha":1367,"x_min":118,"x_max":1226,"o":"m 118 -44 q 334 35 254 -4 q 455 122 414 75 q 511 231 496 168 l 175 231 l 175 325 l 526 325 q 535 439 533 403 l 640 433 q 632 325 638 372 l 1118 325 q 1094 79 1108 172 q 1063 -32 1083 6 q 1002 -85 1043 -69 q 883 -107 961 -101 l 726 -117 l 690 -21 l 860 -12 q 934 1 908 -10 q 972 35 960 13 q 990 101 985 58 q 1004 231 1003 172 l 619 231 q 549 65 599 131 q 407 -50 499 -1 q 160 -144 315 -99 l 118 -44 m 140 582 l 1226 582 l 1226 368 l 1125 368 l 1125 489 l 240 489 l 240 368 l 140 368 l 140 582 m 225 1050 q 258 994 225 1050 q 331 874 311 908 l 256 833 q 151 1014 217 913 l 225 1050 m 156 674 q 287 762 240 719 q 353 858 333 804 q 372 996 372 913 l 372 1124 l 465 1119 l 465 990 q 454 868 465 926 q 492 839 471 854 q 660 700 610 744 l 607 626 q 425 788 525 704 q 345 686 397 732 q 208 594 293 640 l 156 674 m 494 876 q 551 969 521 918 q 594 1046 582 1019 l 671 1014 q 567 836 651 978 l 494 876 m 769 1053 l 857 861 l 778 828 q 706 996 756 888 l 693 1024 l 769 1053 m 700 683 q 830 767 786 726 q 890 860 874 808 q 907 994 907 911 l 907 1124 l 1001 1119 l 1001 990 q 983 849 1001 908 l 1053 799 q 1208 686 1174 714 l 1153 608 q 947 772 1064 685 q 873 687 919 728 q 754 601 826 646 l 700 683 m 1040 860 q 1140 1047 1115 985 l 1218 1018 q 1171 922 1199 976 q 1118 824 1143 867 l 1040 860 z "},"包":{"ha":1367,"x_min":67,"x_max":1261,"o":"m 67 636 q 247 865 167 740 q 375 1119 326 990 l 483 1089 q 432 972 465 1042 l 1150 972 q 1131 347 1146 669 q 1107 228 1126 272 q 1047 163 1088 185 q 935 133 1006 142 l 831 124 l 800 224 l 921 233 q 1005 269 982 238 q 1031 378 1028 300 q 1049 874 1044 665 l 381 874 q 271 707 328 783 l 815 707 l 815 285 l 326 285 l 326 101 q 337 35 326 56 q 372 6 347 14 q 449 -4 396 -1 q 742 -15 600 -15 q 1035 -4 886 -15 q 1108 6 1085 -1 q 1140 33 1131 14 q 1153 94 1150 53 q 1163 208 1160 144 l 1261 169 q 1247 38 1260 146 q 1221 -48 1239 -19 q 1164 -89 1203 -76 q 1049 -106 1125 -101 q 729 -115 904 -115 q 425 -106 563 -115 q 308 -86 349 -101 q 248 -33 267 -71 q 229 78 229 4 l 229 653 q 136 549 181 594 l 67 636 m 718 383 l 718 607 l 326 607 l 326 383 l 718 383 z "},"區":{"ha":1367,"x_min":106,"x_max":1265,"o":"m 1100 554 l 468 554 l 468 860 l 1100 860 l 1100 554 m 106 1047 l 1236 1047 l 1236 958 l 263 958 l 263 92 q 283 18 263 38 q 360 -1 303 -1 l 1265 -1 l 1258 -92 l 326 -92 q 229 -76 264 -92 q 181 -27 194 -61 q 167 68 167 7 l 167 958 l 106 958 l 106 1047 m 386 458 l 733 458 l 733 106 l 386 106 l 386 458 m 653 186 l 653 379 l 469 379 l 469 186 l 653 186 m 1001 640 l 1001 774 l 565 774 l 565 640 l 1001 640 m 835 458 l 1185 458 l 1185 106 l 835 106 l 835 458 m 1103 186 l 1103 379 l 917 379 l 917 186 l 1103 186 z "},"十":{"ha":1367,"x_min":90,"x_max":1275,"o":"m 1275 529 l 736 529 l 736 -133 l 628 -133 l 628 529 l 90 529 l 90 639 l 628 639 l 628 1114 l 736 1110 l 736 639 l 1275 639 l 1275 529 z "},"千":{"ha":1367,"x_min":79,"x_max":1283,"o":"m 175 967 q 664 1006 378 975 q 1140 1072 950 1038 l 1163 963 q 738 907 989 933 l 738 572 l 1283 572 l 1283 464 l 738 464 l 738 -136 l 625 -136 l 625 464 l 79 464 l 79 572 l 625 572 l 625 894 q 182 860 368 868 l 175 967 z "},"升":{"ha":1367,"x_min":93,"x_max":1283,"o":"m 1004 607 l 1283 607 l 1283 503 l 1004 503 l 1004 -132 l 900 -132 l 900 503 l 507 503 q 474 238 503 343 q 378 45 446 132 q 182 -137 310 -42 l 99 -54 q 289 111 226 38 q 374 272 351 185 q 399 503 396 358 l 93 503 l 93 607 l 399 607 l 399 907 q 147 865 285 885 l 128 968 q 451 1020 271 986 q 756 1088 631 1054 l 779 989 q 507 928 643 954 l 507 607 l 900 607 l 900 1110 l 1004 1106 l 1004 607 z "},"卦":{"ha":1367,"x_min":79,"x_max":1326,"o":"m 968 690 l 989 725 q 1170 588 1076 663 q 1326 456 1264 514 l 1269 358 q 1124 491 1208 418 q 968 619 1040 564 l 968 -133 l 868 -133 l 868 1113 l 968 1108 l 968 690 m 79 38 q 374 65 167 44 l 374 276 l 124 276 l 124 375 l 374 375 l 374 513 l 474 508 l 474 375 l 728 375 l 728 276 l 474 276 l 474 76 l 767 106 l 767 3 l 665 -7 q 352 -38 557 -18 q 89 -65 147 -58 l 79 38 m 85 664 l 374 664 l 374 840 l 121 840 l 121 940 l 374 940 l 374 1114 l 474 1110 l 474 940 l 728 940 l 728 840 l 474 840 l 474 664 l 763 664 l 763 563 l 85 563 l 85 664 z "},"印":{"ha":1367,"x_min":139,"x_max":1232,"o":"m 632 517 l 275 517 l 275 125 q 632 250 450 175 l 639 143 q 179 -8 415 49 l 139 89 l 174 97 l 174 969 q 389 1024 263 985 q 614 1103 515 1064 l 646 1003 q 460 933 560 967 q 275 881 360 900 l 275 624 l 632 624 l 632 517 m 721 1004 l 1232 1004 l 1232 250 q 1200 109 1232 151 q 1097 58 1168 67 l 963 44 l 928 150 l 1051 161 q 1114 194 1097 165 q 1131 290 1131 224 l 1131 899 l 822 899 l 822 -135 l 721 -135 l 721 1004 z "},"卻":{"ha":1367,"x_min":71,"x_max":1225,"o":"m 71 421 q 275 615 179 501 q 418 829 371 728 l 506 796 q 481 742 496 769 q 622 616 540 690 q 765 483 704 542 l 707 404 q 573 533 651 460 q 433 661 494 607 q 115 335 322 493 l 71 421 m 83 789 q 215 929 146 847 q 331 1082 285 1011 l 410 1026 q 288 867 357 950 q 154 722 218 785 l 83 789 m 201 403 l 669 403 l 669 -69 l 201 -69 l 201 403 m 574 28 l 574 307 l 299 307 l 299 28 l 574 28 m 540 1083 q 652 969 582 1043 q 769 839 722 894 l 697 772 q 586 901 656 824 q 474 1024 517 979 l 540 1083 m 818 1006 l 1225 1006 l 1225 224 q 1197 113 1225 144 q 1099 72 1168 81 l 997 61 l 965 164 l 1060 174 q 1115 198 1099 178 q 1131 264 1131 218 l 1131 903 l 913 903 l 913 -137 l 818 -137 l 818 1006 z "},"厘":{"ha":1367,"x_min":63,"x_max":1289,"o":"m 1176 353 l 850 353 l 850 225 l 1219 225 l 1219 139 l 850 139 l 850 3 l 1289 3 l 1289 -82 l 313 -82 l 313 3 l 760 3 l 760 139 l 392 139 l 392 225 l 760 225 l 760 353 l 435 353 l 435 835 l 1176 835 l 1176 353 m 63 -87 q 149 106 119 15 q 189 301 178 196 q 200 568 200 407 l 200 1039 l 1288 1039 l 1288 944 l 297 944 l 297 576 q 285 279 297 394 q 244 68 274 164 q 157 -137 215 -28 l 63 -87 m 760 435 l 760 556 l 525 556 l 525 435 l 760 435 m 760 632 l 760 753 l 525 753 l 525 632 l 760 632 m 1086 435 l 1086 556 l 850 556 l 850 435 l 1086 435 m 1086 632 l 1086 753 l 850 753 l 850 632 l 1086 632 z "},"原":{"ha":1367,"x_min":61,"x_max":1288,"o":"m 1174 317 l 872 317 l 872 40 q 843 -75 872 -42 q 739 -115 814 -108 l 635 -126 l 603 -28 l 700 -19 q 755 6 739 -17 q 771 78 771 29 l 771 317 l 446 317 l 446 815 l 692 815 q 738 953 714 869 l 304 953 l 304 599 q 291 282 304 407 q 244 58 278 157 q 150 -149 211 -40 l 61 -79 q 153 116 124 29 q 195 310 183 203 q 207 596 207 418 l 207 1049 l 1278 1049 l 1278 953 l 842 953 q 800 815 832 917 l 1174 815 l 1174 317 m 297 -35 q 431 115 365 33 q 538 265 496 196 l 619 210 q 510 53 579 142 q 369 -111 440 -35 l 297 -35 m 1081 404 l 1081 526 l 542 526 l 542 404 l 1081 404 m 1081 607 l 1081 729 l 542 729 l 542 607 l 1081 607 m 1039 256 q 1288 -22 1104 186 l 1214 -90 q 967 193 1104 39 l 1039 256 z "},"厥":{"ha":1367,"x_min":46,"x_max":1304,"o":"m 440 917 q 532 758 496 828 l 457 722 q 368 882 417 807 l 440 917 m 46 -100 q 133 95 106 8 q 170 286 161 182 q 179 576 179 390 l 179 1042 l 1261 1042 l 1261 946 l 272 946 l 272 542 q 263 253 272 361 q 223 55 253 146 q 132 -149 193 -36 l 46 -100 m 315 -82 q 463 56 417 -8 q 522 207 508 119 l 364 207 l 364 556 l 435 551 l 435 296 l 531 296 l 531 619 l 328 619 l 328 707 l 576 707 q 693 917 650 824 l 772 882 q 668 707 735 813 l 814 707 l 814 619 l 607 619 l 607 296 l 704 296 l 704 556 l 776 551 l 776 207 l 601 207 q 540 16 589 96 q 383 -150 492 -64 l 315 -82 m 682 -71 q 850 85 790 7 q 935 257 910 163 q 961 488 960 351 q 963 563 961 544 l 963 597 l 1042 593 l 1042 486 q 1114 169 1051 299 q 1304 -64 1176 39 l 1238 -146 q 1010 214 1068 10 q 916 24 979 111 q 746 -147 853 -62 l 682 -71 m 790 486 q 871 690 839 589 q 925 910 903 792 l 1007 893 q 972 743 989 811 l 1247 743 l 1247 658 l 1165 428 l 1089 461 l 1163 654 l 946 654 q 858 431 911 546 l 790 486 z "},"厭":{"ha":1367,"x_min":75,"x_max":1315,"o":"m 1274 518 l 1093 518 q 1315 -61 1108 181 l 1256 -137 q 1046 297 1100 40 q 874 -133 994 42 l 797 -79 q 936 199 892 61 q 986 518 981 338 l 824 518 l 824 604 l 988 604 l 988 910 l 1075 904 l 1075 604 l 1274 604 l 1274 518 m 75 -75 q 147 110 122 22 q 180 306 171 197 q 189 590 189 415 l 189 1046 l 1268 1046 l 1268 957 l 283 957 l 283 574 q 274 277 283 394 q 240 66 264 160 q 168 -126 215 -28 l 75 -75 m 296 -81 q 353 39 338 -18 q 371 189 369 96 l 371 481 l 785 481 l 785 -15 q 762 -90 785 -67 q 689 -121 739 -114 l 608 -132 l 583 -60 l 656 -51 q 706 8 706 -46 l 706 113 q 497 68 615 88 l 479 147 q 706 181 635 167 l 706 410 l 451 410 l 451 335 q 675 301 594 318 l 660 235 q 451 271 569 256 l 451 188 q 435 19 453 88 q 372 -122 418 -49 l 296 -81 m 385 876 l 781 876 l 781 549 l 385 549 l 385 876 m 697 613 l 697 683 l 467 683 l 467 613 l 697 613 m 697 744 l 697 813 l 467 813 l 467 744 l 697 744 m 1193 875 q 1242 790 1215 839 q 1292 699 1269 740 l 1225 665 q 1181 754 1211 697 q 1131 839 1150 811 l 1193 875 z "},"厲":{"ha":1367,"x_min":82,"x_max":1279,"o":"m 1156 342 l 840 342 l 840 272 l 1210 272 l 1210 21 q 1181 -85 1210 -51 q 1081 -126 1151 -118 l 983 -137 l 957 -60 l 1050 -51 q 1103 -28 1088 -47 q 1119 29 1119 -10 l 1119 194 l 840 194 l 840 93 q 957 103 917 99 l 925 161 l 993 183 q 1042 97 1013 151 q 1089 0 1071 43 l 1021 -24 q 994 32 1014 -7 q 544 3 794 15 l 542 78 l 750 88 l 750 194 l 483 194 l 483 -139 l 393 -139 l 393 194 l 335 194 l 335 272 l 393 272 l 393 308 l 483 304 l 483 272 l 750 272 l 750 342 l 435 342 l 435 685 l 1156 685 l 1156 342 m 82 -75 q 156 103 131 22 q 192 289 181 185 q 203 553 203 393 l 203 1046 l 1279 1046 l 1279 956 l 300 956 l 300 558 q 289 268 300 382 q 251 64 278 154 q 174 -133 225 -26 l 82 -75 m 354 854 l 564 854 l 564 914 l 654 910 l 654 854 l 768 854 l 768 776 l 654 776 l 654 717 l 564 717 l 564 776 l 354 776 l 354 854 m 750 410 l 750 488 l 521 488 l 521 410 l 750 410 m 750 544 l 750 617 l 521 617 l 521 544 l 750 544 m 814 854 l 933 854 l 933 914 l 1024 910 l 1024 854 l 1233 854 l 1233 776 l 1024 776 l 1024 717 l 933 717 l 933 776 l 814 776 l 814 854 m 1071 410 l 1071 488 l 840 488 l 840 410 l 1071 410 m 1071 544 l 1071 617 l 840 617 l 840 544 l 1071 544 z "},"參":{"ha":1367,"x_min":69,"x_max":1304,"o":"m 69 378 q 387 485 263 431 q 624 621 511 540 l 254 585 q 139 571 222 582 l 124 646 q 176 665 156 653 q 340 836 243 722 l 315 835 l 219 828 l 201 911 q 251 918 231 914 q 283 928 271 922 q 435 1021 343 958 q 613 1146 526 1083 l 676 1082 q 417 910 508 960 q 928 942 758 932 q 789 1046 831 1015 l 843 1107 q 1001 992 900 1067 q 1176 858 1103 917 l 1121 792 l 1018 874 q 390 840 742 861 l 431 814 q 281 651 364 732 l 557 685 l 474 760 l 529 808 q 696 661 653 703 l 704 668 q 788 756 740 699 q 869 861 836 813 l 942 817 q 878 735 917 779 q 807 657 840 690 l 1076 686 l 1001 758 l 1057 808 l 1189 689 l 1263 622 l 1204 558 q 1143 619 1179 586 q 788 590 893 600 q 1006 474 885 522 q 1304 378 1126 425 l 1269 288 q 928 413 1068 346 q 688 563 789 479 q 108 286 463 399 l 69 378 m 163 -54 q 710 60 496 -11 q 1103 249 925 132 l 1147 169 q 735 -19 963 56 q 189 -142 507 -94 l 163 -54 m 226 124 q 630 222 461 164 q 933 367 799 279 l 972 297 q 658 147 829 207 q 250 46 486 88 l 226 124 m 274 296 q 552 368 433 325 q 765 474 671 411 l 810 406 q 581 296 703 340 q 299 218 460 251 l 274 296 z "},"叉":{"ha":1367,"x_min":65,"x_max":1301,"o":"m 624 879 q 814 628 719 757 l 732 557 q 539 814 611 725 l 624 879 m 65 -33 q 370 115 242 44 q 594 256 499 185 q 387 538 472 378 q 236 922 301 697 l 147 922 l 147 1029 l 1133 1029 l 1133 922 q 988 537 1074 697 q 772 251 901 376 q 998 108 869 176 q 1301 -32 1126 40 l 1246 -142 q 925 14 1063 -62 q 685 175 788 90 q 442 15 579 92 q 119 -144 306 -61 l 65 -33 m 347 922 q 489 578 410 719 q 682 328 568 436 q 883 578 806 439 q 1022 922 961 717 l 347 922 z "},"反":{"ha":1367,"x_min":79,"x_max":1288,"o":"m 79 -69 q 194 130 157 42 q 245 327 232 218 q 258 625 258 436 l 258 1032 l 1211 1032 l 1211 933 l 356 933 l 356 707 l 1154 707 l 1154 606 q 1031 360 1099 465 q 876 172 964 254 q 1288 -22 1044 47 l 1239 -129 q 797 104 964 -31 q 593 -21 708 38 q 324 -136 478 -79 l 268 -36 q 717 176 553 60 q 442 606 549 343 l 356 606 q 340 294 356 414 q 287 80 325 175 q 172 -129 249 -15 l 79 -69 m 543 606 q 797 239 640 385 q 938 402 879 313 q 1040 606 997 492 l 543 606 z "},"口":{"ha":1367,"x_min":208,"x_max":1157,"o":"m 1157 -108 l 1053 -108 l 1053 11 l 315 11 l 315 -117 l 208 -117 l 208 983 l 1157 983 l 1157 -108 m 1053 124 l 1053 871 l 315 871 l 315 124 l 1053 124 z "},"右":{"ha":1367,"x_min":57,"x_max":1279,"o":"m 1279 821 l 647 821 q 479 536 581 675 l 1156 536 l 1156 -125 l 1051 -125 l 1051 -31 l 457 -31 l 457 -125 l 353 -125 l 353 381 q 113 151 246 264 l 57 263 q 522 821 364 492 l 110 821 l 110 925 l 568 925 q 628 1113 601 1014 l 742 1090 q 690 925 718 1001 l 1279 925 l 1279 821 m 1051 72 l 1051 429 l 457 429 l 457 72 l 1051 72 z "},"合":{"ha":1367,"x_min":51,"x_max":1300,"o":"m 51 626 q 393 849 238 717 q 633 1119 549 981 l 717 1119 q 958 846 810 969 q 1300 629 1107 722 l 1247 526 q 1004 674 1113 596 l 1004 589 l 343 589 l 343 672 q 97 522 226 588 l 51 626 m 246 419 l 1101 419 l 1101 -128 l 997 -128 l 997 -56 l 351 -56 l 351 -126 l 246 -126 l 246 419 m 997 43 l 997 322 l 351 322 l 351 43 l 997 43 m 985 688 q 676 997 796 828 q 365 688 560 832 l 985 688 z "},"后":{"ha":1367,"x_min":60,"x_max":1267,"o":"m 1267 625 l 326 625 q 311 336 325 453 q 259 115 297 219 q 149 -110 221 10 l 60 -46 q 168 165 132 69 q 217 372 204 261 q 231 661 231 483 l 231 1008 q 713 1035 458 1014 q 1165 1089 968 1056 l 1190 983 q 776 937 1018 957 q 326 907 533 917 l 326 722 l 1267 722 l 1267 625 m 428 431 l 1149 431 l 1149 -125 l 1050 -125 l 1050 -36 l 525 -36 l 525 -125 l 428 -125 l 428 431 m 1050 60 l 1050 336 l 525 336 l 525 60 l 1050 60 z "},"周":{"ha":1367,"x_min":81,"x_max":1188,"o":"m 947 386 l 947 36 l 450 36 l 450 386 l 947 386 m 81 -89 q 169 98 140 14 q 208 294 197 182 q 218 607 218 406 l 218 1054 l 1188 1054 l 1188 79 q 1174 -32 1188 7 q 1127 -90 1160 -71 q 1031 -115 1094 -108 l 935 -128 l 903 -31 l 1017 -19 q 1076 10 1063 -14 q 1090 100 1090 35 l 1090 497 l 315 497 q 301 228 314 332 q 260 42 289 125 q 175 -140 232 -40 l 81 -89 m 651 583 l 651 721 l 315 721 l 315 583 l 651 583 m 651 804 l 651 958 l 315 958 l 315 804 l 651 804 m 858 128 l 858 297 l 539 297 l 539 128 l 858 128 m 1090 583 l 1090 721 l 743 721 l 743 583 l 1090 583 m 1090 804 l 1090 958 l 743 958 l 743 804 l 1090 804 z "},"命":{"ha":1367,"x_min":61,"x_max":1304,"o":"m 1175 189 q 1160 90 1175 125 q 1112 39 1144 56 q 1018 13 1079 22 l 953 3 l 922 103 l 985 111 q 1057 139 1038 118 q 1076 213 1076 160 l 1076 429 l 808 429 l 808 -129 l 710 -129 l 710 526 l 1175 526 l 1175 189 m 61 717 q 391 908 243 803 q 635 1128 539 1014 l 726 1128 q 973 907 824 1014 q 1304 715 1122 800 l 1258 615 q 1015 753 1139 674 l 1015 654 l 344 654 l 344 751 q 106 615 210 667 l 61 717 m 192 519 l 589 519 l 589 -17 l 192 -17 l 192 519 m 493 83 l 493 424 l 288 424 l 288 83 l 493 83 m 1010 757 q 683 1024 813 886 q 353 757 557 892 l 1010 757 z "},"和":{"ha":1367,"x_min":72,"x_max":1225,"o":"m 657 633 l 433 633 l 433 496 l 465 528 q 568 428 504 493 q 668 321 632 363 l 599 242 q 525 333 572 279 q 433 432 478 386 l 433 -135 l 335 -135 l 335 464 q 142 133 254 271 l 72 207 q 211 405 146 292 q 319 633 276 518 l 96 633 l 96 736 l 335 736 l 335 922 q 133 892 213 900 l 114 988 q 376 1032 235 1003 q 618 1093 518 1061 l 640 996 q 433 943 536 964 l 433 736 l 657 736 l 657 633 m 725 989 l 1225 989 l 1225 -92 l 1126 -92 l 1126 25 l 822 25 l 822 -97 l 725 -97 l 725 989 m 1126 122 l 1126 892 l 822 892 l 822 122 l 1126 122 z "},"咽":{"ha":1367,"x_min":126,"x_max":1238,"o":"m 1097 601 l 924 601 q 915 515 921 554 q 1018 361 958 456 q 1117 199 1078 267 l 1046 143 q 890 403 992 244 q 824 267 867 332 q 711 128 782 203 l 647 196 q 788 382 742 285 q 839 601 835 479 l 679 601 l 679 699 l 842 699 l 844 888 l 929 883 q 926 699 929 778 l 1097 699 l 1097 601 m 126 964 l 442 964 l 442 76 l 126 76 l 126 964 m 356 171 l 356 871 l 215 871 l 215 171 l 356 171 m 543 1042 l 1238 1042 l 1238 -137 l 1146 -137 l 1146 -54 l 633 -54 l 633 -137 l 543 -137 l 543 1042 m 1146 40 l 1146 946 l 633 946 l 633 40 l 1146 40 z "},"哀":{"ha":1367,"x_min":65,"x_max":1278,"o":"m 1256 882 l 97 882 l 97 974 l 639 974 q 592 1111 615 1050 l 694 1128 q 740 974 725 1033 l 1256 974 l 1256 882 m 65 129 q 569 408 385 236 l 238 408 l 238 767 l 1108 767 l 1108 408 l 701 408 q 475 213 607 301 l 475 -10 l 765 79 l 768 -21 l 622 -62 q 440 -115 482 -106 q 371 -143 403 -126 l 335 -61 q 370 -37 361 -47 q 379 -17 379 -28 l 379 156 q 104 31 253 85 l 65 129 m 1013 497 l 1013 678 l 332 678 l 332 497 l 1013 497 m 742 350 q 854 221 800 271 q 1144 386 1010 299 l 1200 301 q 931 156 1124 256 q 1080 68 996 107 q 1278 -6 1164 29 l 1238 -108 q 901 59 1031 -35 q 664 304 772 153 l 742 350 z "},"商":{"ha":1367,"x_min":92,"x_max":1275,"o":"m 639 978 q 582 1100 599 1071 l 689 1125 q 756 978 724 1057 l 1275 978 l 1275 883 l 968 883 q 906 718 949 822 l 1192 718 l 1192 64 q 1178 -36 1192 0 q 1131 -90 1164 -72 q 1035 -115 1097 -108 l 940 -126 l 913 -40 l 1021 -29 q 1081 1 1065 -24 q 1097 82 1097 26 l 1097 429 l 875 429 q 787 455 811 429 q 763 542 763 481 l 763 629 l 619 629 q 533 473 597 532 q 347 378 469 414 l 313 456 q 458 522 401 478 q 531 629 514 567 l 274 629 l 274 -124 l 179 -124 l 179 718 l 454 718 q 400 883 426 807 l 92 883 l 92 978 l 639 978 m 442 363 l 925 363 l 925 15 l 442 15 l 442 363 m 501 883 q 557 718 535 793 l 797 718 q 863 883 832 799 l 501 883 m 836 103 l 836 274 l 531 274 l 531 103 l 836 103 m 847 553 q 857 517 847 528 q 890 507 867 507 l 1097 507 l 1097 629 l 847 629 l 847 553 z "},"啞":{"ha":1367,"x_min":131,"x_max":1297,"o":"m 1261 944 l 1047 944 l 1047 710 l 1224 710 l 1224 265 l 1047 265 l 1047 15 l 1297 15 l 1297 -82 l 474 -82 l 474 15 l 725 15 l 725 265 l 551 265 l 551 710 l 725 710 l 725 944 l 514 944 l 514 1042 l 1261 1042 l 1261 944 m 131 997 l 447 997 l 447 67 l 131 67 l 131 997 m 360 172 l 360 894 l 221 894 l 221 172 l 360 172 m 815 361 l 815 15 l 956 15 l 956 361 l 1131 361 l 1131 615 l 956 615 l 956 944 l 815 944 l 815 615 l 644 615 l 644 361 l 815 361 z "},"喉":{"ha":1367,"x_min":125,"x_max":1304,"o":"m 1274 226 l 1014 226 q 920 26 993 114 q 696 -144 847 -62 l 649 -64 q 844 74 783 7 q 921 226 904 142 l 667 226 l 667 317 l 929 317 l 933 472 l 801 472 q 733 350 771 410 l 661 390 q 786 675 742 518 l 868 654 q 839 563 858 621 l 1231 563 l 1231 472 l 1026 472 l 1022 317 l 1274 317 l 1274 226 m 125 985 l 419 985 l 419 551 q 533 815 479 665 q 621 1108 588 964 l 708 1090 q 619 775 665 903 l 619 -132 l 538 -132 l 538 576 q 467 446 497 494 l 419 508 l 419 33 l 125 33 l 125 985 m 338 135 l 338 885 l 211 885 l 211 135 l 338 135 m 683 790 l 1064 790 l 1075 946 l 764 946 l 764 1036 l 1171 1036 l 1154 790 l 1281 790 l 1281 700 l 683 700 l 683 790 m 1089 169 q 1304 -61 1196 64 l 1239 -126 q 1024 108 1126 10 l 1089 169 z "},"喘":{"ha":1367,"x_min":133,"x_max":1272,"o":"m 924 838 l 1125 838 l 1125 1040 l 1210 1036 l 1210 750 l 558 750 l 558 1042 l 642 1038 l 642 838 l 840 838 l 840 1117 l 924 1113 l 924 838 m 133 976 l 438 976 l 438 42 l 133 42 l 133 976 m 350 136 l 350 883 l 222 883 l 222 136 l 350 136 m 493 632 l 1272 632 l 1272 547 l 919 547 q 878 414 903 485 l 1231 414 l 1231 25 q 1207 -83 1231 -50 q 1125 -122 1183 -117 l 1040 -133 l 1014 -49 l 1094 -40 q 1133 -17 1121 -37 q 1146 46 1146 4 l 1144 328 l 1025 328 l 1025 -28 l 944 -28 l 944 328 l 826 328 l 826 -46 l 746 -46 l 746 328 l 629 328 l 629 -126 l 542 -126 l 542 414 l 781 414 q 819 547 804 490 l 493 547 l 493 632 z "},"囊":{"ha":1367,"x_min":67,"x_max":1292,"o":"m 1282 153 l 678 153 q 499 56 608 104 l 499 -46 l 742 17 l 744 -58 q 467 -126 582 -97 q 390 -146 454 -129 l 367 -82 q 399 -46 399 -61 l 399 15 q 94 -78 258 -37 l 67 4 q 524 153 354 65 l 86 153 l 86 218 l 425 218 l 425 265 l 164 265 l 164 326 l 425 326 l 425 374 l 133 374 l 133 433 l 425 433 l 425 482 l 269 482 l 269 626 l 640 626 l 640 482 l 522 482 l 522 433 l 846 433 l 846 482 l 729 482 l 729 626 l 1097 626 l 1097 482 l 943 482 l 943 433 l 1235 433 l 1235 374 l 943 374 l 943 326 l 1203 326 l 1203 265 l 943 265 l 943 218 l 1282 218 l 1282 153 m 118 726 l 632 726 l 632 772 l 246 772 l 246 938 l 632 938 l 632 986 l 126 986 l 126 1051 l 632 1051 l 632 1113 l 735 1107 l 735 1051 l 1240 1051 l 1240 986 l 735 986 l 735 938 l 1121 938 l 1121 772 l 735 772 l 735 726 l 1250 726 l 1250 561 l 1161 561 l 1161 667 l 208 667 l 208 551 l 118 551 l 118 726 m 632 826 l 632 882 l 346 882 l 346 826 l 632 826 m 560 532 l 560 576 l 349 576 l 349 532 l 560 532 m 846 218 l 846 265 l 522 265 l 522 218 l 846 218 m 846 326 l 846 374 l 522 374 l 522 326 l 846 326 m 775 140 q 929 42 846 79 q 1125 136 1053 99 l 1164 74 q 1022 6 1088 35 q 1292 -50 1133 -29 l 1272 -135 q 947 -49 1081 -103 q 715 93 814 6 l 775 140 m 1021 826 l 1021 882 l 735 882 l 735 826 l 1021 826 m 1019 532 l 1019 576 l 811 576 l 811 532 l 1019 532 z "},"四":{"ha":1367,"x_min":161,"x_max":1203,"o":"m 269 307 q 403 428 358 372 q 464 549 447 485 q 481 714 481 613 l 481 921 l 261 921 l 261 71 l 1104 71 l 1104 314 l 950 314 q 814 351 856 314 q 772 486 772 389 l 772 921 l 579 921 l 579 711 q 560 515 579 594 q 492 370 540 436 q 353 231 444 304 l 269 307 m 161 1018 l 1203 1018 l 1203 -131 l 1104 -131 l 1104 -29 l 261 -29 l 261 -131 l 161 -131 l 161 1018 m 872 518 q 881 453 872 475 q 911 422 889 431 q 978 413 933 413 l 1104 413 l 1104 921 l 872 921 l 872 518 z "},"囟":{"ha":1367,"x_min":68,"x_max":1185,"o":"m 438 749 q 681 510 497 693 q 903 783 799 638 l 978 724 q 747 443 874 583 l 988 197 l 921 122 q 682 374 825 229 q 383 104 536 224 l 321 183 q 615 443 478 301 q 375 681 436 622 l 438 749 m 68 882 q 276 994 171 932 q 457 1118 381 1057 l 525 1051 q 339 924 463 1000 l 1185 924 l 1185 -137 l 1088 -137 l 1088 -58 l 269 -58 l 269 -137 l 174 -137 l 174 832 l 107 797 l 68 882 m 1088 35 l 1088 831 l 269 831 l 269 35 l 1088 35 z "},"圓":{"ha":1367,"x_min":150,"x_max":1215,"o":"m 989 214 l 376 214 l 376 642 l 989 642 l 989 214 m 150 1063 l 1215 1063 l 1215 -136 l 1121 -136 l 1121 -81 l 244 -81 l 244 -136 l 150 -136 l 150 1063 m 1121 6 l 1121 976 l 244 976 l 244 6 l 1121 6 m 304 96 q 450 149 369 117 q 581 207 531 182 l 608 138 q 478 78 561 113 q 329 22 394 44 l 304 96 m 415 901 l 951 901 l 951 697 l 415 697 l 415 901 m 906 275 l 906 340 l 460 340 l 460 275 l 906 275 m 906 396 l 906 461 l 460 461 l 460 396 l 906 396 m 906 515 l 906 581 l 460 581 l 460 515 l 906 515 m 863 758 l 863 838 l 504 838 l 504 758 l 863 758 m 779 204 q 926 153 843 183 q 1061 100 1008 122 l 1035 29 q 886 89 968 57 q 756 136 804 121 l 779 204 z "},"土":{"ha":1367,"x_min":93,"x_max":1272,"o":"m 1272 -71 l 93 -71 l 93 33 l 629 33 l 629 596 l 172 596 l 172 701 l 629 701 l 629 1110 l 739 1104 l 739 701 l 1194 701 l 1194 596 l 739 596 l 739 33 l 1272 33 l 1272 -71 z "},"地":{"ha":1367,"x_min":61,"x_max":1283,"o":"m 464 631 l 335 631 l 335 181 l 481 239 l 496 142 q 276 54 417 111 q 89 -25 136 -3 l 61 71 l 239 142 l 239 631 l 81 631 l 81 731 l 239 731 l 239 1079 l 335 1074 l 335 731 l 464 731 l 464 631 m 568 640 l 568 981 l 665 976 l 665 665 l 822 707 l 822 1107 l 915 1103 l 915 732 l 1200 807 l 1168 290 l 1082 290 l 1100 678 l 915 631 l 915 128 l 822 128 l 822 606 l 665 565 l 665 114 q 672 39 665 64 q 700 3 679 14 q 764 -12 721 -8 q 918 -21 842 -21 q 1061 -12 990 -21 q 1135 3 1111 -7 q 1169 35 1160 13 q 1181 100 1179 57 l 1182 138 q 1185 221 1185 193 l 1283 188 q 1282 131 1283 157 q 1279 83 1281 104 q 1276 49 1276 61 q 1256 -41 1274 -8 q 1202 -90 1239 -74 q 1100 -111 1165 -106 q 919 -119 1011 -119 q 739 -111 829 -119 q 638 -87 674 -106 q 585 -31 601 -69 q 568 78 568 8 l 568 540 l 483 518 l 468 614 l 568 640 z "},"坎":{"ha":1367,"x_min":64,"x_max":1294,"o":"m 64 153 q 242 201 138 171 l 242 675 l 89 675 l 89 776 l 242 776 l 242 1110 l 342 1104 l 342 776 l 493 776 l 493 675 l 342 675 l 342 231 q 506 282 439 260 l 514 181 q 82 51 310 110 l 64 153 m 396 -47 q 627 139 540 44 q 755 344 714 233 q 800 597 796 456 q 801 739 801 649 l 907 735 q 906 689 907 710 l 904 596 q 900 522 904 558 q 1022 207 924 346 q 1294 -36 1119 68 l 1226 -132 q 858 321 950 50 q 717 82 813 194 q 467 -137 622 -31 l 396 -47 m 483 581 q 706 1125 621 800 l 807 1104 q 750 918 776 993 l 1243 918 l 1243 817 l 1121 542 l 1029 578 l 1140 814 l 714 814 q 572 522 651 654 l 483 581 z "},"坐":{"ha":1367,"x_min":86,"x_max":1279,"o":"m 1264 -85 l 100 -85 l 100 14 l 631 14 l 631 243 l 207 243 l 207 343 l 631 343 l 631 1096 l 733 1092 l 733 343 l 1158 343 l 1158 243 l 733 243 l 733 14 l 1264 14 l 1264 -85 m 86 476 q 246 730 186 600 q 333 1013 306 860 l 435 994 q 385 797 417 890 q 604 515 511 647 l 526 449 q 346 700 456 558 q 164 407 281 553 l 86 476 m 768 517 q 990 1011 933 739 l 1089 992 q 1033 797 1063 878 q 1160 653 1088 739 q 1279 507 1232 567 l 1200 436 q 993 700 1090 583 q 842 449 939 578 l 768 517 z "},"坤":{"ha":1367,"x_min":65,"x_max":1233,"o":"m 335 758 l 479 758 l 479 650 l 335 650 l 335 236 l 486 292 l 492 181 q 88 39 308 108 l 65 147 q 239 203 132 167 l 239 650 l 96 650 l 96 758 l 239 758 l 239 1101 l 335 1096 l 335 758 m 550 921 l 846 921 l 846 1115 l 939 1111 l 939 921 l 1233 921 l 1233 176 l 939 176 l 939 -139 l 846 -139 l 846 176 l 550 176 l 550 921 m 846 275 l 846 500 l 642 500 l 642 275 l 846 275 m 846 596 l 846 824 l 642 824 l 642 596 l 846 596 m 1140 275 l 1140 500 l 939 500 l 939 275 l 1140 275 m 1140 596 l 1140 824 l 939 824 l 939 596 l 1140 596 z "},"型":{"ha":1367,"x_min":93,"x_max":1275,"o":"m 771 942 l 633 942 l 633 731 l 794 731 l 794 636 l 633 636 l 633 375 l 538 375 l 538 636 l 360 636 q 313 462 350 533 q 193 311 276 390 l 113 374 q 222 501 189 444 q 264 636 254 557 l 97 636 l 97 731 l 269 731 l 269 942 l 131 942 l 131 1038 l 771 1038 l 771 942 m 93 3 l 640 3 l 640 161 l 229 161 l 229 256 l 640 256 l 640 357 l 742 353 l 742 256 l 1142 256 l 1142 161 l 742 161 l 742 3 l 1275 3 l 1275 -94 l 93 -94 l 93 3 m 538 731 l 538 942 l 365 942 l 365 731 l 538 731 m 869 1015 l 963 1010 l 963 540 l 869 540 l 869 1015 m 1019 469 q 1085 494 1068 472 q 1103 569 1103 515 l 1103 1085 l 1200 1081 l 1200 546 q 1188 451 1200 485 q 1143 399 1175 417 q 1051 376 1111 382 l 956 367 l 925 464 l 1019 469 z "},"垣":{"ha":1367,"x_min":67,"x_max":1289,"o":"m 472 663 l 338 663 l 338 214 l 483 263 l 499 158 q 294 93 411 131 q 86 25 178 56 l 67 128 q 238 182 119 143 l 238 663 l 93 663 l 93 764 l 238 764 l 238 1107 l 338 1101 l 338 764 l 472 764 l 472 663 m 458 19 l 1289 19 l 1289 -79 l 458 -79 l 458 19 m 510 1036 l 1256 1036 l 1256 935 l 510 935 l 510 1036 m 572 790 l 1196 790 l 1196 169 l 572 169 l 572 790 m 1096 264 l 1096 433 l 672 433 l 672 264 l 1096 264 m 1096 525 l 1096 693 l 672 693 l 672 525 l 1096 525 z "},"堂":{"ha":1367,"x_min":114,"x_max":1254,"o":"m 1228 597 l 1129 597 l 1129 779 l 239 779 l 239 597 l 140 597 l 140 874 l 406 874 q 261 1031 344 944 l 332 1096 q 494 922 411 1017 l 440 874 l 633 874 l 633 1115 l 735 1113 l 735 874 l 926 874 l 872 918 q 957 1006 910 954 q 1032 1092 1004 1057 l 1107 1035 q 964 874 1046 961 l 1228 874 l 1228 597 m 114 -3 l 635 -3 l 635 140 l 225 140 l 225 226 l 635 226 l 635 350 l 303 350 l 303 660 l 1065 660 l 1065 350 l 735 350 l 735 226 l 1143 226 l 1143 140 l 735 140 l 735 -3 l 1254 -3 l 1254 -96 l 114 -96 l 114 -3 m 967 435 l 967 576 l 400 576 l 400 435 l 967 435 z "},"墟":{"ha":1367,"x_min":74,"x_max":1269,"o":"m 1269 -79 l 558 -79 l 558 3 l 790 3 l 790 111 l 625 111 l 625 367 l 694 363 l 694 190 l 790 190 l 790 386 l 869 382 l 869 3 l 965 3 l 965 385 l 1044 381 l 1044 192 l 1136 192 l 1136 367 l 1210 363 l 1210 113 l 1044 113 l 1044 3 l 1269 3 l 1269 -79 m 74 169 q 232 219 157 194 l 232 674 l 90 674 l 90 767 l 232 767 l 232 1107 l 321 1103 l 321 767 l 447 767 l 447 674 l 321 674 l 321 249 l 363 264 l 435 290 l 440 193 q 265 134 368 169 q 90 72 163 99 l 74 169 m 326 -64 q 438 112 401 31 q 485 283 474 193 q 497 522 497 374 l 497 854 l 779 854 l 779 1118 l 868 1114 l 868 1019 l 1217 1019 l 1217 943 l 868 943 l 868 854 l 1256 854 l 1256 774 l 1214 639 l 1132 651 l 1165 775 l 582 775 l 582 519 q 568 268 579 363 q 521 83 557 174 q 410 -118 485 -7 l 326 -64 m 781 651 l 781 747 l 868 742 l 868 661 l 1081 685 l 1085 615 l 868 588 l 868 579 q 881 520 868 535 q 935 506 894 506 l 1182 506 l 1174 438 l 900 438 q 809 464 836 438 q 781 556 782 490 l 781 576 l 629 557 l 625 633 l 781 651 z "},"士":{"ha":1367,"x_min":82,"x_max":1283,"o":"m 1199 -60 l 165 -60 l 165 44 l 626 44 l 626 608 l 82 608 l 82 715 l 626 715 l 626 1108 l 739 1104 l 739 715 l 1283 715 l 1283 608 l 739 608 l 739 44 l 1199 44 l 1199 -60 z "},"外":{"ha":1367,"x_min":61,"x_max":1300,"o":"m 935 661 l 975 713 q 1144 579 1047 657 q 1300 450 1242 501 l 1236 367 q 935 618 1157 440 l 935 -135 l 833 -135 l 833 1107 l 935 1103 l 935 661 m 61 440 q 229 756 154 581 q 350 1110 304 932 l 454 1085 q 397 896 424 969 l 717 896 l 717 792 q 617 438 683 594 q 444 144 551 282 q 172 -136 336 7 l 97 -49 q 302 144 217 50 q 449 338 388 239 l 228 508 q 135 360 189 440 l 61 440 m 503 438 q 614 792 574 590 l 360 792 q 278 606 324 700 l 503 438 z "},"大":{"ha":1367,"x_min":85,"x_max":1288,"o":"m 1254 667 l 733 667 l 733 651 q 908 272 774 438 q 1288 -35 1042 106 l 1221 -135 q 689 451 814 113 q 492 135 628 281 q 151 -143 356 -10 l 85 -39 q 467 280 329 107 q 624 667 606 453 l 111 667 l 111 774 l 626 774 l 626 1111 l 736 1107 l 736 774 l 1254 774 l 1254 667 z "},"天":{"ha":1367,"x_min":82,"x_max":1285,"o":"m 1250 522 l 742 522 q 932 198 800 333 q 1285 -35 1064 63 l 1231 -136 q 881 102 1011 -25 q 688 397 750 229 q 140 -136 572 81 l 82 -42 q 452 213 321 72 q 613 522 583 353 l 110 522 l 110 624 l 621 624 l 622 726 q 625 924 625 857 l 176 924 l 176 1024 l 1182 1024 l 1182 924 l 731 924 q 728 726 731 857 l 726 624 l 1250 624 l 1250 522 z "},"太":{"ha":1367,"x_min":65,"x_max":1300,"o":"m 1253 701 l 738 701 q 841 438 763 575 q 1039 178 919 301 q 1300 -31 1158 56 l 1233 -132 q 906 162 1054 -19 q 683 532 757 343 q 476 171 618 346 q 132 -137 333 -4 l 65 -40 q 438 301 293 104 q 615 701 583 497 l 111 701 l 111 810 l 624 810 l 624 1110 l 733 1104 l 733 810 l 1253 810 l 1253 701 m 593 219 q 699 101 640 168 q 796 -14 758 33 l 721 -82 q 560 106 674 -24 q 521 149 554 111 l 593 219 z "},"失":{"ha":1367,"x_min":99,"x_max":1279,"o":"m 1254 411 l 756 411 q 940 148 815 256 q 1279 -40 1065 40 l 1221 -140 q 893 51 1022 -58 q 694 310 764 160 q 503 62 636 178 q 160 -146 371 -54 l 99 -47 q 451 161 324 49 q 617 411 578 274 l 111 411 l 111 514 l 635 514 l 635 526 q 640 769 639 613 l 346 769 q 247 571 300 661 l 153 622 q 257 826 210 710 q 336 1060 304 942 l 438 1036 q 386 872 411 940 l 642 872 l 644 1111 l 750 1107 l 747 872 l 1190 872 l 1190 769 l 746 769 l 742 533 l 742 514 l 1254 514 l 1254 411 z "},"夾":{"ha":1367,"x_min":85,"x_max":1290,"o":"m 1231 817 l 733 817 l 733 607 q 731 518 733 574 q 891 176 756 310 q 1290 -33 1026 43 l 1250 -136 q 890 39 1028 -67 q 688 303 753 144 q 503 58 633 161 q 132 -143 372 -46 l 85 -42 q 413 123 296 36 q 580 325 531 210 q 629 608 629 440 l 629 817 l 135 817 l 135 921 l 629 921 l 629 1110 l 733 1104 l 733 921 l 1231 921 l 1231 817 m 125 338 q 263 541 200 425 q 357 763 326 657 l 456 738 q 406 601 436 669 q 515 469 457 542 l 567 408 l 493 339 q 360 506 454 394 q 206 274 289 374 l 125 338 m 785 396 q 898 572 849 478 q 976 764 947 667 l 1072 740 q 1021 604 1054 679 q 1236 371 1136 483 l 1164 297 q 974 508 1101 372 q 864 333 929 424 l 785 396 z "},"奇":{"ha":1367,"x_min":78,"x_max":1286,"o":"m 1286 503 l 1113 503 l 1113 65 q 1097 -42 1113 -4 q 1047 -97 1082 -79 q 946 -119 1013 -114 l 824 -129 l 793 -33 l 917 -25 q 992 1 974 -21 q 1010 81 1010 22 l 1010 503 l 78 503 l 78 599 l 1286 599 l 1286 503 m 146 978 l 628 979 q 632 1107 632 1050 l 738 1101 q 736 1039 738 1074 q 732 978 735 1004 l 1218 978 l 1218 886 l 717 886 l 707 861 l 807 825 q 1160 693 1063 733 l 1114 610 q 906 694 1051 639 q 719 764 760 749 l 660 786 q 496 683 606 725 q 200 608 386 642 l 169 694 q 475 776 378 732 q 606 886 572 819 l 146 886 l 146 978 m 232 385 l 799 385 l 799 35 l 232 35 l 232 385 m 697 128 l 697 293 l 333 293 l 333 128 l 697 128 z "},"委":{"ha":1367,"x_min":83,"x_max":1279,"o":"m 633 483 l 633 672 q 424 533 543 594 q 122 410 304 472 l 83 499 q 360 603 246 549 q 564 728 474 658 l 128 728 l 128 814 l 633 814 l 633 950 q 215 931 394 935 l 208 1021 q 668 1042 393 1025 q 1124 1076 943 1058 l 1139 983 q 729 954 1021 972 l 729 814 l 1240 814 l 1240 728 l 792 728 q 1279 514 1111 593 l 1242 429 q 729 675 1029 538 l 729 483 l 633 483 m 108 374 l 465 374 q 539 490 497 419 l 633 463 q 581 374 610 418 l 951 374 q 978 450 964 404 l 1075 431 l 1054 374 l 1254 374 l 1254 285 l 1014 285 q 847 82 949 157 q 1225 -54 1076 8 l 1174 -142 q 751 22 979 -54 q 500 -67 649 -31 q 138 -126 351 -103 l 111 -25 q 618 64 428 -11 q 297 150 450 115 q 404 285 339 197 l 108 285 l 108 374 m 451 189 q 731 118 539 172 q 906 285 842 185 l 522 285 q 451 189 489 236 z "},"威":{"ha":1367,"x_min":58,"x_max":1281,"o":"m 763 619 l 557 619 l 546 576 l 518 469 l 658 469 l 664 532 l 743 524 l 739 469 l 801 469 l 801 386 l 728 386 q 636 138 703 233 q 739 64 686 103 l 685 -18 q 576 67 636 22 q 304 -103 489 -21 l 258 -25 q 506 117 422 43 q 342 224 440 163 q 400 386 376 308 l 308 386 l 308 469 l 424 469 q 461 619 444 543 l 321 619 l 321 703 l 763 703 l 763 619 m 58 -89 q 128 93 104 10 q 162 280 151 176 q 172 543 172 383 l 172 925 l 799 925 q 786 1118 788 1081 l 885 1114 q 897 925 886 1063 l 1081 925 q 1022 1074 1054 1004 l 1108 1090 q 1176 925 1138 1029 l 1264 925 l 1264 831 l 904 831 l 904 824 q 971 325 928 511 q 1040 506 1011 408 q 1093 726 1069 603 l 1190 701 q 1115 423 1158 549 q 1010 188 1071 297 q 1064 61 1033 114 q 1138 -7 1103 -7 q 1165 17 1153 -7 q 1185 106 1176 42 l 1193 175 l 1199 222 l 1281 182 q 1268 99 1276 142 q 1261 58 1268 93 q 1217 -79 1247 -39 q 1139 -119 1186 -119 q 1060 -90 1096 -119 q 979 21 1025 -60 q 946 88 961 53 q 767 -118 872 -17 l 692 -46 q 904 203 825 79 q 849 465 871 314 q 807 831 826 617 l 269 831 l 269 542 q 259 261 269 372 q 224 60 249 150 q 154 -139 200 -31 l 58 -89 m 451 263 q 568 186 522 218 q 646 386 625 264 l 493 386 q 451 263 467 300 z "},"婦":{"ha":1367,"x_min":53,"x_max":1267,"o":"m 1267 813 l 1188 813 l 1188 647 l 563 647 l 563 724 l 1104 724 l 1104 813 l 550 813 l 550 890 l 1104 890 l 1104 978 l 565 978 l 565 1056 l 1188 1056 l 1188 890 l 1267 890 l 1267 813 m 53 -71 q 274 213 203 74 q 103 363 185 299 q 174 732 138 486 l 63 732 l 63 824 l 186 824 q 215 1110 210 1006 l 303 1101 q 272 824 294 988 l 386 824 l 388 904 l 471 900 l 471 824 l 515 824 l 515 732 l 468 732 q 442 451 463 572 q 379 229 421 331 q 522 65 449 157 l 467 -7 q 339 144 414 65 q 115 -136 267 11 l 53 -71 m 196 396 q 311 299 258 347 q 359 490 343 386 q 382 732 375 594 l 260 732 q 196 396 228 525 m 524 558 l 1260 558 l 1260 371 l 1176 371 l 1176 478 l 926 478 l 926 342 l 1178 342 l 1178 110 q 1156 12 1178 42 q 1082 -25 1135 -18 l 999 -33 l 974 47 l 1047 53 q 1083 74 1072 54 q 1093 132 1093 94 l 1093 261 l 926 261 l 926 -136 l 842 -136 l 842 261 l 676 261 l 676 -29 l 592 -29 l 592 342 l 842 342 l 842 478 l 607 478 l 607 371 l 524 371 l 524 558 z "},"子":{"ha":1367,"x_min":97,"x_max":1271,"o":"m 1190 924 l 746 624 l 746 536 l 1271 536 l 1271 432 l 746 432 l 746 83 q 731 -25 746 13 q 680 -81 717 -62 q 572 -106 643 -99 l 433 -117 l 397 -14 l 539 -4 q 603 9 582 -1 q 631 44 624 19 q 639 119 639 69 l 639 432 l 97 432 l 97 536 l 639 536 l 639 672 l 1011 925 l 197 925 l 197 1028 l 1190 1028 l 1190 924 z "},"孔":{"ha":1367,"x_min":76,"x_max":1276,"o":"m 361 517 l 361 690 l 558 928 l 124 928 l 124 1036 l 689 1036 l 689 931 l 463 663 l 463 542 l 556 567 q 694 604 675 597 l 701 494 q 463 436 663 486 l 463 78 q 447 -29 463 10 q 395 -87 432 -68 q 293 -114 358 -107 l 182 -125 l 147 -21 l 268 -11 q 342 19 324 -6 q 361 107 361 44 l 361 410 q 92 338 215 374 l 76 444 l 361 517 m 794 1096 l 899 1092 l 899 104 q 914 18 899 42 q 974 -8 929 -6 q 1035 -12 1003 -12 q 1089 -8 1063 -12 q 1140 4 1124 -6 q 1165 36 1157 14 q 1175 103 1172 58 q 1182 260 1182 189 l 1276 226 l 1272 119 l 1269 67 q 1251 -37 1267 -1 q 1201 -90 1235 -74 q 1103 -111 1167 -106 q 1028 -115 1065 -115 q 951 -111 992 -115 q 859 -89 893 -107 q 810 -30 825 -71 q 794 85 794 11 l 794 1096 z "},"孫":{"ha":1367,"x_min":74,"x_max":1329,"o":"m 74 450 q 278 508 163 474 l 278 696 l 406 925 l 114 925 l 114 1024 l 515 1024 l 515 921 l 374 678 l 374 539 q 535 593 501 578 l 540 494 q 374 436 515 483 l 374 35 q 344 -83 374 -49 q 238 -125 314 -118 l 133 -135 l 107 -40 l 211 -33 q 263 -10 247 -32 q 278 60 278 11 l 278 407 q 92 350 143 364 l 74 450 m 467 -11 q 586 107 538 51 q 683 242 635 163 l 764 197 q 658 48 710 111 q 535 -79 606 -15 l 467 -11 m 560 390 q 597 400 582 394 q 632 418 613 406 q 878 600 740 490 q 761 587 811 592 q 678 579 711 582 l 594 571 l 581 653 q 644 675 632 668 q 794 788 701 710 q 969 949 886 867 q 599 846 796 889 l 574 932 q 1108 1097 854 983 l 1150 1018 q 981 953 1049 976 l 1046 897 q 899 766 979 831 q 760 664 819 701 l 985 688 q 1140 824 1075 764 l 1208 764 q 732 389 978 560 l 1132 425 q 1056 540 1083 500 l 1128 586 q 1310 300 1236 429 l 1236 249 l 1181 344 l 974 328 l 974 22 q 943 -87 974 -56 q 832 -125 913 -118 l 729 -135 l 697 -37 l 806 -31 q 860 -7 846 -28 q 875 60 875 14 l 875 321 q 574 297 675 307 l 560 390 m 1111 256 q 1329 -1 1244 104 l 1253 -69 q 1039 194 1160 61 l 1111 256 z "},"安":{"ha":1367,"x_min":94,"x_max":1274,"o":"m 703 1118 q 768 951 743 1025 l 1225 951 l 1225 688 l 1124 688 l 1124 850 l 257 850 l 257 688 l 154 688 l 154 951 l 653 951 q 594 1097 618 1042 l 703 1118 m 94 576 l 451 576 q 546 790 506 683 l 650 760 q 571 576 607 651 l 947 576 q 969 674 957 614 l 1071 657 l 1050 576 l 1274 576 l 1274 476 l 1021 476 q 943 299 986 378 q 839 158 900 221 q 1242 -39 1036 72 l 1185 -136 q 754 85 985 -21 q 504 -42 653 10 q 144 -126 356 -94 l 117 -24 q 647 133 458 17 q 279 279 463 214 q 400 476 340 368 l 94 476 l 94 576 m 421 321 q 739 201 583 265 q 915 476 854 307 l 519 476 q 421 321 472 389 z "},"完":{"ha":1367,"x_min":93,"x_max":1254,"o":"m 750 961 l 1226 961 l 1226 686 l 1128 686 l 1128 863 l 235 863 l 235 683 l 136 683 l 136 961 l 632 961 l 601 1022 l 563 1103 l 674 1128 l 750 961 m 93 -53 q 298 40 226 -8 q 400 150 369 88 q 436 307 431 213 l 438 324 l 115 324 l 115 419 l 1250 419 l 1250 324 l 875 324 l 875 85 q 892 8 875 29 q 953 -15 908 -12 q 1011 -18 972 -18 q 1068 -15 1050 -18 q 1136 8 1118 -11 q 1156 86 1154 28 q 1157 190 1157 125 l 1254 161 l 1250 47 q 1228 -45 1246 -12 q 1176 -92 1211 -78 q 1076 -112 1140 -107 q 1001 -115 1051 -115 q 926 -112 951 -115 q 808 -67 843 -106 q 774 65 774 -28 l 774 324 l 546 324 l 544 300 q 498 105 538 186 q 373 -38 458 24 q 143 -150 288 -100 l 93 -53 m 293 690 l 1068 690 l 1068 594 l 293 594 l 293 690 z "},"宗":{"ha":1367,"x_min":76,"x_max":1283,"o":"m 768 957 l 1221 957 l 1221 678 l 1119 678 l 1119 854 l 240 854 l 240 679 l 139 679 l 139 957 l 647 957 q 579 1100 596 1069 l 689 1126 l 768 957 m 76 -29 q 240 124 158 39 q 381 285 321 208 l 461 213 q 319 53 404 140 q 149 -111 235 -35 l 76 -29 m 106 442 l 1256 442 l 1256 343 l 743 343 l 743 -136 l 636 -136 l 636 343 l 106 343 l 106 442 m 303 692 l 1058 692 l 1058 594 l 303 594 l 303 692 m 950 281 q 1119 133 1010 231 q 1261 7 1228 36 q 1274 -5 1268 0 q 1283 -14 1279 -10 l 1213 -99 q 1052 55 1154 -40 q 883 207 950 150 l 950 281 z "},"定":{"ha":1367,"x_min":64,"x_max":1290,"o":"m 713 1128 q 769 975 726 1094 l 1225 975 l 1225 738 l 1126 738 l 1126 879 l 247 879 l 247 738 l 147 738 l 147 975 l 650 975 q 599 1113 611 1081 l 713 1128 m 64 -74 q 233 163 182 46 q 299 465 283 279 l 401 456 q 372 260 389 332 q 488 110 421 165 q 651 32 554 56 l 651 579 l 165 579 l 165 675 l 1207 675 l 1207 579 l 753 579 l 753 361 l 1150 361 l 1150 264 l 753 264 l 753 15 q 781 13 772 13 q 1036 3 932 3 q 1290 13 1142 3 l 1269 -86 q 1021 -96 1154 -96 q 774 -86 889 -96 q 512 -21 618 -75 q 336 143 406 33 q 146 -144 278 -8 l 64 -74 z "},"宣":{"ha":1367,"x_min":97,"x_max":1268,"o":"m 693 1132 q 754 972 721 1067 l 1231 972 l 1231 715 l 1131 715 l 1131 879 l 236 879 l 236 717 l 136 717 l 136 972 l 642 972 q 582 1110 613 1050 l 693 1132 m 97 1 l 1268 1 l 1268 -89 l 97 -89 l 97 1 m 265 569 l 1101 569 l 1101 114 l 265 114 l 265 569 m 290 763 l 1074 763 l 1074 679 l 290 679 l 290 763 m 1006 197 l 1006 304 l 361 304 l 361 197 l 1006 197 m 1006 379 l 1006 488 l 361 488 l 361 379 l 1006 379 z "},"室":{"ha":1367,"x_min":89,"x_max":1258,"o":"m 690 1132 q 764 972 731 1051 l 1221 972 l 1221 763 l 1121 763 l 1121 879 l 228 879 l 228 763 l 128 763 l 128 972 l 643 972 q 579 1097 601 1056 l 690 1132 m 89 -3 l 624 -3 l 624 146 l 215 146 l 215 238 l 624 238 l 624 375 l 314 357 l 208 350 l 193 432 q 233 442 217 436 q 268 460 249 449 q 485 644 368 529 l 221 644 l 221 732 l 1135 732 l 1135 644 l 892 644 q 1038 510 957 588 q 1169 378 1119 432 l 1101 310 q 1015 397 1079 333 l 726 381 l 726 238 l 1132 238 l 1132 146 l 726 146 l 726 -3 l 1258 -3 l 1258 -93 l 89 -93 l 89 -3 m 939 472 q 821 582 865 544 l 886 644 l 621 644 q 392 442 486 507 l 939 472 z "},"宮":{"ha":1367,"x_min":144,"x_max":1221,"o":"m 700 1121 q 756 967 728 1058 l 1221 967 l 1221 688 l 1125 688 l 1125 872 l 242 872 l 242 688 l 144 688 l 144 967 l 651 967 q 635 1013 643 993 q 622 1049 628 1033 q 603 1099 608 1082 l 700 1121 m 236 303 l 535 303 q 583 435 558 361 l 304 435 l 304 746 l 1063 746 l 1063 435 l 686 435 q 640 303 665 368 l 1129 303 l 1129 -137 l 1036 -137 l 1036 -65 l 329 -65 l 329 -137 l 236 -137 l 236 303 m 1036 28 l 1036 210 l 329 210 l 329 28 l 1036 28 m 971 521 l 971 658 l 394 658 l 394 521 l 971 521 z "},"宵":{"ha":1367,"x_min":139,"x_max":1228,"o":"m 701 1128 q 761 969 735 1056 l 1228 969 l 1228 708 l 1126 708 l 1126 881 l 240 881 l 240 711 l 139 711 l 139 969 l 646 969 q 590 1100 624 1028 l 701 1128 m 149 -92 q 235 113 207 15 q 263 361 263 210 l 263 596 l 635 596 l 635 844 l 735 840 l 735 596 l 1128 596 l 1128 26 q 1097 -74 1128 -43 q 992 -111 1065 -104 l 858 -122 l 826 -35 l 951 -26 q 1012 -3 994 -24 q 1029 67 1029 18 l 1029 150 q 399 46 796 103 l 372 142 q 1029 232 669 171 l 1029 507 l 358 507 l 358 413 q 947 363 631 407 l 922 278 q 358 336 600 329 l 358 318 q 330 84 358 189 q 239 -133 301 -21 l 149 -92 m 364 839 q 457 757 407 803 q 540 675 507 711 l 476 601 q 388 690 439 642 q 300 768 338 738 l 364 839 m 829 675 q 1007 836 936 758 l 1069 767 q 983 682 1035 729 q 890 601 932 635 l 829 675 z "},"容":{"ha":1367,"x_min":68,"x_max":1294,"o":"m 690 1139 q 760 969 732 1047 l 1219 969 l 1219 717 l 1119 717 l 1119 875 l 243 875 l 243 719 l 143 719 l 143 969 l 647 969 q 583 1108 614 1047 l 690 1139 m 68 288 q 406 450 267 363 q 642 646 546 538 l 722 646 q 961 449 822 536 q 1294 289 1100 363 l 1254 193 q 1076 272 1157 232 l 1076 -136 l 976 -136 l 976 -76 l 386 -76 l 386 -136 l 286 -136 l 286 274 q 107 193 190 225 l 68 288 m 146 611 q 337 703 235 647 q 525 817 439 760 l 574 739 q 189 522 413 625 l 146 611 m 1017 304 q 683 556 807 422 q 346 304 547 413 l 1017 304 m 976 15 l 976 211 l 386 211 l 386 15 l 976 15 m 829 817 q 1226 610 942 764 l 1182 525 q 983 636 1108 568 q 783 740 857 704 l 829 817 z "},"實":{"ha":1367,"x_min":82,"x_max":1286,"o":"m 1114 58 l 254 58 l 254 478 l 1114 478 l 1114 58 m 82 733 l 283 733 l 294 861 l 1096 861 l 1088 733 l 1286 733 l 1286 665 l 1083 665 l 1075 540 l 267 540 l 278 665 l 82 665 l 82 733 m 108 -71 q 337 -17 197 -53 q 561 46 476 19 l 588 -29 q 350 -95 485 -60 q 131 -147 215 -131 l 108 -71 m 143 1010 l 643 1010 l 621 1057 q 594 1114 601 1096 l 700 1132 q 756 1010 726 1079 l 1225 1010 l 1225 797 l 1136 797 l 1136 938 l 235 938 l 235 799 l 143 799 l 143 1010 m 1017 117 l 1017 185 l 351 185 l 351 117 l 1017 117 m 1017 238 l 1017 301 l 351 301 l 351 238 l 1017 238 m 1017 356 l 1017 421 l 351 421 l 351 356 l 1017 356 m 625 603 l 632 668 l 369 668 l 363 603 l 625 603 m 638 731 l 644 799 l 382 799 l 375 731 l 638 731 m 988 603 l 992 668 l 725 668 l 719 603 l 988 603 m 997 731 l 1001 799 l 738 799 l 732 731 l 997 731 m 803 46 q 1261 -67 1153 -39 l 1239 -144 q 782 -28 1043 -90 l 803 46 z "},"封":{"ha":1367,"x_min":78,"x_max":1293,"o":"m 1293 742 l 1153 742 l 1153 82 q 1138 -27 1153 11 q 1088 -83 1124 -65 q 985 -108 1053 -101 l 874 -121 l 840 -21 l 960 -11 q 1019 2 1000 -8 q 1046 35 1039 13 q 1053 103 1053 57 l 1053 742 l 721 742 l 721 842 l 1053 842 l 1053 1111 l 1153 1107 l 1153 842 l 1293 842 l 1293 742 m 78 24 q 256 44 111 26 q 354 56 288 47 l 354 258 l 132 258 l 132 358 l 354 358 l 354 493 l 456 488 l 456 358 l 671 358 l 671 258 l 456 258 l 456 68 l 717 100 l 717 -4 q 279 -54 663 -8 q 86 -78 182 -67 l 78 24 m 83 640 l 354 640 l 354 825 l 131 825 l 131 922 l 354 922 l 354 1107 l 456 1101 l 456 922 l 668 922 l 668 825 l 456 825 l 456 640 l 697 640 l 697 544 l 83 544 l 83 640 m 828 621 q 888 489 854 567 q 974 299 947 351 l 888 256 q 860 317 876 282 q 826 396 844 351 l 744 582 l 828 621 z "},"小":{"ha":1367,"x_min":68,"x_max":1290,"o":"m 538 -4 q 599 9 579 -1 q 628 45 619 19 q 636 122 636 71 l 636 1093 l 744 1089 l 744 89 q 728 -29 744 11 q 674 -87 713 -69 q 563 -112 636 -106 l 442 -124 l 404 -14 l 538 -4 m 68 140 q 212 485 144 289 q 311 844 279 682 l 419 822 q 312 445 379 644 q 168 92 244 246 l 68 140 m 1001 858 q 1290 133 1078 688 l 1183 90 q 1044 465 1131 239 q 903 819 957 690 l 1001 858 z "},"少":{"ha":1367,"x_min":107,"x_max":1293,"o":"m 728 311 l 621 311 l 621 1113 l 728 1108 l 728 311 m 107 440 q 389 932 257 615 l 485 890 q 199 381 342 554 l 107 440 m 115 -36 q 528 94 365 24 q 805 265 690 164 q 1024 524 919 367 l 1106 460 q 858 177 983 286 q 567 -6 732 68 q 153 -139 401 -79 l 115 -36 m 933 954 q 1112 747 992 892 q 1293 519 1232 601 l 1213 451 q 1035 678 1153 532 q 857 892 918 824 l 933 954 z "},"尖":{"ha":1367,"x_min":75,"x_max":1286,"o":"m 733 639 l 629 639 l 629 1106 l 733 1100 l 733 639 m 75 -46 q 458 126 333 33 q 614 353 582 219 l 131 353 l 131 453 l 628 453 l 628 457 q 629 574 629 489 l 733 569 l 731 456 l 731 453 l 1233 453 l 1233 353 l 740 353 q 934 114 808 204 q 1286 -43 1060 24 l 1242 -139 q 892 21 1025 -71 q 686 247 758 113 q 499 37 632 126 q 119 -135 365 -53 l 75 -46 m 121 651 q 289 806 203 718 q 438 974 375 894 l 513 900 q 360 731 450 822 q 189 569 271 639 l 121 651 m 915 981 q 1083 826 974 929 q 1249 664 1192 722 l 1175 583 q 1011 750 1119 644 q 846 904 903 856 l 915 981 z "},"尺":{"ha":1367,"x_min":82,"x_max":1294,"o":"m 82 -69 q 190 113 151 25 q 244 317 228 201 q 261 608 261 432 l 261 1039 l 1149 1039 l 1149 528 l 747 528 q 878 277 810 376 q 1044 106 946 178 q 1294 -33 1142 33 l 1257 -133 q 983 25 1096 -64 q 789 235 869 114 q 644 528 708 357 l 358 528 q 335 253 356 367 q 276 50 315 139 q 174 -128 238 -39 l 82 -69 m 1046 631 l 1046 938 l 360 938 l 360 631 l 1046 631 z "},"尾":{"ha":1367,"x_min":64,"x_max":1274,"o":"m 1164 365 l 754 339 l 754 228 l 1268 261 l 1274 172 l 754 142 l 754 75 q 769 4 754 25 q 822 -19 783 -17 q 942 -26 889 -26 q 1061 -19 996 -26 q 1122 1 1106 -15 q 1142 57 1139 17 q 1144 126 1144 88 l 1236 93 l 1231 15 q 1192 -82 1222 -56 q 1086 -115 1163 -108 q 939 -122 1006 -122 q 790 -115 874 -122 q 711 -97 740 -111 q 668 -47 682 -82 q 654 50 654 -12 l 654 136 l 322 117 l 318 200 l 654 222 l 654 333 l 374 315 l 369 397 l 654 415 l 654 524 l 379 500 l 369 581 q 781 619 558 594 q 1138 671 1004 644 l 1153 588 q 754 535 999 560 l 754 421 l 1160 446 l 1164 365 m 64 -92 q 152 115 122 21 q 194 326 182 210 q 206 631 206 443 l 206 1049 l 1199 1049 l 1199 731 l 308 731 l 308 603 q 295 301 308 425 q 251 74 282 176 q 163 -137 219 -28 l 64 -92 m 1094 819 l 1094 953 l 308 953 l 308 819 l 1094 819 z "},"尿":{"ha":1367,"x_min":69,"x_max":1303,"o":"m 69 -85 q 157 106 126 19 q 201 306 188 193 q 215 592 215 418 l 215 1038 l 1185 1038 l 1185 694 l 319 694 l 319 611 q 304 288 319 414 q 255 64 289 161 q 157 -153 221 -33 l 69 -85 m 292 3 q 481 197 410 99 q 592 406 551 294 l 372 406 l 372 496 l 683 496 l 683 408 q 567 156 643 272 q 360 -71 490 39 l 292 3 m 1081 789 l 1081 940 l 319 940 l 319 789 l 1081 789 m 683 -31 q 738 -6 722 -29 q 753 65 753 17 l 753 644 l 850 639 l 850 542 q 928 369 879 453 q 1056 461 989 410 q 1172 557 1122 513 l 1233 478 q 982 286 1138 394 q 1303 13 1103 122 l 1244 -76 q 1014 105 1111 4 q 850 338 917 206 l 850 24 q 819 -87 850 -54 q 715 -128 789 -121 l 597 -137 l 568 -37 l 683 -31 z "},"局":{"ha":1367,"x_min":67,"x_max":1235,"o":"m 67 -76 q 164 138 132 42 q 207 347 196 233 q 218 649 218 461 l 218 1053 l 1167 1053 l 1167 717 l 317 717 l 317 590 l 1235 590 q 1213 96 1226 315 q 1188 -25 1207 18 q 1133 -87 1169 -68 q 1029 -112 1096 -107 l 861 -126 l 831 -33 l 996 -24 q 1082 6 1057 -19 q 1113 100 1107 32 q 1132 460 1122 210 l 1133 494 l 315 494 q 275 159 308 292 q 156 -126 242 26 l 67 -76 m 1065 811 l 1065 957 l 317 957 l 317 811 l 1065 811 m 414 381 l 939 381 l 939 53 l 414 53 l 414 381 m 844 135 l 844 299 l 508 299 l 508 135 l 844 135 z "},"居":{"ha":1367,"x_min":60,"x_max":1279,"o":"m 1279 460 l 838 460 l 838 313 l 1153 313 l 1153 -140 l 1053 -140 l 1053 -67 l 521 -67 l 521 -143 l 419 -143 l 419 313 l 738 313 l 738 460 l 308 460 q 263 132 299 260 q 143 -140 226 4 l 60 -85 q 157 114 124 24 q 203 315 190 204 q 217 599 217 425 l 217 1050 l 1197 1050 l 1197 704 l 838 704 l 838 549 l 1279 549 l 1279 460 m 738 549 l 738 704 l 311 704 l 311 636 q 310 549 311 576 l 738 549 m 1097 797 l 1097 957 l 311 957 l 311 797 l 1097 797 m 1053 21 l 1053 225 l 521 225 l 521 21 l 1053 21 z "},"屋":{"ha":1367,"x_min":54,"x_max":1264,"o":"m 1264 -106 l 299 -106 l 299 -19 l 732 -19 l 732 113 l 388 113 l 388 196 l 732 196 l 732 318 l 483 300 q 386 292 435 297 l 367 372 q 438 400 408 379 q 618 567 501 450 l 356 567 l 356 649 l 1217 649 l 1217 567 l 747 567 q 554 385 628 442 l 1003 417 q 925 513 972 457 l 1003 560 l 1110 425 q 1200 311 1158 361 l 1126 254 l 1063 340 q 832 325 969 336 l 832 196 l 1188 196 l 1188 113 l 832 113 l 832 -19 l 1264 -19 l 1264 -106 m 54 -85 q 140 99 110 11 q 184 301 171 188 q 197 583 197 414 l 197 1043 l 1203 1043 l 1203 749 l 297 749 l 297 603 q 283 292 297 419 q 237 62 269 165 q 144 -147 204 -42 l 54 -85 m 1103 832 l 1103 956 l 297 956 l 297 832 l 1103 832 z "},"山":{"ha":1367,"x_min":179,"x_max":1190,"o":"m 1190 -128 l 1089 -128 l 1089 -40 l 179 -40 l 179 879 l 281 874 l 281 67 l 635 67 l 635 1097 l 736 1093 l 736 67 l 1089 67 l 1089 879 l 1190 874 l 1190 -128 z "},"巢":{"ha":1367,"x_min":83,"x_max":1289,"o":"m 1250 181 l 758 181 q 974 65 849 115 q 1289 -33 1100 14 l 1249 -126 q 731 108 917 -24 l 731 -136 l 638 -136 l 638 111 q 125 -129 447 -28 l 83 -40 q 395 65 271 13 q 608 181 519 117 l 118 181 l 118 263 l 638 263 l 638 354 l 222 354 l 222 775 l 403 775 q 131 951 208 906 q 263 1037 192 988 q 381 1124 335 1086 l 464 1072 q 281 951 363 999 q 476 838 415 875 l 417 775 l 769 775 q 499 951 617 883 q 632 1038 561 988 q 747 1124 703 1088 l 831 1072 q 647 951 729 999 q 844 838 785 874 l 783 775 l 1138 775 q 869 951 950 904 q 1114 1124 979 1015 l 1199 1072 q 1019 951 1090 993 q 1217 835 1150 875 l 1153 764 l 1149 767 l 1149 354 l 731 354 l 731 263 l 1250 263 l 1250 181 m 638 431 l 638 525 l 314 525 l 314 431 l 638 431 m 638 601 l 638 696 l 314 696 l 314 601 l 638 601 m 1056 431 l 1056 525 l 731 525 l 731 431 l 1056 431 m 1056 601 l 1056 696 l 731 696 l 731 601 l 1056 601 z "},"左":{"ha":1367,"x_min":57,"x_max":1282,"o":"m 1282 808 l 593 808 q 496 532 550 658 l 1197 532 l 1197 428 l 844 428 l 844 28 l 1274 28 l 1274 -74 l 268 -74 l 268 28 l 739 28 l 739 428 l 446 428 q 117 -31 325 199 l 57 69 q 315 419 214 244 q 479 808 417 594 l 118 808 l 118 914 l 507 914 q 546 1107 533 1029 l 656 1097 q 619 914 635 979 l 1282 914 l 1282 808 z "},"巨":{"ha":1367,"x_min":125,"x_max":1260,"o":"m 1103 256 l 324 256 l 324 21 l 1260 21 l 1260 -76 l 125 -76 l 125 21 l 222 21 l 222 922 l 125 922 l 125 1021 l 1232 1021 l 1232 922 l 324 922 l 324 715 l 1103 715 l 1103 256 m 1007 353 l 1007 618 l 324 618 l 324 353 l 1007 353 z "},"差":{"ha":1367,"x_min":71,"x_max":1263,"o":"m 439 1128 q 505 1037 465 1093 q 564 944 544 981 l 797 944 q 915 1132 882 1068 l 1006 1097 q 904 944 950 1008 l 1229 944 l 1229 857 l 717 857 l 717 732 l 1176 732 l 1176 646 l 717 646 l 717 514 l 1263 514 l 1263 425 l 569 425 q 479 283 524 343 l 1157 283 l 1157 197 l 794 197 l 794 7 l 1256 7 l 1256 -79 l 200 -79 l 200 7 l 694 7 l 694 197 l 401 197 q 113 7 289 89 l 71 92 q 306 235 213 157 q 464 425 399 313 l 89 425 l 89 514 l 615 514 l 615 646 l 178 646 l 178 732 l 615 732 l 615 857 l 125 857 l 125 944 l 453 944 q 357 1086 422 992 l 439 1128 z "},"巽":{"ha":1367,"x_min":90,"x_max":1268,"o":"m 1218 357 l 947 357 l 947 215 l 1268 215 l 1268 128 l 90 128 l 90 215 l 407 215 l 407 357 l 150 357 l 150 443 l 407 443 l 407 529 l 504 525 l 504 443 l 853 443 l 853 518 l 947 514 l 947 443 l 1218 443 l 1218 357 m 117 -49 q 350 26 218 -21 q 563 113 482 74 l 596 29 q 387 -57 515 -10 q 153 -136 258 -104 l 117 -49 m 158 610 q 181 633 176 621 q 185 676 185 646 l 185 1051 l 614 1051 l 614 775 l 272 775 l 272 638 l 613 708 l 626 624 l 533 604 q 199 532 358 571 l 158 610 m 522 856 l 522 968 l 272 968 l 272 856 l 522 856 m 853 215 l 853 357 l 504 357 l 504 215 l 853 215 m 744 1051 l 1182 1051 l 1182 775 l 833 775 l 833 715 q 850 659 833 674 q 914 644 867 644 l 1235 644 l 1219 563 l 874 563 q 774 590 804 563 q 744 689 744 618 l 744 1051 m 807 108 q 1253 -44 1125 4 l 1213 -132 q 989 -48 1124 -96 q 771 26 854 0 l 807 108 m 1092 856 l 1092 968 l 833 968 l 833 856 l 1092 856 z "},"市":{"ha":1367,"x_min":94,"x_max":1269,"o":"m 633 947 q 571 1103 597 1042 l 676 1128 q 744 947 707 1056 l 1269 947 l 1269 849 l 733 849 l 733 663 l 1149 663 l 1149 213 q 1134 101 1149 142 q 1086 42 1119 61 q 992 14 1053 22 l 890 1 l 858 110 l 968 121 q 1032 152 1017 126 q 1047 246 1047 178 l 1047 567 l 733 567 l 733 -135 l 631 -135 l 631 567 l 317 567 l 317 14 l 217 14 l 217 663 l 631 663 l 631 849 l 94 849 l 94 947 l 633 947 z "},"帶":{"ha":1367,"x_min":93,"x_max":1271,"o":"m 1271 867 l 1042 867 l 1042 790 q 1051 742 1042 753 q 1094 731 1061 731 l 1242 731 l 1233 649 l 1064 649 q 980 672 1003 649 q 957 765 957 696 l 957 867 l 836 867 l 836 658 l 510 658 l 510 867 l 388 867 q 333 705 382 767 q 167 588 285 643 l 101 653 q 249 750 208 700 q 296 867 290 800 l 93 867 l 93 956 l 297 956 l 297 1104 l 389 1100 l 389 956 l 510 956 l 510 1113 l 599 1108 l 599 956 l 744 956 l 744 1113 l 836 1108 l 836 956 l 957 956 l 957 1108 l 1042 1104 l 1042 956 l 1271 956 l 1271 867 m 138 567 l 1228 567 l 1228 338 l 1132 338 l 1132 485 l 731 485 l 731 332 l 1103 332 l 1103 124 q 1092 30 1103 63 q 1050 -19 1081 -3 q 961 -42 1019 -36 l 872 -50 l 844 36 l 933 42 q 991 67 976 44 q 1006 135 1006 89 l 1006 247 l 731 247 l 731 -137 l 632 -137 l 632 247 l 361 247 l 361 -51 l 263 -51 l 263 332 l 632 332 l 632 485 l 233 485 l 233 338 l 138 338 l 138 567 m 744 738 l 744 867 l 599 867 l 599 738 l 744 738 z "},"常":{"ha":1367,"x_min":140,"x_max":1228,"o":"m 735 893 l 917 893 l 864 947 q 1053 1103 997 1051 l 1117 1036 q 943 893 997 932 l 1228 893 l 1228 628 l 1138 628 l 1138 801 l 232 801 l 232 629 l 140 629 l 140 893 l 418 893 l 361 942 q 246 1038 278 1014 l 314 1106 q 499 951 401 1036 l 443 893 l 635 893 l 635 1121 l 735 1117 l 735 893 m 208 307 l 635 307 l 635 414 l 314 414 l 314 697 l 1054 697 l 1054 414 l 735 414 l 735 307 l 1163 307 l 1163 85 q 1131 -22 1163 8 q 1018 -58 1100 -51 l 904 -68 l 876 24 l 990 31 q 1049 53 1033 35 q 1064 115 1064 71 l 1064 218 l 735 218 l 735 -139 l 635 -139 l 635 218 l 306 218 l 306 -62 l 208 -62 l 208 307 m 965 494 l 965 617 l 404 617 l 404 494 l 965 494 z "},"平":{"ha":1367,"x_min":86,"x_max":1281,"o":"m 1222 947 l 736 947 l 736 413 l 1281 413 l 1281 311 l 736 311 l 736 -136 l 632 -136 l 632 311 l 86 311 l 86 413 l 632 413 l 632 947 l 144 947 l 144 1049 l 1222 1049 l 1222 947 m 281 863 q 393 709 329 800 q 507 543 457 618 l 425 486 q 313 655 376 564 q 201 806 249 746 l 281 863 m 861 544 q 976 698 908 600 q 1085 863 1044 796 l 1167 807 q 1060 647 1131 747 q 942 488 990 546 l 861 544 z "},"幽":{"ha":1367,"x_min":140,"x_max":1222,"o":"m 1222 -131 l 1131 -131 l 1131 -54 l 140 -54 l 140 985 l 232 979 l 232 40 l 635 40 l 635 1104 l 726 1099 l 726 40 l 1131 40 l 1131 986 l 1222 981 l 1222 -131 m 243 636 q 265 654 258 646 q 279 676 272 663 q 347 858 304 735 q 415 1067 390 982 l 494 1044 q 418 826 464 947 q 347 654 372 704 q 467 672 419 664 q 533 851 507 771 l 608 826 q 488 523 560 692 q 364 261 415 354 l 524 293 q 471 471 494 401 l 538 493 q 585 337 557 440 q 631 163 614 233 l 563 142 l 544 215 q 446 197 518 210 l 336 176 l 276 164 l 249 249 q 276 267 268 258 q 293 293 283 275 q 431 585 344 382 l 303 563 l 265 557 l 243 636 m 742 636 q 763 655 756 646 q 776 678 769 664 q 846 858 801 731 q 913 1067 890 986 l 990 1044 q 915 824 958 944 q 847 654 871 704 l 961 671 q 1031 851 993 747 l 1106 826 q 981 521 1060 703 q 858 261 901 339 q 1019 296 967 283 q 965 471 986 418 l 1035 492 q 1084 330 1054 433 q 1129 163 1114 226 l 1058 142 q 1040 217 1049 189 l 828 174 q 803 169 817 171 q 774 163 789 167 l 746 247 q 776 267 767 258 q 794 293 785 275 q 926 585 836 368 q 814 567 851 574 l 765 558 l 742 636 z "},"府":{"ha":1367,"x_min":64,"x_max":1285,"o":"m 1285 524 l 1129 524 l 1129 58 q 1114 -38 1129 -3 q 1063 -92 1099 -74 q 964 -115 1028 -110 l 835 -128 l 803 -29 l 936 -19 q 1013 6 993 -15 q 1032 89 1032 28 l 1032 524 l 636 524 l 636 622 l 1032 622 l 1032 814 l 1129 810 l 1129 622 l 1285 622 l 1285 524 m 64 -86 q 150 101 121 15 q 189 282 179 188 q 199 521 199 376 l 199 961 l 700 961 q 632 1097 676 1015 l 746 1125 l 825 961 l 1271 961 l 1271 863 l 299 863 l 299 532 q 288 260 299 364 q 249 64 278 156 q 158 -139 219 -28 l 64 -86 m 303 411 q 442 601 376 489 q 547 833 507 714 l 640 800 q 561 619 606 707 l 561 -132 l 467 -132 l 467 463 q 364 331 413 383 l 303 411 m 743 458 l 761 432 q 915 203 861 289 l 838 146 q 751 280 799 207 q 667 404 703 353 l 743 458 z "},"庫":{"ha":1367,"x_min":75,"x_max":1286,"o":"m 1243 703 l 850 703 l 850 615 l 1168 615 l 1168 201 l 850 201 l 850 103 l 1286 103 l 1286 22 l 850 22 l 850 -140 l 756 -140 l 756 22 l 319 22 l 319 103 l 756 103 l 756 201 l 439 201 l 439 615 l 756 615 l 756 703 l 367 703 l 367 783 l 756 783 l 756 861 l 850 857 l 850 783 l 1243 783 l 1243 703 m 75 -79 q 157 105 129 22 q 196 294 185 188 q 207 576 207 401 l 207 983 l 710 983 q 656 1108 688 1039 l 757 1136 l 824 983 l 1281 983 l 1281 893 l 303 893 l 303 546 q 290 263 303 375 q 247 60 276 150 q 164 -135 218 -29 l 75 -79 m 756 275 l 756 374 l 536 374 l 536 275 l 756 275 m 756 440 l 756 540 l 536 540 l 536 440 l 756 440 m 1072 275 l 1072 374 l 850 374 l 850 275 l 1072 275 m 1072 440 l 1072 540 l 850 540 l 850 440 l 1072 440 z "},"庭":{"ha":1367,"x_min":60,"x_max":1278,"o":"m 1235 138 l 685 138 l 685 228 l 924 228 l 924 411 l 729 411 l 729 501 l 924 501 l 924 667 q 721 643 807 650 l 714 729 q 951 757 814 736 q 1189 801 1089 778 l 1204 715 q 1010 679 1129 697 l 1010 501 l 1203 501 l 1203 411 l 1010 411 l 1010 228 l 1235 228 l 1235 138 m 60 -86 q 144 87 115 6 q 185 265 174 168 q 196 508 196 363 l 196 968 l 707 968 q 654 1108 688 1026 l 754 1129 q 808 968 789 1035 l 1251 968 l 1251 883 l 288 883 l 288 518 q 275 249 288 354 q 233 58 263 143 q 144 -133 203 -28 l 60 -86 m 257 -67 q 444 89 375 15 q 325 315 375 174 l 397 351 q 499 157 440 226 q 551 260 531 206 q 589 389 572 315 l 358 389 l 358 474 l 565 678 l 344 678 l 344 764 l 675 764 l 675 676 l 468 476 l 671 476 l 671 390 q 625 226 650 296 q 561 97 600 157 q 690 38 615 57 q 872 11 764 19 q 1075 6 963 6 q 1278 11 1189 6 l 1261 -86 q 1071 -93 1183 -93 q 879 -86 960 -93 q 663 -51 751 -76 q 508 26 574 -25 q 315 -140 443 -49 l 257 -67 z "},"廉":{"ha":1367,"x_min":64,"x_max":1296,"o":"m 1250 699 l 924 699 l 924 599 l 1163 599 l 1163 433 l 1286 433 l 1286 358 l 1163 358 l 1163 190 l 986 190 q 1296 -19 1115 60 l 1250 -100 q 924 142 1060 -4 l 924 -133 l 833 -133 l 833 190 l 676 190 l 676 -133 l 586 -133 l 586 136 q 292 -111 476 0 l 244 -28 q 409 76 340 24 q 531 190 478 128 l 354 190 l 354 265 l 586 265 l 586 358 l 311 358 l 311 433 l 586 433 l 586 525 l 364 525 l 364 599 l 586 599 l 586 699 l 338 699 l 338 772 l 558 772 q 496 872 528 825 l 576 904 q 592 878 585 892 q 608 853 600 865 q 658 772 618 836 l 858 772 q 939 910 908 847 l 1021 875 q 960 772 979 801 l 1250 772 l 1250 699 m 64 -93 q 144 85 117 0 q 183 284 171 169 q 194 583 194 399 l 194 996 l 692 996 q 633 1111 669 1042 l 740 1139 q 786 1049 747 1128 q 811 996 800 1017 l 1272 996 l 1272 910 l 290 910 l 290 583 q 278 261 290 385 q 237 49 265 138 q 156 -137 208 -39 l 64 -93 m 833 265 l 833 358 l 676 358 l 676 265 l 833 265 m 833 433 l 833 525 l 676 525 l 676 433 l 833 433 m 833 599 l 833 699 l 676 699 l 676 599 l 833 599 m 1079 265 l 1079 358 l 924 358 l 924 265 l 1079 265 m 1079 433 l 1079 525 l 924 525 l 924 433 l 1079 433 z "},"廊":{"ha":1367,"x_min":64,"x_max":1275,"o":"m 64 -75 q 140 100 115 24 q 176 274 165 176 q 188 528 188 371 l 188 1001 l 682 1001 q 629 1113 657 1061 l 735 1139 q 793 1001 781 1036 l 1275 1001 l 1275 908 l 281 908 l 281 536 q 269 251 281 360 q 233 60 258 142 q 157 -124 207 -22 l 64 -75 m 353 7 q 377 34 371 19 q 383 72 383 49 l 383 763 l 539 763 q 499 856 514 826 l 588 878 q 629 764 611 826 l 776 764 l 776 290 l 468 290 l 468 51 l 663 128 q 617 222 640 176 l 693 256 q 757 123 719 207 q 818 -22 794 39 l 740 -56 q 699 49 726 -18 l 586 4 q 458 -46 513 -24 q 396 -75 432 -56 l 353 7 m 692 372 l 692 490 l 468 490 l 468 372 l 692 372 m 692 564 l 692 682 l 468 682 l 468 564 l 692 564 m 875 789 l 1242 789 l 1242 701 l 1147 433 q 1235 295 1210 350 q 1261 178 1261 240 q 1231 53 1261 89 q 1125 6 1200 17 l 1031 -8 l 1004 79 l 1103 92 q 1159 120 1143 97 q 1175 197 1175 143 q 1147 294 1175 244 q 1056 415 1119 343 l 1151 701 l 960 701 l 960 -133 l 875 -133 l 875 789 z "},"建":{"ha":1367,"x_min":75,"x_max":1286,"o":"m 793 818 l 793 932 l 536 932 l 536 1014 l 793 1014 l 793 1124 l 886 1119 l 886 1014 l 1169 1014 l 1169 818 l 1286 818 l 1286 738 l 1169 738 l 1169 544 l 886 544 l 886 435 l 1194 435 l 1194 353 l 886 353 l 886 244 l 1243 244 l 1243 163 l 886 163 l 886 35 l 793 35 l 793 163 l 464 163 l 464 244 l 793 244 l 793 353 l 528 353 l 528 435 l 793 435 l 793 544 l 535 544 l 535 626 l 793 626 l 793 738 l 486 738 l 486 818 l 793 818 m 75 -49 q 243 154 179 43 q 121 425 172 258 l 197 451 q 286 242 239 325 q 361 543 335 361 l 126 543 l 126 631 l 343 924 l 113 924 l 113 1015 l 447 1015 l 447 924 l 235 632 l 449 632 l 449 546 q 409 326 432 418 q 349 154 386 233 q 510 39 417 74 q 743 -4 604 4 q 974 -10 844 -10 q 1282 -1 1128 -10 l 1264 -92 q 990 -99 1108 -99 q 740 -92 879 -99 q 491 -45 597 -85 q 306 76 385 -6 q 143 -126 247 -19 l 75 -49 m 1082 626 l 1082 738 l 886 738 l 886 626 l 1082 626 m 1082 818 l 1082 932 l 886 932 l 886 818 l 1082 818 z "},"引":{"ha":1367,"x_min":185,"x_max":1143,"o":"m 1143 -131 l 1042 -131 l 1042 1096 l 1143 1092 l 1143 -131 m 185 1046 l 749 1046 l 749 643 l 310 643 l 293 447 l 754 447 q 736 210 750 367 l 728 110 q 699 -9 719 32 q 640 -69 679 -50 q 528 -92 600 -87 l 338 -104 l 307 -4 l 501 7 q 592 38 565 10 q 628 138 619 65 q 651 346 644 267 l 186 346 l 217 744 l 646 744 l 646 946 l 185 946 l 185 1046 z "},"強":{"ha":1367,"x_min":107,"x_max":1275,"o":"m 526 817 q 556 830 546 824 q 575 847 567 836 q 688 989 624 904 q 794 1143 751 1074 l 878 1090 q 676 825 799 960 l 1060 843 q 957 972 1013 900 l 1026 1035 q 1260 743 1206 817 l 1190 676 l 1133 749 q 917 740 1026 746 l 917 588 l 1200 588 l 1200 222 l 917 222 l 917 42 l 1117 53 q 1065 172 1101 92 l 1147 207 q 1275 -101 1225 29 l 1194 -142 l 1156 -42 l 849 -60 q 478 -82 572 -78 l 469 18 q 826 36 532 18 l 826 222 l 540 222 l 540 588 l 826 588 l 826 738 l 658 728 q 543 715 589 724 l 526 817 m 107 1042 l 454 1042 l 454 633 l 232 633 l 217 431 l 446 431 l 442 326 q 431 71 436 115 q 380 -57 421 -17 q 244 -104 339 -97 l 139 -111 l 113 -12 l 225 -6 q 308 23 283 -3 q 339 103 333 49 q 353 336 343 151 l 117 336 l 146 726 l 367 726 l 367 946 l 107 946 l 107 1042 m 826 317 l 826 492 l 633 492 l 633 317 l 826 317 m 1106 317 l 1106 492 l 917 492 l 917 317 l 1106 317 z "},"彧":{"ha":1367,"x_min":104,"x_max":1288,"o":"m 632 58 q 383 10 535 38 q 114 -35 231 -17 l 104 67 q 360 108 201 81 q 621 156 519 135 l 632 58 m 106 904 l 783 904 l 774 1110 l 872 1104 q 882 904 876 999 l 1086 904 q 1006 992 1053 943 q 932 1065 960 1042 l 999 1124 q 1081 1044 1033 1092 q 1163 957 1128 996 l 1100 904 l 1274 904 l 1274 808 l 888 808 q 903 611 893 718 q 1108 774 1026 683 l 1168 715 q 913 518 1065 604 q 931 396 922 442 q 1171 583 1053 468 l 1229 521 q 947 307 1094 393 q 976 188 954 271 q 1229 406 1126 293 l 1288 347 q 1008 101 1168 211 q 1028 61 1015 82 q 1113 -17 1069 -17 q 1151 5 1135 -17 q 1179 78 1167 26 q 1201 201 1190 124 l 1285 153 q 1258 24 1275 96 q 1113 -135 1222 -135 q 1018 -98 1060 -135 q 936 19 976 -61 l 924 47 q 651 -86 793 -32 l 611 -3 q 892 133 753 50 q 858 260 874 186 q 704 193 786 222 l 667 275 q 842 347 760 307 q 824 472 833 393 q 685 419 756 440 l 654 504 q 813 564 739 528 q 790 808 803 653 l 106 808 l 106 904 m 194 669 l 600 669 l 600 258 l 194 258 l 194 669 m 507 351 l 507 575 l 285 575 l 285 351 l 507 351 z "},"後":{"ha":1367,"x_min":58,"x_max":1300,"o":"m 243 -142 l 243 396 q 114 253 167 301 l 58 343 q 227 537 133 413 q 371 760 321 661 l 450 706 q 339 525 407 625 l 339 -142 l 243 -142 m 85 764 q 258 935 167 833 q 394 1111 349 1036 l 471 1050 q 326 863 417 965 q 146 682 235 760 l 85 764 m 396 175 q 519 285 472 235 l 469 353 l 538 406 l 579 350 q 672 489 635 419 l 592 482 q 471 472 546 478 l 453 563 q 505 569 486 565 q 539 582 524 572 q 814 772 661 647 l 572 747 q 482 736 508 739 l 461 825 q 536 847 519 835 q 668 969 590 889 q 804 1121 746 1050 l 876 1065 q 760 933 825 1003 q 647 824 694 863 l 910 857 q 1094 1038 1004 940 l 1164 974 q 929 752 1067 869 q 689 569 792 635 l 721 572 q 872 587 782 578 q 1083 606 963 596 q 990 728 1039 668 l 1064 781 q 1169 648 1107 732 q 1268 506 1231 564 l 1196 447 q 1142 525 1169 488 l 772 496 q 704 376 728 414 l 1158 376 l 1158 299 q 947 65 1067 153 q 1300 -44 1090 0 l 1263 -139 q 857 8 1015 -74 q 440 -143 713 -72 l 397 -54 q 761 64 636 6 q 579 217 661 128 q 449 99 521 154 l 396 175 m 638 282 q 853 113 732 181 q 1043 293 968 185 l 646 293 l 638 282 z "},"復":{"ha":1367,"x_min":57,"x_max":1292,"o":"m 1265 911 l 651 911 q 590 810 621 857 l 1185 810 l 1185 399 l 764 399 q 708 314 747 369 l 1185 314 l 1185 239 q 965 44 1104 129 q 1292 -50 1110 -14 l 1264 -140 q 871 -6 1029 -81 q 443 -143 706 -83 l 415 -57 q 774 44 625 -17 q 589 174 672 100 q 453 58 526 108 l 403 131 q 526 233 472 179 q 478 288 499 261 l 542 342 q 583 293 563 314 q 664 399 635 356 l 558 399 l 558 763 q 497 681 528 718 l 432 751 q 552 926 492 819 q 646 1128 613 1032 l 740 1100 q 696 996 725 1058 l 1265 996 l 1265 911 m 57 333 q 231 542 144 424 q 365 764 317 660 l 443 715 q 338 535 394 619 l 338 -132 l 246 -132 l 246 407 q 113 256 186 332 l 57 333 m 71 750 q 240 928 153 824 q 375 1118 326 1033 l 458 1063 q 308 858 401 971 q 132 667 215 746 l 71 750 m 646 233 q 869 88 735 157 q 1071 236 996 153 l 647 236 l 646 233 m 1094 472 l 1094 569 l 651 569 l 651 472 l 1094 472 m 1094 639 l 1094 735 l 651 735 l 651 639 l 1094 639 z "},"心":{"ha":1367,"x_min":71,"x_max":1303,"o":"m 507 125 q 515 49 507 74 q 544 14 524 24 q 610 0 565 4 q 708 -4 660 -4 q 806 0 758 -4 q 884 15 860 6 q 918 49 908 25 q 931 124 928 72 q 936 274 936 235 l 1042 236 q 1031 83 1039 163 q 1005 -24 1024 13 q 946 -76 986 -60 q 828 -97 906 -92 q 706 -103 772 -103 q 585 -97 640 -103 q 473 -75 511 -92 q 419 -17 435 -58 q 403 104 403 24 l 403 839 l 507 835 l 507 125 m 71 189 q 155 446 113 301 q 222 715 197 590 l 322 689 q 253 412 294 557 q 168 154 213 267 l 71 189 m 603 1115 q 751 918 658 1047 q 899 707 844 789 l 813 642 q 673 850 764 719 q 524 1054 582 981 l 603 1115 m 1078 742 q 1192 492 1124 649 q 1303 226 1261 335 l 1208 181 q 1099 450 1167 293 q 986 697 1032 607 l 1078 742 z "},"志":{"ha":1367,"x_min":69,"x_max":1285,"o":"m 1247 819 l 736 819 l 736 611 l 1189 611 l 1189 510 l 176 510 l 176 611 l 629 611 l 629 819 l 115 819 l 115 922 l 629 922 l 629 1114 l 736 1110 l 736 922 l 1247 922 l 1247 819 m 69 4 q 151 176 111 79 q 215 364 190 272 l 311 333 q 164 -42 258 161 l 69 4 m 399 389 l 499 385 l 499 92 q 507 33 499 53 q 533 7 515 14 q 583 -3 550 0 q 693 -6 658 -6 q 803 -3 731 -6 q 878 16 860 0 q 899 83 897 32 l 904 200 l 999 169 l 992 42 q 972 -44 989 -14 q 919 -86 956 -74 q 815 -101 882 -99 q 685 -106 751 -106 q 553 -101 619 -106 q 433 -63 467 -99 q 399 58 399 -28 l 399 389 m 692 471 q 769 350 726 418 q 846 224 811 282 l 765 165 q 610 415 703 272 l 692 471 m 1085 393 q 1285 31 1151 281 l 1194 -22 q 997 342 1139 90 l 1085 393 z "},"急":{"ha":1367,"x_min":69,"x_max":1292,"o":"m 97 757 q 313 933 214 836 q 475 1129 411 1029 l 579 1103 q 513 1010 551 1060 l 1006 1010 l 1006 926 q 868 786 951 875 l 1151 786 l 1151 583 l 1265 583 l 1265 500 l 1151 500 l 1151 306 l 214 306 l 214 392 l 1057 392 l 1057 500 l 117 500 l 117 583 l 1057 583 l 1057 697 l 250 697 l 250 746 q 157 676 208 713 l 97 757 m 69 -44 q 221 229 163 82 l 310 190 q 154 -97 246 38 l 69 -44 m 738 786 l 813 864 q 865 919 832 886 l 436 919 q 299 786 382 860 l 738 786 m 396 229 l 496 224 l 496 64 q 513 -3 496 14 q 581 -24 531 -21 q 690 -26 618 -26 q 799 -24 764 -26 q 874 -6 856 -21 q 896 54 893 10 q 899 147 899 107 l 996 114 q 988 18 996 96 q 966 -64 983 -36 q 915 -102 949 -92 q 821 -115 882 -112 q 683 -118 732 -118 q 546 -115 638 -118 q 456 -99 488 -112 q 410 -51 424 -85 q 396 43 396 -18 l 396 229 m 678 297 q 822 117 764 194 l 749 60 q 606 242 653 186 l 678 297 m 1106 254 q 1292 -24 1169 167 l 1207 -78 q 1026 201 1156 10 l 1106 254 z "},"息":{"ha":1367,"x_min":72,"x_max":1288,"o":"m 1101 282 q 1198 133 1143 221 q 1288 -15 1253 46 l 1201 -67 q 1115 85 1168 -3 q 1019 231 1061 172 l 1101 282 m 72 -39 q 149 110 111 25 q 213 272 188 194 l 304 239 q 239 69 279 158 q 157 -89 199 -19 l 72 -39 m 239 993 l 553 993 q 597 1125 575 1057 l 711 1106 q 671 993 699 1064 l 1121 993 l 1121 331 l 239 331 l 239 993 m 1022 415 l 1022 529 l 336 529 l 336 415 l 1022 415 m 1022 607 l 1022 718 l 336 718 l 336 607 l 1022 607 m 1022 794 l 1022 908 l 336 908 l 336 794 l 1022 794 m 390 261 l 492 257 l 492 68 q 508 2 492 19 q 574 -19 525 -15 q 689 -26 639 -26 q 804 -19 742 -26 q 861 -9 843 -15 q 887 12 879 -3 q 897 58 894 26 q 901 163 901 100 l 1000 125 q 989 21 999 79 q 968 -58 985 -32 q 920 -96 951 -85 q 829 -112 889 -107 q 689 -118 767 -118 q 536 -112 604 -118 q 449 -94 479 -108 q 404 -48 418 -81 q 390 47 390 -15 l 390 261 m 635 317 q 733 238 674 288 q 826 156 792 189 l 768 81 q 578 249 701 149 l 635 317 z "},"意":{"ha":1367,"x_min":83,"x_max":1285,"o":"m 1274 722 l 90 722 l 90 804 l 435 804 q 403 928 422 854 l 161 928 l 161 1013 l 644 1013 q 596 1103 628 1049 l 703 1131 l 764 1013 l 1203 1013 l 1203 928 l 969 928 q 939 804 950 844 l 1274 804 l 1274 722 m 83 -44 q 166 82 125 11 q 231 211 207 153 l 325 176 q 252 37 297 114 q 168 -93 207 -40 l 83 -44 m 246 635 l 1115 635 l 1115 243 l 669 243 q 813 99 771 149 l 747 36 q 670 118 715 72 q 594 192 625 164 l 650 243 l 246 243 l 246 635 m 1014 317 l 1014 406 l 346 406 l 346 317 l 1014 317 m 1014 472 l 1014 561 l 346 561 l 346 472 l 1014 472 m 396 196 l 497 190 l 497 46 q 511 -8 497 7 q 568 -26 525 -22 q 694 -31 631 -31 q 822 -26 760 -31 q 885 -10 869 -22 q 901 40 900 3 q 906 133 906 94 l 1001 99 l 999 58 l 994 8 q 977 -60 992 -36 q 932 -94 963 -83 q 843 -108 901 -104 q 688 -114 776 -114 q 532 -108 600 -114 q 449 -92 478 -104 q 408 -52 421 -81 q 396 29 396 -24 l 396 196 m 535 804 l 839 804 q 869 928 863 892 l 504 928 l 535 804 m 1122 214 q 1285 -40 1229 61 l 1201 -90 q 1125 38 1171 -35 q 1040 167 1079 111 l 1122 214 z "},"感":{"ha":1367,"x_min":82,"x_max":1282,"o":"m 771 697 l 346 697 l 346 774 l 771 774 l 771 697 m 82 297 q 158 434 132 372 q 194 575 183 496 q 206 778 206 654 l 206 968 l 868 968 l 860 1119 l 949 1115 l 958 968 l 1082 968 q 1031 1083 1057 1028 l 1099 1110 q 1163 968 1131 1049 l 1261 968 l 1261 882 l 963 882 l 967 824 q 992 551 976 676 q 1129 790 1078 661 l 1207 754 q 1008 432 1135 574 q 1096 94 1042 240 q 1158 7 1131 7 q 1183 30 1171 7 q 1201 107 1194 53 q 1214 222 1210 167 l 1282 204 q 1267 64 1279 157 q 1226 -67 1254 -31 q 1154 -103 1199 -103 q 1081 -60 1117 -103 q 1018 53 1044 -17 q 932 354 961 208 q 801 254 867 296 l 749 333 q 913 464 839 390 q 876 821 888 621 l 872 882 l 297 882 l 297 750 q 268 469 297 582 q 168 249 239 356 l 82 297 m 94 -53 q 158 78 129 6 q 203 217 188 150 l 286 194 q 175 -90 247 47 l 94 -53 m 339 221 l 425 215 l 425 54 q 438 1 425 14 q 490 -15 450 -12 q 564 -18 540 -18 q 636 -15 589 -18 q 693 1 679 -11 q 710 50 707 14 l 713 113 l 788 90 q 782 15 785 33 q 767 -52 778 -29 q 730 -85 756 -75 q 656 -100 704 -96 q 557 -103 622 -103 q 458 -100 492 -103 q 365 -69 390 -94 q 339 18 339 -44 l 339 221 m 372 606 l 728 606 l 728 335 l 372 335 l 372 606 m 644 408 l 644 535 l 457 535 l 457 408 l 644 408 m 529 307 q 600 231 554 283 q 672 144 646 178 l 611 89 q 543 175 589 119 q 474 256 497 231 l 529 307 m 871 231 q 965 -47 917 113 l 889 -71 q 799 210 844 93 l 871 231 z "},"懸":{"ha":1367,"x_min":61,"x_max":1300,"o":"m 676 511 l 440 511 l 440 250 l 354 250 l 354 511 l 90 511 l 90 579 l 178 579 l 178 1053 l 622 1054 l 622 579 l 676 579 l 676 511 m 61 304 q 158 391 111 342 q 239 490 204 440 l 301 447 q 214 338 263 392 q 117 251 165 285 l 61 304 m 82 -33 q 222 224 171 83 l 308 186 q 245 44 282 115 q 168 -82 208 -26 l 82 -33 m 535 579 l 535 638 l 265 638 l 265 579 l 535 579 m 535 692 l 535 757 l 265 757 l 265 692 l 535 692 m 535 810 l 535 871 l 265 871 l 265 810 l 535 810 m 535 924 l 535 983 l 265 983 l 265 924 l 535 924 m 394 218 l 497 213 l 497 61 q 514 -3 497 13 q 581 -24 531 -19 q 690 -29 629 -29 q 800 -24 751 -29 q 857 -14 839 -19 q 883 6 875 -8 q 896 50 892 19 q 903 140 903 117 l 1000 108 l 990 19 q 967 -62 985 -35 q 917 -99 949 -89 q 824 -114 885 -110 q 685 -118 756 -118 q 547 -114 617 -118 q 428 -75 461 -108 q 394 43 394 -42 l 394 218 m 542 490 q 607 433 571 468 q 669 368 643 397 l 621 314 q 556 381 593 344 q 493 436 518 417 l 542 490 m 643 269 q 731 199 678 244 q 810 129 785 154 l 757 54 q 674 135 726 88 q 588 206 621 182 l 643 269 m 676 338 q 831 496 753 394 l 886 451 q 725 281 808 347 l 676 338 m 718 588 q 755 595 743 592 q 778 606 767 599 q 964 732 858 654 q 774 710 904 724 q 736 706 736 706 l 719 778 q 772 793 751 783 q 1014 986 896 879 q 736 929 888 951 l 718 1000 q 934 1040 821 1013 q 1139 1101 1047 1067 l 1169 1035 q 1024 989 1097 1008 l 1068 943 q 947 838 1004 883 q 879 786 889 793 q 1064 807 939 792 q 1171 897 1122 853 l 1221 843 q 893 599 1108 742 l 965 606 q 1150 625 1088 617 l 1096 700 l 1151 742 q 1300 536 1256 607 l 1240 492 l 1197 556 q 1032 542 1146 550 l 1032 251 l 947 251 l 947 533 q 776 518 890 529 l 733 514 l 718 588 m 1099 243 q 1190 118 1136 197 q 1281 -25 1243 39 l 1200 -78 q 1117 59 1169 -19 q 1024 192 1064 138 l 1099 243 m 1144 508 q 1297 314 1196 449 l 1239 265 q 1090 463 1206 311 l 1144 508 z "},"戶":{"ha":1367,"x_min":64,"x_max":1176,"o":"m 64 -74 q 168 127 136 46 q 212 315 200 208 q 224 618 224 422 l 224 985 q 698 1016 449 993 q 1156 1069 947 1039 l 1176 971 q 325 894 799 917 l 325 761 l 1169 761 l 1169 310 l 314 310 q 265 82 300 179 q 158 -133 231 -15 l 64 -74 m 1072 411 l 1072 664 l 325 664 l 325 607 q 321 411 325 499 l 1072 411 z "},"房":{"ha":1367,"x_min":69,"x_max":1253,"o":"m 1253 361 l 642 361 q 640 331 640 349 q 638 286 640 313 l 636 268 l 1147 268 q 1128 44 1142 164 q 1103 -46 1119 -14 q 1055 -92 1086 -78 q 969 -110 1024 -106 l 801 -124 l 772 -35 l 942 -25 q 1008 -5 989 -22 q 1035 63 1026 13 q 1047 178 1043 119 l 621 178 q 533 3 596 78 q 356 -140 471 -71 l 283 -64 q 477 87 421 8 q 538 288 533 165 q 540 331 540 313 q 542 361 540 349 l 356 361 l 356 449 l 765 449 q 715 549 738 510 l 801 575 q 865 449 835 515 l 1253 449 l 1253 361 m 69 -87 q 153 99 124 13 q 195 289 182 185 q 208 544 208 393 l 208 1039 q 689 1060 429 1040 q 1157 1110 949 1079 l 1179 1018 q 306 949 865 972 l 306 872 l 1186 872 l 1186 592 l 306 592 l 306 497 q 272 162 306 301 q 160 -132 238 22 l 69 -87 m 1094 676 l 1094 792 l 306 792 l 306 676 l 1094 676 z "},"手":{"ha":1367,"x_min":86,"x_max":1282,"o":"m 1183 585 l 750 585 l 750 361 l 1282 361 l 1282 265 l 750 265 l 750 75 q 718 -64 750 -22 q 607 -112 686 -106 l 461 -126 l 425 -21 l 565 -11 q 624 20 606 -10 q 642 108 642 50 l 642 265 l 86 265 l 86 361 l 642 361 l 642 585 l 185 585 l 185 683 l 642 683 l 642 924 q 171 894 343 900 l 163 990 q 668 1022 374 999 q 1167 1074 963 1046 l 1182 976 q 750 932 1010 953 l 750 683 l 1183 683 l 1183 585 z "},"扶":{"ha":1367,"x_min":65,"x_max":1297,"o":"m 513 754 l 365 754 l 365 526 q 501 592 465 574 l 511 486 l 365 418 l 365 54 q 353 -40 365 -7 q 309 -90 340 -74 q 217 -114 278 -107 l 142 -122 l 111 -19 l 189 -12 q 250 14 233 -8 q 267 89 267 36 l 267 374 q 89 297 169 329 l 65 397 q 267 482 167 439 l 267 754 l 89 754 l 89 857 l 267 857 l 267 1113 l 365 1108 l 365 857 l 513 857 l 513 754 m 436 -49 q 690 172 599 51 q 808 440 782 293 l 538 440 l 538 544 l 819 544 l 819 778 l 578 778 l 578 883 l 821 883 l 821 1114 l 921 1110 l 919 883 l 1225 883 l 1225 778 l 919 778 l 918 556 l 918 544 l 1264 544 l 1264 440 l 932 440 q 1056 163 968 281 q 1297 -49 1144 44 l 1233 -140 q 878 314 968 33 q 735 68 831 182 q 501 -137 640 -46 l 436 -49 z "},"承":{"ha":1367,"x_min":54,"x_max":1326,"o":"m 881 581 l 721 581 l 721 450 l 899 450 l 899 364 l 721 364 l 721 226 l 967 226 l 967 139 l 721 139 l 721 39 q 707 -61 721 -25 q 662 -113 693 -97 q 574 -135 631 -129 l 457 -144 l 426 -50 l 546 -42 q 609 -14 592 -37 q 626 63 626 10 l 626 139 l 385 139 l 385 226 l 626 226 l 626 364 l 450 364 l 450 450 l 626 450 l 626 581 l 465 581 l 465 668 l 626 668 l 626 775 l 899 936 l 235 936 l 235 1036 l 1093 1036 l 1093 940 l 721 729 l 721 668 l 881 668 l 881 581 m 54 19 q 230 297 175 160 q 317 624 285 435 l 101 624 l 101 725 l 413 725 l 413 624 q 358 369 388 474 q 274 162 328 265 q 128 -60 221 58 l 54 19 m 924 708 q 1246 806 1128 751 l 1271 724 q 1019 640 1168 679 q 1078 372 1042 479 q 1172 183 1114 265 q 1326 11 1229 101 l 1253 -50 q 1092 137 1153 49 q 994 338 1032 225 q 933 619 956 451 l 929 651 l 924 706 l 924 708 z "},"指":{"ha":1367,"x_min":69,"x_max":1242,"o":"m 513 765 l 360 765 l 360 533 l 494 588 l 513 485 q 360 425 481 471 l 360 39 q 330 -73 360 -40 q 217 -112 300 -106 l 117 -121 l 88 -24 l 188 -17 q 246 8 228 -14 q 264 72 264 29 l 264 389 l 90 322 l 69 425 q 264 496 143 450 l 264 765 l 93 765 l 93 864 l 264 864 l 264 1103 l 360 1099 l 360 864 l 513 864 l 513 765 m 563 492 l 1193 492 l 1193 -133 l 1094 -133 l 1094 -68 l 658 -68 l 658 -135 l 563 -135 l 563 492 m 565 1099 l 661 1094 l 661 953 l 1226 953 l 1226 864 l 661 864 l 661 775 q 678 707 661 725 q 744 689 696 689 l 1242 689 l 1219 599 l 724 599 q 601 634 636 599 q 565 760 565 669 l 565 1099 m 1094 24 l 1094 167 l 658 167 l 658 24 l 1094 24 m 1094 254 l 1094 401 l 658 401 l 658 254 l 1094 254 z "},"掌":{"ha":1367,"x_min":107,"x_max":1256,"o":"m 1144 221 l 746 221 l 746 132 l 1256 132 l 1256 54 l 746 54 l 746 25 q 733 -60 746 -31 q 688 -104 719 -90 q 596 -124 656 -118 l 456 -135 l 428 -54 l 569 -44 q 632 -26 617 -42 q 647 38 647 -10 l 647 54 l 107 54 l 107 132 l 647 132 l 647 221 l 221 221 l 221 294 l 647 294 l 647 386 q 175 372 342 374 l 171 447 q 669 462 374 450 q 1142 486 964 474 l 1149 410 q 746 390 990 399 l 746 294 l 1144 294 l 1144 221 m 136 936 l 385 936 q 313 1017 388 933 l 272 1063 l 346 1122 q 406 1057 376 1086 q 479 974 461 996 l 435 936 l 632 936 l 632 1124 l 733 1119 l 733 936 l 915 936 l 882 967 q 957 1044 915 1000 q 1022 1117 999 1088 l 1096 1061 q 982 936 1053 1010 l 1228 936 l 1228 697 l 1139 697 l 1139 854 l 224 854 l 224 699 l 136 699 l 136 936 m 308 771 l 1053 771 l 1053 539 l 308 539 l 308 771 m 964 614 l 964 696 l 401 696 l 401 614 l 964 614 z "},"控":{"ha":1367,"x_min":64,"x_max":1275,"o":"m 468 756 l 342 756 l 342 532 l 464 579 l 464 481 l 342 429 l 342 35 q 328 -53 342 -22 q 285 -97 315 -83 q 199 -118 256 -111 l 114 -128 l 88 -32 l 178 -24 q 233 0 218 -18 q 247 64 247 18 l 247 389 l 88 322 l 64 424 l 247 494 l 247 756 l 89 756 l 89 858 l 247 858 l 247 1108 l 342 1103 l 342 858 l 468 858 l 468 756 m 454 17 l 818 17 l 818 286 l 550 286 l 550 383 l 1190 383 l 1190 286 l 922 286 l 922 17 l 1275 17 l 1275 -82 l 454 -82 l 454 17 m 508 958 l 835 958 q 781 1103 799 1063 l 882 1125 q 919 1022 897 1088 l 943 958 l 1250 958 l 1250 690 l 1157 690 l 1157 860 l 1033 860 l 1033 650 q 1042 606 1033 618 q 1076 593 1051 593 l 1239 593 l 1229 508 l 1065 508 q 992 520 1017 508 q 957 558 967 532 q 949 636 947 585 l 949 860 l 835 860 q 801 684 825 753 q 719 563 776 615 q 557 472 663 511 l 515 549 q 654 620 606 579 q 724 717 703 661 q 751 860 744 772 l 606 860 l 606 692 l 508 692 l 508 958 z "},"揚":{"ha":1367,"x_min":71,"x_max":1286,"o":"m 515 753 l 356 753 l 356 558 l 483 628 l 500 529 l 356 450 l 356 42 q 343 -45 356 -15 q 301 -89 331 -75 q 218 -108 272 -103 l 119 -119 l 90 -26 l 196 -15 q 249 4 236 -11 q 263 64 263 19 l 263 401 q 97 321 154 346 l 71 414 q 263 510 125 439 l 263 753 l 100 753 l 100 847 l 263 847 l 263 1106 l 356 1100 l 356 847 l 515 847 l 515 753 m 396 215 q 522 335 458 263 q 632 485 585 408 l 504 485 l 504 565 l 1286 565 l 1286 485 l 732 485 q 678 400 711 446 l 1233 400 q 1199 42 1218 213 q 1158 -65 1190 -36 q 1053 -101 1125 -93 l 947 -111 l 918 -21 l 1026 -12 q 1090 9 1071 -10 q 1114 81 1108 28 q 1139 318 1131 225 l 1033 318 q 928 63 999 165 q 717 -142 858 -40 l 656 -76 q 803 43 747 -12 q 892 163 858 99 q 950 318 926 226 l 836 318 q 694 95 782 188 q 454 -90 607 3 l 399 -22 q 617 135 538 57 q 744 318 696 213 l 617 318 q 456 150 529 211 l 396 215 m 583 1058 l 1168 1058 l 1168 649 l 583 649 l 583 1058 m 1079 725 l 1079 815 l 671 815 l 671 725 l 1079 725 m 1079 889 l 1079 981 l 671 981 l 671 889 l 1079 889 z "},"攢":{"ha":1367,"x_min":71,"x_max":1275,"o":"m 1254 925 l 1085 925 l 1085 828 l 1274 828 l 1274 758 l 1117 758 l 1117 660 q 1122 630 1117 638 q 1142 621 1126 622 q 1183 621 1163 619 q 1203 631 1199 624 q 1211 661 1208 638 q 1213 717 1213 682 l 1275 693 q 1272 636 1275 692 q 1253 575 1268 592 q 1204 556 1239 558 q 1156 554 1188 554 q 1106 556 1122 554 q 1060 574 1072 558 q 1047 631 1047 590 l 1047 758 l 982 758 q 950 626 976 674 q 856 529 924 578 l 807 581 q 890 657 868 622 q 915 758 913 692 l 849 758 l 849 828 l 1006 828 l 1006 925 l 910 925 q 876 842 896 882 l 813 865 q 886 1097 861 961 l 953 1085 q 932 996 943 1038 l 1006 996 l 1006 1115 l 1085 1111 l 1085 996 l 1254 996 l 1254 925 m 71 432 q 229 514 126 457 l 229 767 l 96 767 l 96 861 l 229 861 l 229 1110 l 318 1104 l 318 861 l 414 861 l 414 767 l 318 767 l 318 564 l 400 613 l 410 544 q 482 610 458 582 q 515 670 506 638 q 526 758 524 703 l 449 758 l 449 828 l 624 828 l 624 925 l 526 925 q 492 840 514 886 l 428 868 q 475 982 454 921 q 507 1099 496 1043 l 574 1083 q 550 996 567 1047 l 624 996 l 624 1119 l 701 1115 l 701 996 l 817 996 l 817 925 l 701 925 l 701 828 l 822 828 l 822 758 l 747 758 l 747 657 l 801 685 l 840 704 l 849 643 l 726 586 q 686 561 703 574 l 658 613 q 674 631 671 622 q 676 649 676 639 l 676 758 l 599 758 q 585 647 596 689 q 547 572 574 606 q 464 492 519 538 l 410 543 l 414 510 l 318 454 l 318 35 q 292 -69 318 -39 q 200 -107 265 -100 l 108 -118 l 82 -21 l 172 -11 q 217 7 206 -8 q 229 61 229 22 l 229 404 l 204 390 q 150 362 183 379 q 94 335 117 344 l 71 432 m 385 -67 q 560 -6 461 -43 q 733 63 658 31 l 765 -11 q 593 -80 693 -43 q 411 -142 493 -117 l 385 -67 m 508 524 l 1163 524 l 1163 71 l 508 71 l 508 524 m 1071 139 l 1071 204 l 600 204 l 600 139 l 1071 139 m 1071 263 l 1071 332 l 600 332 l 600 263 l 1071 263 m 1071 392 l 1071 456 l 600 456 l 600 392 l 1071 392 m 939 64 q 1274 -67 1081 15 l 1243 -143 q 1087 -78 1185 -117 q 910 -11 989 -39 l 939 64 z "},"支":{"ha":1367,"x_min":74,"x_max":1283,"o":"m 1268 835 l 736 835 l 736 642 l 1078 642 l 1078 543 q 944 332 1017 421 q 772 169 872 243 q 1283 -15 964 60 l 1251 -124 q 922 -16 1063 -72 q 678 108 782 40 q 440 -6 578 49 q 110 -124 303 -61 l 74 -17 q 588 174 404 72 q 432 336 497 246 q 315 543 367 426 l 201 543 l 201 642 l 628 642 l 628 835 l 96 835 l 96 935 l 628 935 l 628 1115 l 736 1111 l 736 935 l 1268 935 l 1268 835 m 428 543 q 537 369 475 446 q 682 231 599 293 q 840 370 775 294 q 953 543 906 446 l 428 543 z "},"敦":{"ha":1367,"x_min":79,"x_max":1303,"o":"m 710 901 l 93 901 l 93 986 l 365 986 q 315 1100 340 1051 l 411 1128 q 471 986 449 1043 l 710 986 l 710 901 m 356 217 l 356 279 l 524 378 l 128 378 l 128 463 l 658 463 l 658 378 l 446 244 l 446 225 l 706 251 l 708 169 l 617 160 q 446 140 521 147 l 446 31 q 417 -79 446 -47 q 317 -118 389 -111 l 215 -129 l 190 -43 l 288 -35 q 342 -15 328 -31 q 356 44 356 1 l 356 132 q 86 106 263 121 l 79 190 l 356 217 m 153 801 l 638 801 l 638 556 l 153 556 l 153 801 m 547 632 l 547 726 l 243 726 l 243 632 l 547 632 m 558 -51 q 757 97 675 26 q 896 240 839 167 q 833 386 860 308 q 778 574 806 464 l 854 607 q 903 446 881 513 q 951 324 925 379 q 1035 526 1004 414 q 1085 796 1067 639 l 858 796 q 724 525 796 635 l 664 606 q 776 851 724 707 q 851 1122 829 996 l 946 1101 q 890 892 921 985 l 1275 892 l 1275 796 l 1175 796 q 1115 478 1154 613 q 1006 233 1075 343 q 1122 102 1051 168 q 1303 -47 1192 36 l 1242 -133 q 949 154 1044 18 q 615 -139 835 11 l 558 -51 z "},"斜":{"ha":1367,"x_min":58,"x_max":1300,"o":"m 619 642 l 446 642 l 446 479 l 682 479 l 682 385 l 446 385 l 446 31 q 417 -69 446 -39 q 325 -107 389 -100 l 225 -117 l 199 -26 l 294 -18 q 338 1 325 -15 q 350 57 350 18 l 350 385 l 93 385 l 93 479 l 350 479 l 350 642 l 175 642 l 175 707 q 104 646 151 685 l 58 739 q 243 922 157 817 q 376 1124 329 1026 l 475 1101 q 446 1044 461 1071 q 721 808 576 936 l 658 731 l 569 810 q 397 964 428 938 q 201 731 307 833 l 619 731 l 619 642 m 67 -3 q 129 156 99 67 q 178 319 160 246 l 264 296 q 214 133 246 224 q 150 -33 182 42 l 67 -3 m 583 318 q 704 8 642 181 l 619 -26 q 503 286 550 175 l 583 318 m 1046 331 l 1046 1111 l 1143 1107 l 1143 343 l 1292 363 l 1300 261 l 1143 240 l 1143 -136 l 1046 -136 l 1046 228 l 693 182 l 681 282 l 1046 331 m 760 674 l 979 474 l 914 397 q 870 438 893 417 q 824 482 847 460 q 697 601 749 554 l 760 674 m 794 999 q 974 831 828 969 l 999 807 l 933 729 q 828 835 889 776 q 731 928 768 894 l 794 999 z "},"新":{"ha":1367,"x_min":51,"x_max":1292,"o":"m 368 975 q 314 1103 349 1028 l 408 1129 q 471 975 453 1029 l 700 975 l 700 885 l 611 885 q 564 679 583 753 l 718 679 l 718 588 l 457 588 l 457 432 l 701 432 l 701 342 l 457 342 l 457 -132 l 363 -132 l 363 342 l 99 342 l 99 432 l 363 432 l 363 588 l 76 588 l 76 679 l 247 679 l 204 885 l 108 885 l 108 975 l 368 975 m 51 -43 q 199 281 140 90 l 281 256 q 215 80 254 169 q 129 -82 176 -10 l 51 -43 m 288 885 q 332 679 304 818 l 474 679 q 521 885 494 750 l 288 885 m 594 286 q 685 63 622 219 l 601 26 q 563 140 590 68 q 515 257 535 213 l 594 286 m 628 -92 q 728 83 696 0 q 770 273 760 167 q 781 563 781 379 l 781 979 q 1022 1019 899 992 q 1235 1079 1146 1046 l 1265 983 q 1081 928 1189 954 q 875 890 974 903 l 875 660 l 1292 660 l 1292 563 l 1149 563 l 1149 -135 l 1053 -135 l 1053 563 l 875 563 l 875 543 q 864 247 875 358 q 819 44 853 136 q 715 -153 785 -49 l 628 -92 z "},"斷":{"ha":1367,"x_min":128,"x_max":1296,"o":"m 808 528 l 211 528 l 211 3 l 733 3 l 733 -78 l 128 -78 l 128 1083 l 211 1078 l 211 606 l 808 606 l 808 528 m 233 322 q 265 349 251 331 q 307 424 281 372 q 349 517 333 476 l 411 486 q 367 398 393 447 q 324 325 340 349 q 403 340 350 329 q 458 443 444 415 l 513 408 l 474 343 q 338 131 376 179 l 439 150 l 421 225 l 468 239 q 494 144 474 224 q 517 63 506 94 l 461 46 l 453 88 q 310 65 365 75 q 260 56 276 60 l 249 125 q 282 151 267 133 q 363 272 314 188 l 293 263 l 253 254 l 233 322 m 243 915 q 263 933 256 922 q 272 944 271 943 q 317 1020 286 963 q 367 1118 349 1078 l 425 1086 q 378 996 406 1046 q 331 918 350 946 l 407 931 q 465 1029 446 993 l 519 993 q 429 847 483 929 q 342 722 375 764 q 447 746 378 729 l 442 775 q 433 815 436 806 l 482 831 q 522 646 511 715 l 464 633 l 457 682 l 307 654 q 287 650 299 653 q 263 646 275 647 l 249 719 q 281 743 267 724 q 365 864 308 774 l 301 856 l 260 847 l 243 915 m 501 319 q 531 343 521 328 q 607 490 551 369 q 619 517 615 510 l 674 485 l 656 449 q 588 324 606 350 l 668 339 q 726 446 710 413 l 781 410 q 697 264 746 343 q 615 143 649 185 q 719 168 668 158 l 697 236 l 750 254 q 806 79 760 228 l 750 61 l 738 107 l 635 89 l 592 81 q 536 69 536 69 l 521 136 q 541 146 533 139 q 554 160 549 153 q 631 275 589 206 l 551 264 l 517 257 l 501 319 m 515 904 q 543 933 531 915 q 586 1010 560 956 q 635 1114 613 1064 l 693 1081 q 648 992 675 1042 q 601 911 621 942 l 675 924 q 729 1026 697 963 l 785 988 q 704 844 754 928 q 624 722 654 761 q 731 744 658 731 q 704 818 714 796 l 756 839 q 790 746 771 800 q 817 658 808 692 l 761 638 l 749 681 q 592 654 688 672 l 547 647 l 533 721 q 563 740 553 729 q 639 860 586 771 q 561 846 592 853 l 532 842 l 515 904 m 751 -87 q 824 88 801 11 q 853 275 846 165 q 861 594 861 385 l 861 999 q 1238 1100 1075 1033 l 1269 1004 q 1118 951 1207 976 q 946 911 1029 926 l 946 668 l 1296 668 l 1296 575 l 1179 575 l 1179 -122 l 1090 -122 l 1090 575 l 946 575 q 935 254 944 375 q 901 45 925 133 q 832 -139 878 -43 l 751 -87 z "},"旁":{"ha":1367,"x_min":72,"x_max":1239,"o":"m 1210 886 l 964 886 q 904 714 946 826 l 1199 714 l 1199 513 l 1100 513 l 1100 625 l 228 625 l 228 513 l 131 513 l 131 714 l 411 714 l 368 886 l 117 886 l 117 976 l 626 976 l 576 1114 l 686 1131 q 729 1008 694 1107 l 740 976 l 1210 976 l 1210 886 m 72 -62 q 252 38 190 -8 q 342 142 314 85 q 379 290 369 199 l 388 369 l 89 369 l 89 461 l 628 461 l 590 567 l 696 583 q 724 508 707 561 l 740 461 l 1239 461 l 1239 369 l 490 369 l 482 292 l 478 250 l 1069 250 q 1042 54 1058 144 q 1008 -44 1029 -10 q 950 -93 988 -78 q 844 -112 913 -108 l 694 -124 l 667 -32 l 826 -24 q 907 -2 883 -21 q 940 74 931 17 l 949 114 l 957 161 l 458 161 q 358 -7 429 60 q 135 -150 286 -74 l 72 -62 m 510 714 l 803 714 q 861 886 838 806 l 465 886 l 510 714 z "},"旋":{"ha":1367,"x_min":63,"x_max":1299,"o":"m 1240 261 l 985 261 l 985 7 l 1028 3 q 1164 -1 1097 -1 q 1299 3 1232 -1 l 1282 -93 q 1158 -96 1242 -96 q 1033 -93 1075 -96 q 826 -43 908 -87 q 694 96 743 1 q 590 -139 663 -8 l 518 -82 q 622 155 590 35 q 663 464 654 275 l 749 458 q 729 254 742 331 q 790 111 750 165 q 894 29 829 57 l 894 618 l 647 618 l 647 713 l 1256 713 l 1256 614 l 1182 456 l 1101 486 l 1161 618 l 985 618 l 985 357 l 1240 357 l 1240 261 m 63 -85 q 174 215 142 65 q 207 606 207 365 l 206 813 l 86 813 l 86 910 l 304 910 q 244 1100 268 1036 l 339 1119 q 407 910 360 1065 l 556 910 l 556 813 l 297 813 l 297 618 l 526 618 q 499 54 519 365 q 463 -45 494 -17 q 367 -83 432 -74 l 278 -96 l 249 1 l 342 13 q 391 36 375 17 q 411 101 407 56 q 433 528 425 311 l 297 528 q 261 170 294 310 q 149 -133 228 31 l 63 -85 m 528 710 q 650 908 593 797 q 740 1124 707 1018 l 829 1097 q 778 964 813 1042 l 1279 964 l 1279 867 l 732 867 q 599 650 669 746 l 528 710 z "},"既":{"ha":1367,"x_min":115,"x_max":1254,"o":"m 1232 944 l 1015 944 l 1006 717 q 992 571 1001 632 l 1254 571 l 1254 476 l 976 476 q 951 381 967 426 l 1010 378 l 1010 58 q 1018 19 1010 28 q 1051 7 1026 10 l 1085 6 q 1133 8 1119 6 q 1153 22 1147 11 q 1163 60 1160 32 q 1165 201 1165 108 l 1253 176 l 1251 129 l 1247 26 q 1233 -45 1243 -21 q 1203 -79 1224 -69 q 1143 -92 1182 -89 q 1085 -94 1104 -94 q 1025 -92 1064 -94 q 940 -61 963 -87 q 917 36 917 -35 l 917 286 q 792 74 869 175 q 599 -133 715 -28 l 529 -56 q 763 197 683 75 q 879 476 842 319 l 664 476 l 664 569 l 718 944 l 647 944 l 647 1039 l 1232 1039 l 1232 944 m 115 13 q 142 41 136 28 q 149 78 149 54 l 149 1042 l 568 1042 l 568 417 l 239 417 l 239 78 q 461 199 306 111 l 388 328 l 464 371 q 544 231 499 315 q 626 75 590 146 l 551 28 q 508 111 546 40 l 389 50 l 231 -32 q 165 -72 196 -50 l 115 13 m 481 510 l 481 682 l 239 682 l 239 510 l 481 510 m 481 775 l 481 950 l 239 950 l 239 775 l 481 775 m 896 571 q 914 725 907 635 l 919 828 l 925 944 l 806 944 l 754 571 l 896 571 z "},"日":{"ha":1367,"x_min":249,"x_max":1126,"o":"m 1126 1028 l 1126 -125 l 1021 -125 l 1021 -29 l 354 -29 l 354 -126 l 249 -126 l 249 1028 l 1126 1028 m 1021 81 l 1021 458 l 354 458 l 354 81 l 1021 81 m 1021 564 l 1021 921 l 354 921 l 354 564 l 1021 564 z "},"昆":{"ha":1367,"x_min":188,"x_max":1253,"o":"m 1138 536 l 232 536 l 232 1054 l 1138 1054 l 1138 536 m 188 -29 q 226 -6 219 -18 q 233 35 233 7 l 233 489 l 331 485 l 331 347 l 675 347 l 675 257 l 331 257 l 331 11 l 674 110 l 678 10 l 635 -1 q 222 -118 396 -67 l 188 -29 m 1040 628 l 1040 750 l 328 750 l 328 628 l 1040 628 m 1040 840 l 1040 960 l 328 960 l 328 840 l 1040 840 m 733 493 l 829 489 l 829 346 l 1218 346 l 1218 260 l 829 260 l 829 83 q 835 30 829 47 q 854 6 840 13 q 897 -3 868 0 q 983 -7 942 -7 q 1072 -3 1029 -7 q 1120 6 1106 0 q 1141 26 1135 11 q 1151 72 1147 40 q 1158 151 1156 104 l 1253 131 q 1243 28 1251 110 q 1223 -44 1238 -19 q 1178 -80 1208 -68 q 1090 -96 1147 -92 q 968 -99 1050 -99 q 843 -96 885 -99 q 758 -61 782 -92 q 733 50 733 -31 l 733 493 z "},"明":{"ha":1367,"x_min":144,"x_max":1211,"o":"m 504 -81 q 624 92 586 17 q 676 275 663 168 q 690 581 690 382 l 690 1043 l 1211 1043 l 1211 63 q 1196 -37 1211 -3 q 1147 -88 1181 -72 q 1047 -112 1113 -104 l 933 -126 l 901 -25 l 1025 -15 q 1094 12 1075 -11 q 1114 88 1114 35 l 1114 292 l 778 292 q 720 56 763 151 q 590 -149 678 -39 l 504 -81 m 144 1011 l 550 1011 l 550 67 l 144 67 l 144 1011 m 458 169 l 458 507 l 236 507 l 236 169 l 458 169 m 458 608 l 458 910 l 236 910 l 236 608 l 458 608 m 1114 392 l 1114 618 l 789 618 l 789 533 q 786 392 789 478 l 1114 392 m 1114 715 l 1114 942 l 789 942 l 789 715 l 1114 715 z "},"星":{"ha":1367,"x_min":104,"x_max":1264,"o":"m 1138 579 l 258 579 l 258 1058 l 1138 1058 l 1138 579 m 104 225 q 333 557 250 376 l 425 522 q 382 439 413 494 l 660 439 l 660 547 l 761 543 l 761 439 l 1214 439 l 1214 353 l 761 353 l 761 228 l 1164 228 l 1164 142 l 761 142 l 761 3 l 1264 3 l 1264 -86 l 135 -86 l 135 3 l 660 3 l 660 142 l 282 142 l 282 228 l 660 228 l 660 353 l 329 353 q 175 157 263 251 l 104 225 m 1039 665 l 1039 781 l 357 781 l 357 665 l 1039 665 m 1039 858 l 1039 972 l 357 972 l 357 858 l 1039 858 z "},"是":{"ha":1367,"x_min":65,"x_max":1271,"o":"m 1246 375 l 732 375 l 732 235 l 1149 235 l 1149 146 l 732 146 l 732 -11 l 760 -12 q 1033 -21 900 -21 q 1271 -14 1136 -21 l 1253 -106 q 1026 -112 1125 -112 q 761 -104 897 -112 q 497 -53 596 -94 q 325 89 399 -11 q 142 -142 261 -39 l 65 -67 q 217 103 164 14 q 297 326 271 193 l 397 307 q 367 193 386 256 q 478 68 417 113 q 628 4 540 24 l 628 375 l 86 375 l 86 463 l 1246 463 l 1246 375 m 253 1057 l 1082 1057 l 1082 567 l 253 567 l 253 1057 m 978 653 l 978 772 l 358 772 l 358 653 l 978 653 m 978 851 l 978 969 l 358 969 l 358 851 l 978 851 z "},"智":{"ha":1367,"x_min":83,"x_max":1218,"o":"m 1218 1010 l 1218 522 l 778 522 l 778 1010 l 1218 1010 m 83 464 q 274 573 207 517 q 368 707 340 629 l 94 707 l 94 789 l 388 789 q 399 924 390 813 l 271 924 q 190 811 233 864 l 118 867 q 210 998 169 928 q 276 1129 251 1068 l 367 1107 q 319 1006 343 1050 l 690 1006 l 690 924 l 492 924 q 481 789 489 844 l 725 789 l 725 707 l 465 707 l 457 674 q 585 608 511 649 q 711 535 658 568 l 661 456 q 424 600 583 511 q 317 486 388 538 q 128 381 247 435 l 83 464 m 272 425 l 1119 425 l 1119 -139 l 1017 -139 l 1017 -72 l 374 -72 l 374 -142 l 272 -142 l 272 425 m 1017 11 l 1017 136 l 374 136 l 374 11 l 1017 11 m 1017 217 l 1017 340 l 374 340 l 374 217 l 1017 217 m 1124 614 l 1124 918 l 872 918 l 872 614 l 1124 614 z "},"暈":{"ha":1367,"x_min":96,"x_max":1274,"o":"m 1099 494 l 733 494 l 733 433 l 1106 433 l 1106 108 l 733 108 l 733 40 l 1274 40 l 1274 -28 l 733 -28 l 733 -139 l 639 -139 l 639 -28 l 96 -28 l 96 40 l 639 40 l 639 108 l 265 108 l 265 433 l 639 433 l 639 494 l 272 494 l 272 558 l 639 558 l 639 632 l 238 632 l 238 524 l 142 524 l 142 703 l 1228 703 l 1228 524 l 1133 524 l 1133 632 l 733 632 l 733 558 l 1099 558 l 1099 494 m 258 1068 l 1113 1068 l 1113 761 l 258 761 l 258 1068 m 1018 824 l 1018 885 l 353 885 l 353 824 l 1018 824 m 1018 942 l 1018 1006 l 353 1006 l 353 942 l 1018 942 m 639 169 l 639 242 l 361 242 l 361 169 l 639 169 m 639 301 l 639 372 l 361 372 l 361 301 l 639 301 m 1011 169 l 1011 242 l 733 242 l 733 169 l 1011 169 m 1011 301 l 1011 372 l 733 372 l 733 301 l 1011 301 z "},"曲":{"ha":1367,"x_min":165,"x_max":1199,"o":"m 575 892 l 789 892 l 789 1104 l 889 1100 l 889 892 l 1199 892 l 1199 -144 l 1100 -144 l 1100 -60 l 265 -60 l 265 -144 l 165 -144 l 165 892 l 476 892 l 476 1104 l 575 1100 l 575 892 m 476 35 l 476 371 l 265 371 l 265 35 l 476 35 m 476 468 l 476 800 l 265 800 l 265 468 l 476 468 m 789 35 l 789 371 l 575 371 l 575 35 l 789 35 m 789 468 l 789 800 l 575 800 l 575 468 l 789 468 m 1100 35 l 1100 371 l 889 371 l 889 35 l 1100 35 m 1100 468 l 1100 800 l 889 800 l 889 468 l 1100 468 z "},"最":{"ha":1367,"x_min":85,"x_max":1294,"o":"m 1219 338 q 1061 86 1156 190 q 1294 -42 1144 15 l 1254 -136 q 996 19 1093 -69 q 746 -137 888 -74 l 704 -53 q 933 86 840 11 q 799 343 854 185 l 732 343 l 732 425 l 1219 425 l 1219 338 m 85 597 l 1292 597 l 1292 514 l 657 514 l 657 -146 l 564 -146 l 564 -12 q 160 -62 497 -21 l 108 -68 l 104 15 l 214 26 l 214 514 l 85 514 l 85 597 m 263 1060 l 1118 1060 l 1118 665 l 1021 665 l 1021 979 l 358 979 l 358 665 l 263 665 l 263 1060 m 306 38 q 564 69 411 49 l 564 164 l 306 164 l 306 38 m 564 232 l 564 339 l 306 339 l 306 232 l 564 232 m 564 411 l 564 514 l 306 514 l 306 411 l 564 411 m 417 760 l 960 760 l 960 692 l 417 692 l 417 760 m 417 904 l 960 904 l 960 836 l 417 836 l 417 904 m 892 343 q 999 149 942 219 q 1119 343 1075 233 l 892 343 z "},"會":{"ha":1367,"x_min":61,"x_max":1303,"o":"m 1165 388 l 197 388 l 197 722 l 1165 722 l 1165 388 m 61 783 q 403 934 258 856 q 640 1107 547 1013 l 724 1107 q 961 936 817 1014 q 1303 788 1106 858 l 1272 696 q 926 850 1079 768 l 926 799 l 439 799 l 439 846 q 93 689 293 765 l 61 783 m 268 307 l 1096 307 l 1096 -139 l 1000 -139 l 1000 -89 l 364 -89 l 364 -139 l 268 -139 l 268 307 m 633 460 l 633 653 l 286 653 l 286 460 l 633 460 m 1000 -14 l 1000 78 l 364 78 l 364 -14 l 1000 -14 m 1000 146 l 1000 233 l 364 233 l 364 146 l 1000 146 m 418 644 q 484 582 446 619 q 546 517 522 544 l 492 467 l 457 503 q 367 597 433 526 l 418 644 m 888 872 q 683 1021 758 949 q 485 872 606 943 l 888 872 m 1076 460 l 1076 653 l 729 653 l 729 460 l 1076 460 m 815 513 q 943 642 868 558 l 994 597 q 931 528 969 568 q 865 464 892 488 l 815 513 z "},"月":{"ha":1367,"x_min":101,"x_max":1093,"o":"m 101 -87 q 224 95 185 15 q 276 278 263 175 q 289 567 289 381 l 289 1050 l 1093 1050 l 1093 74 q 1077 -34 1093 3 q 1024 -88 1061 -71 q 917 -112 988 -106 l 794 -124 l 763 -22 l 885 -12 q 969 13 949 -8 q 990 93 990 35 l 990 281 l 379 281 q 322 56 364 151 q 193 -153 279 -40 l 101 -87 m 990 376 l 990 611 l 392 611 l 392 556 q 388 376 392 456 l 990 376 m 990 706 l 990 951 l 392 951 l 392 706 l 990 706 z "},"期":{"ha":1367,"x_min":72,"x_max":1235,"o":"m 744 874 l 639 874 l 639 303 l 747 303 l 747 213 l 72 213 l 72 303 l 207 303 l 207 874 l 104 874 l 104 964 l 207 964 l 207 1101 l 299 1097 l 299 964 l 549 964 l 549 1101 l 639 1097 l 639 964 l 744 964 l 744 874 m 76 -62 q 190 54 133 -12 q 286 189 246 121 l 365 132 q 263 -10 321 61 q 151 -132 204 -81 l 76 -62 m 549 303 l 549 436 l 299 436 l 299 303 l 549 303 m 549 521 l 549 656 l 299 656 l 299 521 l 549 521 m 549 742 l 549 874 l 299 874 l 299 742 l 549 742 m 536 188 l 679 3 l 604 -53 q 461 133 499 86 l 536 188 m 640 -85 q 753 90 719 13 q 798 267 788 167 q 808 568 808 368 l 808 1042 l 1235 1042 l 1235 54 q 1221 -40 1235 -7 q 1176 -89 1207 -74 q 1088 -110 1144 -104 l 978 -121 l 949 -26 l 1069 -15 q 1126 8 1110 -12 q 1143 76 1143 29 l 1143 289 l 892 289 q 847 58 882 150 q 729 -146 811 -33 l 640 -85 m 1143 385 l 1143 614 l 899 614 l 899 521 q 897 385 899 426 l 1143 385 m 1143 710 l 1143 939 l 899 939 l 899 710 l 1143 710 z "},"木":{"ha":1367,"x_min":58,"x_max":1306,"o":"m 1246 756 l 783 756 q 1003 409 881 558 q 1306 124 1125 260 l 1235 25 q 946 319 1065 167 q 733 658 826 472 l 733 -140 l 632 -140 l 632 651 q 419 315 538 465 q 128 15 300 164 l 58 115 q 360 409 236 256 q 583 756 485 563 l 121 756 l 121 858 l 632 858 l 632 1115 l 733 1111 l 733 858 l 1246 858 l 1246 756 z "},"本":{"ha":1367,"x_min":58,"x_max":1308,"o":"m 1242 781 l 806 781 q 1014 434 893 588 q 1308 146 1135 281 l 1236 54 q 736 739 903 335 l 736 201 l 1019 201 l 1019 100 l 736 100 l 736 -146 l 629 -146 l 629 100 l 347 100 l 347 201 l 629 201 l 629 740 q 431 383 549 546 q 128 43 313 219 l 58 129 q 353 440 233 283 q 557 781 472 596 l 124 781 l 124 876 l 629 876 l 629 1111 l 736 1107 l 736 876 l 1242 876 l 1242 781 z "},"朱":{"ha":1367,"x_min":93,"x_max":1285,"o":"m 1258 463 l 815 463 q 1285 36 986 213 l 1224 -60 q 744 414 915 139 l 744 -136 l 643 -136 l 643 410 q 435 145 550 261 q 158 -76 321 29 l 93 14 q 575 463 401 200 l 114 463 l 114 557 l 643 557 l 643 792 l 363 792 q 263 608 319 692 l 176 663 q 360 1065 296 838 l 454 1040 q 403 886 438 981 l 643 886 l 643 1114 l 744 1110 l 744 886 l 1165 886 l 1165 792 l 744 792 l 744 557 l 1258 557 l 1258 463 z "},"束":{"ha":1367,"x_min":69,"x_max":1294,"o":"m 1251 881 l 732 881 l 732 728 l 1160 728 l 1160 350 l 790 350 q 999 164 876 249 q 1294 10 1122 79 l 1247 -86 q 947 83 1072 -8 q 732 288 822 175 l 732 -137 l 631 -137 l 631 286 q 416 81 540 172 q 115 -89 292 -10 l 69 7 q 365 164 242 79 q 576 350 489 249 l 204 350 l 204 728 l 631 728 l 631 881 l 113 881 l 113 979 l 631 979 l 631 1114 l 732 1110 l 732 979 l 1251 979 l 1251 881 m 631 440 l 631 635 l 304 635 l 304 440 l 631 440 m 1058 440 l 1058 635 l 732 635 l 732 440 l 1058 440 z "},"杼":{"ha":1367,"x_min":36,"x_max":1278,"o":"m 558 754 l 372 754 l 372 596 l 408 626 q 491 521 438 594 q 578 396 544 447 l 508 326 q 447 426 486 367 q 372 529 407 486 l 372 -136 l 278 -136 l 278 563 q 106 192 203 361 l 36 267 q 265 754 190 507 l 89 754 l 89 853 l 278 853 l 278 1124 l 372 1118 l 372 853 l 558 853 l 558 754 m 549 600 l 869 600 q 658 817 726 754 l 719 881 q 890 715 788 825 q 1082 919 928 753 l 1108 947 l 583 947 l 583 1050 l 1235 1050 l 1235 943 q 1104 801 1193 894 q 953 646 1015 708 l 992 600 l 1278 600 l 1278 501 l 1169 256 l 1075 279 l 1176 499 l 953 499 l 953 56 q 938 -42 953 -8 q 890 -90 924 -75 q 790 -111 856 -106 l 657 -125 l 624 -18 l 763 -8 q 819 3 800 -6 q 845 31 838 11 q 853 93 853 51 l 853 499 l 549 499 l 549 600 z "},"枕":{"ha":1367,"x_min":51,"x_max":1281,"o":"m 350 850 l 500 850 l 500 753 l 350 753 l 350 579 l 389 617 q 478 519 425 581 q 563 418 532 458 l 497 344 q 431 432 472 381 q 350 525 389 483 l 350 -140 l 257 -140 l 257 531 q 115 196 200 353 l 51 269 q 167 510 117 385 q 246 753 217 635 l 100 753 l 100 850 l 257 850 l 257 1122 l 350 1118 l 350 850 m 439 -62 q 653 189 574 64 q 772 460 733 314 q 818 803 810 606 l 642 803 l 642 590 l 549 590 l 549 897 l 821 897 l 826 1113 l 922 1108 l 917 897 l 1225 897 l 1225 589 l 1135 589 l 1135 803 l 913 803 q 893 586 908 694 l 965 583 l 965 82 q 971 31 965 47 q 990 8 976 15 q 1031 -1 1003 1 q 1074 -4 1058 -4 q 1117 -1 1089 -4 q 1162 9 1147 3 q 1183 32 1176 15 q 1192 82 1189 49 q 1194 183 1194 126 l 1196 242 l 1281 218 q 1276 60 1281 150 q 1259 -33 1272 -1 q 1217 -78 1246 -64 q 1136 -96 1189 -92 q 1068 -99 1092 -99 q 1000 -96 1044 -99 q 901 -58 929 -92 q 872 67 872 -24 l 872 472 q 744 143 831 290 q 511 -140 657 -4 l 439 -62 z "},"柱":{"ha":1367,"x_min":43,"x_max":1282,"o":"m 367 853 l 504 853 l 504 753 l 367 753 l 367 581 l 401 611 q 469 531 429 581 q 538 440 510 481 l 468 365 q 367 508 418 447 l 367 -135 l 268 -135 l 268 507 q 111 189 197 322 l 43 271 q 171 504 111 376 q 267 753 231 632 l 100 753 l 100 853 l 268 853 l 268 1111 l 367 1107 l 367 853 m 481 18 l 846 18 l 846 379 l 579 379 l 579 482 l 846 482 l 846 782 l 557 782 l 557 883 l 1253 883 l 1253 782 l 947 782 l 947 482 l 1213 482 l 1213 379 l 947 379 l 947 18 l 1282 18 l 1282 -82 l 481 -82 l 481 18 m 882 1132 l 953 981 l 979 924 l 882 885 q 790 1094 853 963 l 882 1132 z "},"根":{"ha":1367,"x_min":53,"x_max":1286,"o":"m 351 853 l 519 853 l 519 756 l 351 756 l 351 586 l 379 614 q 458 526 411 582 q 533 433 506 471 l 468 363 q 351 515 424 436 l 351 -128 l 257 -128 l 257 526 q 118 210 196 346 l 53 286 q 165 511 113 386 q 249 756 217 636 l 85 756 l 85 853 l 257 853 l 257 1117 l 351 1113 l 351 853 m 524 -44 q 555 -22 547 -32 q 563 10 563 -11 l 563 1050 l 1168 1050 l 1168 454 l 657 454 l 657 11 q 836 94 694 26 l 888 118 l 907 19 l 754 -47 l 639 -97 q 569 -135 590 -121 l 524 -44 m 1074 543 l 1074 701 l 657 701 l 657 543 l 1074 543 m 1074 792 l 1074 958 l 657 958 l 657 792 l 1074 792 m 857 433 q 944 254 903 317 q 1171 424 1067 335 l 1225 351 q 999 183 1124 265 q 1119 83 1049 128 q 1286 -1 1189 38 l 1229 -89 q 1012 44 1096 -24 q 873 196 928 111 q 775 401 818 281 l 857 433 z "},"梁":{"ha":1367,"x_min":85,"x_max":1285,"o":"m 436 633 q 301 501 386 581 q 165 381 217 422 l 114 456 q 254 576 169 499 q 383 703 339 654 l 436 633 m 85 -21 q 304 65 214 19 q 489 181 394 110 l 544 107 q 355 -10 450 39 q 125 -112 260 -58 l 85 -21 m 128 913 q 235 855 169 894 q 349 783 301 815 l 311 707 q 209 772 275 732 q 94 840 143 813 l 128 913 m 113 332 l 632 332 l 632 460 l 733 454 l 733 332 l 1253 332 l 1253 240 l 733 240 l 733 -140 l 632 -140 l 632 240 l 113 240 l 113 332 m 228 1104 q 337 1040 271 1081 q 440 972 403 999 l 403 896 q 296 968 363 925 q 189 1032 229 1011 l 228 1104 m 379 500 q 539 586 476 543 q 640 692 601 629 q 457 833 544 772 l 500 899 q 678 769 585 847 q 706 899 697 829 l 713 958 l 500 958 l 500 1047 l 1129 1047 l 1113 857 q 1207 765 1154 818 q 1285 682 1260 711 l 1228 617 q 1103 751 1179 675 l 1090 629 q 1067 533 1083 567 q 1020 485 1051 500 q 929 464 989 469 l 808 453 l 782 539 l 899 547 q 974 574 954 551 q 1003 663 994 597 q 1033 958 1019 794 l 803 958 q 793 893 796 908 q 732 669 775 754 q 617 528 689 583 q 425 415 546 472 l 379 500 m 858 181 q 1282 -35 1067 93 l 1231 -118 q 819 104 1018 21 l 858 181 z "},"條":{"ha":1367,"x_min":56,"x_max":1296,"o":"m 411 94 l 411 931 l 500 926 l 500 94 l 411 94 m 56 481 q 199 790 136 628 q 300 1111 261 953 l 388 1094 q 303 821 350 947 l 303 -133 l 215 -133 l 215 611 q 110 408 168 513 l 56 481 m 494 -47 q 610 88 554 13 q 707 240 665 164 l 782 200 q 565 -101 693 35 l 494 -47 m 528 782 q 790 1117 692 928 l 871 1088 q 817 996 832 1019 l 1258 996 l 1258 911 l 1161 911 q 982 686 1085 774 q 1122 621 1047 647 q 1293 572 1196 594 l 1264 483 q 1058 548 1144 514 q 906 626 972 582 q 561 472 772 536 l 531 556 q 833 682 706 601 q 718 808 771 738 l 783 860 q 910 735 840 789 q 1061 911 1006 811 l 758 911 q 588 721 692 822 l 528 782 m 572 385 l 865 385 l 865 517 l 956 513 l 956 385 l 1253 385 l 1253 297 l 956 297 l 956 -122 l 865 -122 l 865 297 l 572 297 l 572 385 m 1094 240 q 1195 109 1131 199 q 1296 -37 1260 19 l 1218 -86 q 1126 54 1186 -33 q 1026 193 1067 142 l 1094 240 z "},"椎":{"ha":1367,"x_min":50,"x_max":1293,"o":"m 357 860 l 513 860 l 513 761 l 357 761 l 357 567 l 403 601 q 472 511 432 565 q 533 418 511 457 l 467 357 q 416 441 447 394 q 357 524 385 488 l 357 -132 l 261 -132 l 261 522 q 118 211 199 349 l 50 288 q 165 506 111 379 q 256 761 219 633 l 88 761 l 88 860 l 261 860 l 261 1115 l 357 1111 l 357 860 m 471 625 q 599 855 542 724 q 690 1125 657 986 l 789 1101 q 724 901 764 1006 l 965 901 q 894 1099 910 1063 l 986 1125 l 1065 901 l 1274 901 l 1274 808 l 1036 808 l 1036 615 l 1250 615 l 1250 526 l 1036 526 l 1036 325 l 1250 325 l 1250 235 l 1036 235 l 1036 38 l 1293 38 l 1293 -57 l 706 -57 l 706 -136 l 608 -136 l 608 664 q 518 529 558 581 l 471 625 m 940 38 l 940 235 l 706 235 l 706 38 l 940 38 m 940 325 l 940 526 l 706 526 l 706 325 l 940 325 m 940 615 l 940 808 l 706 808 l 706 615 l 940 615 z "},"極":{"ha":1367,"x_min":54,"x_max":1286,"o":"m 1286 -82 l 438 -82 l 438 10 l 1286 10 l 1286 -82 m 54 293 q 160 504 110 383 q 244 749 210 625 l 82 749 l 82 847 l 247 847 l 247 1110 l 338 1106 l 338 847 l 471 847 l 471 749 l 338 749 l 338 581 l 372 610 q 439 522 394 583 q 506 425 483 460 l 506 717 l 756 717 l 756 244 l 506 244 l 506 415 l 442 363 q 338 517 401 431 l 338 -139 l 247 -139 l 247 496 q 115 203 189 331 l 54 293 m 461 1063 l 1251 1063 l 1251 972 l 792 972 l 718 865 l 917 865 l 917 206 q 892 124 917 150 q 817 92 868 97 l 697 79 l 672 160 l 776 171 q 821 188 808 174 q 833 235 833 201 l 833 790 l 601 790 l 601 860 q 688 972 660 931 l 461 972 l 461 1063 m 683 331 l 683 625 l 579 625 l 579 331 l 683 331 m 931 185 q 1067 383 1011 281 q 957 551 994 497 l 1018 596 l 1036 569 q 1107 464 1065 528 q 1172 656 1147 561 l 975 656 l 975 743 l 1253 743 l 1253 656 q 1157 386 1217 508 q 1282 185 1228 279 l 1215 138 q 1115 304 1192 181 q 994 125 1061 208 l 931 185 z "},"榮":{"ha":1367,"x_min":94,"x_max":1264,"o":"m 1157 267 l 732 267 l 732 -135 l 632 -135 l 632 267 l 207 267 l 207 357 l 632 357 l 632 467 l 732 461 l 732 357 l 1157 357 l 1157 267 m 94 -12 q 297 90 213 38 q 472 221 382 143 l 529 154 q 347 16 440 76 q 135 -103 254 -44 l 94 -12 m 142 601 l 1224 601 l 1224 388 l 1121 388 l 1121 511 l 246 511 l 246 388 l 142 388 l 142 601 m 215 1049 q 275 968 238 1021 q 332 883 313 915 l 264 836 q 150 1006 231 894 l 215 1049 m 154 683 q 285 767 239 725 q 352 861 332 808 q 372 992 372 914 l 372 1117 l 468 1111 l 468 989 q 458 882 468 926 q 661 697 594 763 l 606 631 q 429 801 538 699 q 348 699 401 744 q 208 607 294 653 l 154 683 m 496 883 q 551 966 518 914 q 600 1049 583 1018 l 671 1014 q 621 930 654 983 q 561 839 588 876 l 496 883 m 753 1050 q 779 1008 785 1000 q 815 952 793 986 q 858 879 836 918 l 788 836 q 732 928 774 861 q 682 1010 699 981 l 753 1050 m 696 693 q 828 776 783 738 q 889 863 872 814 q 906 992 906 911 l 906 1115 l 1000 1111 l 999 988 q 985 868 999 919 l 1044 817 q 1114 758 1065 799 q 1196 686 1163 717 l 1138 614 q 953 790 1054 699 q 876 704 925 744 q 749 619 826 664 l 696 693 m 858 218 q 1264 -29 1096 92 l 1210 -110 q 814 147 1047 19 l 858 218 m 1028 875 q 1094 963 1058 914 q 1151 1043 1131 1011 l 1222 1000 q 1167 919 1206 972 q 1097 828 1128 865 l 1028 875 z "},"樞":{"ha":1367,"x_min":50,"x_max":1274,"o":"m 238 -126 l 238 531 q 110 211 188 354 l 50 288 q 233 750 178 524 l 93 750 l 93 842 l 238 842 l 238 1108 l 332 1104 l 332 842 l 461 842 l 461 750 l 332 750 l 332 597 l 360 621 q 427 542 389 592 q 493 450 465 492 l 426 388 q 332 524 382 458 l 332 -126 l 238 -126 m 454 1024 l 1263 1024 l 1263 933 l 599 933 l 599 144 q 609 57 599 88 q 647 13 619 26 q 726 0 674 0 l 1274 0 l 1265 -86 l 736 -86 q 598 -66 647 -86 q 528 4 549 -46 q 507 147 507 54 l 507 933 l 454 933 l 454 1024 m 663 454 l 913 454 l 913 114 l 663 114 l 663 454 m 724 832 l 1158 832 l 1158 546 l 724 546 l 724 832 m 843 186 l 843 378 l 735 378 l 735 186 l 843 186 m 1075 622 l 1075 757 l 808 757 l 808 622 l 1075 622 m 979 454 l 1228 454 l 1228 114 l 979 114 l 979 454 m 1157 186 l 1157 378 l 1050 378 l 1050 186 l 1157 186 z "},"機":{"ha":1367,"x_min":49,"x_max":1293,"o":"m 1293 325 l 960 325 q 1011 157 981 229 q 1150 303 1089 222 l 1207 256 q 1043 82 1131 153 l 1053 64 q 1106 -8 1081 14 q 1151 -31 1132 -31 q 1184 -13 1172 -31 q 1206 56 1196 4 q 1222 158 1215 103 l 1292 128 q 1275 21 1283 65 q 1231 -96 1260 -62 q 1158 -129 1203 -129 q 978 32 1061 -129 q 696 -118 860 -51 l 656 -36 q 942 106 819 22 q 875 325 899 204 l 656 325 l 651 271 q 825 149 796 172 l 785 79 q 636 189 756 103 q 571 19 615 100 q 457 -147 526 -62 l 385 -81 q 519 113 476 19 q 568 325 563 206 l 446 325 l 446 408 l 858 408 q 813 1129 818 660 l 900 1124 q 913 704 903 875 q 944 408 924 533 l 1088 408 q 1043 500 1056 476 l 1119 522 q 1156 450 1126 511 l 1176 408 l 1293 408 l 1293 325 m 49 292 q 153 510 104 388 q 233 751 203 633 l 82 751 l 82 847 l 235 847 l 235 1110 l 325 1106 l 325 847 l 440 847 l 440 751 l 325 751 l 325 604 l 361 635 q 479 485 426 558 l 419 428 q 325 561 371 504 l 325 -133 l 235 -133 l 235 507 q 110 225 178 344 l 49 292 m 458 825 q 478 834 471 829 q 492 847 485 839 q 549 956 511 878 q 613 1094 586 1033 l 682 1067 q 622 945 660 1018 q 563 835 585 872 l 668 856 l 694 906 l 725 963 l 788 928 q 677 741 738 839 q 581 597 617 643 l 721 622 l 690 721 l 751 742 l 782 644 q 819 522 815 540 l 758 504 l 742 557 l 551 522 q 488 511 511 517 l 468 588 q 514 617 494 597 q 621 775 551 660 q 532 760 572 768 q 476 751 492 754 l 458 825 m 919 838 q 951 864 938 846 q 1008 978 971 899 q 1067 1111 1046 1058 l 1135 1082 q 1074 954 1108 1025 q 1017 844 1039 883 q 1124 864 1046 849 l 1188 988 l 1251 954 q 1153 779 1215 881 q 1047 619 1092 678 q 1190 643 1117 629 q 1158 738 1169 710 l 1218 758 q 1256 649 1236 710 q 1292 538 1276 589 l 1231 515 l 1213 576 l 1013 543 q 964 533 985 539 l 943 613 q 986 646 971 624 q 1082 790 1017 685 l 1044 785 q 997 778 1010 779 q 965 772 979 774 q 940 767 951 769 l 919 838 z "},"橫":{"ha":1367,"x_min":51,"x_max":1304,"o":"m 1285 588 l 479 588 l 479 668 l 1285 668 l 1285 588 m 51 279 q 169 512 115 383 q 258 764 224 640 l 103 764 l 103 860 l 263 860 l 263 1114 l 351 1110 l 351 860 l 485 860 l 485 764 l 351 764 l 351 594 l 388 628 q 519 460 456 550 l 456 403 q 351 544 406 478 l 351 -133 l 263 -133 l 263 526 q 117 215 200 354 l 51 279 m 424 -62 q 604 0 501 -42 q 772 82 707 42 l 815 6 q 642 -80 742 -37 q 463 -144 543 -122 l 424 -62 m 503 989 l 665 989 l 665 1114 l 757 1110 l 757 989 l 985 989 l 985 1114 l 1072 1110 l 1072 989 l 1260 989 l 1260 908 l 1072 908 l 1072 744 l 665 744 l 665 908 l 503 908 l 503 989 m 542 511 l 1197 511 l 1197 103 l 542 103 l 542 511 m 828 181 l 828 271 l 631 271 l 631 181 l 828 181 m 828 346 l 828 433 l 631 433 l 631 346 l 828 346 m 985 821 l 985 908 l 757 908 l 757 821 l 985 821 m 1108 181 l 1108 271 l 913 271 l 913 181 l 1108 181 m 1108 346 l 1108 433 l 913 433 l 913 346 l 1108 346 m 968 79 q 1149 7 1049 50 q 1304 -67 1249 -36 l 1267 -149 q 1101 -64 1204 -111 q 928 6 997 -17 l 968 79 z "},"次":{"ha":1367,"x_min":76,"x_max":1299,"o":"m 410 574 q 671 1115 582 818 l 775 1093 q 707 906 742 988 l 1256 906 l 1256 808 q 1086 510 1179 672 l 1001 561 l 1139 803 l 663 803 q 496 513 589 646 l 410 574 m 490 300 l 497 199 l 83 169 l 76 271 l 490 300 m 121 878 l 451 878 l 451 776 l 121 776 l 121 878 m 313 -53 q 570 138 474 42 q 712 346 667 233 q 757 601 757 458 l 756 722 l 860 717 l 858 590 l 857 554 q 988 217 879 361 q 1299 -43 1096 74 l 1236 -143 q 969 78 1072 -40 q 817 339 867 196 q 376 -147 721 60 l 313 -53 z "},"止":{"ha":1367,"x_min":82,"x_max":1279,"o":"m 1279 -76 l 82 -76 l 82 25 l 301 25 l 301 882 l 406 876 l 406 25 l 699 25 l 699 1118 l 807 1114 l 807 714 l 1213 714 l 1213 606 l 807 606 l 807 25 l 1279 25 l 1279 -76 z "},"正":{"ha":1367,"x_min":76,"x_max":1289,"o":"m 1289 -74 l 76 -74 l 76 32 l 283 32 l 283 721 l 388 717 l 388 32 l 685 32 l 685 906 l 143 906 l 143 1011 l 1244 1011 l 1244 906 l 793 906 l 793 564 l 1200 564 l 1200 458 l 793 458 l 793 32 l 1289 32 l 1289 -74 z "},"步":{"ha":1367,"x_min":88,"x_max":1276,"o":"m 1276 531 l 761 531 l 761 176 l 654 176 l 654 531 l 88 531 l 88 635 l 297 635 l 297 1003 l 403 999 l 403 635 l 642 635 l 642 1108 l 747 1104 l 747 936 l 1181 936 l 1181 838 l 747 838 l 747 635 l 1276 635 l 1276 531 m 101 181 q 274 325 190 244 q 415 483 358 406 l 497 413 q 351 251 440 336 q 169 94 263 165 l 101 181 m 118 -39 q 564 56 383 -6 q 869 213 744 118 q 1100 450 993 307 l 1181 378 q 922 122 1057 224 q 601 -44 786 21 q 153 -143 415 -110 l 118 -39 z "},"歷":{"ha":1367,"x_min":63,"x_max":1288,"o":"m 1201 135 l 868 135 l 868 -3 l 1288 -3 l 1288 -94 l 264 -94 l 264 -3 l 474 -3 l 474 264 l 568 260 l 568 -3 l 775 -3 l 775 322 l 868 318 l 868 219 l 1201 219 l 1201 135 m 63 -94 q 146 111 119 24 q 182 299 172 199 q 192 564 192 399 l 192 1043 l 1271 1043 l 1271 950 l 286 950 l 286 553 q 276 282 286 390 q 237 75 265 174 q 153 -140 208 -24 l 63 -94 m 303 376 q 496 601 426 472 l 336 601 l 336 679 l 522 679 l 522 786 q 357 768 403 772 l 351 846 q 546 867 436 853 q 738 899 656 882 l 749 821 q 607 799 672 807 l 607 679 l 761 679 l 761 601 l 607 601 l 607 514 l 650 564 q 767 467 717 513 l 711 407 q 629 482 675 443 l 607 501 l 607 310 l 522 310 l 522 513 q 353 310 458 404 l 303 376 m 750 401 q 933 601 861 483 l 807 601 l 807 679 l 967 679 l 967 783 q 813 767 910 776 l 804 844 q 1012 867 894 851 q 1213 903 1129 883 l 1222 825 q 1050 796 1140 807 l 1050 679 l 1250 679 l 1250 601 l 1050 601 l 1050 519 l 1088 569 q 1276 411 1174 503 l 1226 347 q 1050 510 1122 450 l 1050 310 l 967 310 l 967 531 q 799 340 896 418 l 750 401 z "},"歸":{"ha":1367,"x_min":63,"x_max":1317,"o":"m 1317 824 l 1197 824 l 1197 661 l 651 661 l 651 738 l 1111 738 l 1111 824 l 596 824 l 596 897 l 1111 897 l 1111 985 l 651 985 l 651 1061 l 1197 1061 l 1197 897 l 1317 897 l 1317 824 m 136 17 l 136 338 l 218 333 l 218 28 l 325 40 l 325 408 l 142 408 l 142 1007 l 285 1007 q 321 1122 307 1071 l 414 1111 q 397 1060 408 1099 l 379 1007 l 549 1007 l 549 750 l 225 750 l 225 661 l 544 661 l 544 408 l 407 408 l 407 282 l 567 282 l 567 210 l 407 210 l 407 51 l 564 74 l 564 -12 l 421 -31 q 68 -75 174 -64 l 63 8 l 136 17 m 464 479 l 464 590 l 225 590 l 225 479 l 464 479 m 465 822 l 465 935 l 225 935 l 225 822 l 465 822 m 617 569 l 1265 569 l 1265 386 l 1183 386 l 1183 490 l 981 490 l 981 357 l 1206 357 l 1206 90 q 1184 -6 1206 22 q 1107 -37 1163 -33 l 1043 -42 l 1019 39 l 1074 43 q 1113 59 1101 44 q 1125 111 1125 74 l 1125 274 l 981 274 l 981 -136 l 889 -136 l 889 274 l 746 274 l 746 -35 l 664 -35 l 664 357 l 889 357 l 889 490 l 699 490 l 699 383 l 617 383 l 617 569 z "},"殷":{"ha":1367,"x_min":63,"x_max":1300,"o":"m 63 -92 q 138 61 114 -7 q 172 220 163 129 q 181 469 181 311 l 181 1025 q 419 1051 292 1032 q 651 1094 546 1069 l 672 1007 q 479 969 592 988 q 268 942 367 951 l 268 850 l 625 850 l 625 417 l 268 417 q 267 314 268 346 l 628 314 q 611 117 625 254 l 607 76 q 583 -23 600 13 q 535 -74 567 -58 q 446 -96 503 -90 l 328 -106 l 304 -21 l 418 -14 q 490 11 468 -11 q 518 94 513 33 q 532 229 529 185 l 263 229 q 228 42 254 122 q 142 -143 201 -37 l 63 -92 m 536 493 l 536 596 l 268 596 l 268 493 l 536 493 m 536 668 l 536 771 l 268 771 l 268 668 l 536 668 m 622 -47 q 903 136 789 38 q 731 463 793 269 l 688 463 l 688 554 l 1218 554 l 1218 463 q 1033 131 1165 276 q 1300 -40 1135 35 l 1251 -133 q 968 64 1086 -50 q 675 -139 851 -44 l 622 -47 m 672 653 q 755 765 735 715 q 775 901 775 814 l 775 1047 l 1143 1047 l 1143 794 q 1155 750 1143 761 q 1197 739 1167 739 l 1288 739 l 1274 646 l 1161 646 q 1080 668 1106 646 q 1054 753 1054 690 l 1054 954 l 857 954 l 857 871 q 834 719 857 778 q 747 594 811 660 l 672 653 m 822 463 q 968 197 875 308 q 1124 463 1081 318 l 822 463 z "},"氏":{"ha":1367,"x_min":193,"x_max":1276,"o":"m 193 -18 q 222 10 214 -3 q 229 44 229 22 l 229 978 q 717 1010 451 983 q 1168 1071 982 1036 l 1189 967 q 811 917 1039 940 q 835 576 815 736 l 1268 576 l 1268 475 l 850 475 q 982 81 892 222 q 1096 -7 1039 -7 q 1131 10 1118 -7 q 1157 71 1144 26 q 1188 214 1181 169 l 1276 165 q 1236 8 1265 107 q 1180 -91 1217 -60 q 1096 -122 1143 -122 q 904 8 993 -122 q 744 475 793 172 l 326 475 l 326 39 q 682 179 429 78 l 703 69 q 336 -74 511 -1 q 303 -87 318 -81 q 274 -100 288 -94 q 243 -114 268 -103 l 193 -18 m 732 576 q 708 906 715 710 q 326 878 489 885 l 326 576 l 732 576 z "},"氣":{"ha":1367,"x_min":68,"x_max":1299,"o":"m 1239 929 l 353 929 q 122 651 247 768 l 68 736 q 228 919 149 808 q 356 1132 308 1031 l 451 1103 q 406 1014 426 1051 l 1239 1014 l 1239 929 m 78 -11 q 421 206 288 69 l 475 147 q 308 8 401 71 q 119 -97 215 -56 l 78 -11 m 118 331 l 508 331 l 508 551 l 604 546 l 604 331 l 965 331 l 965 242 l 604 242 l 604 -136 l 508 -136 l 508 242 l 118 242 l 118 331 m 186 671 l 1094 671 l 1094 483 q 1122 89 1094 225 q 1164 6 1138 6 q 1190 23 1179 6 q 1208 92 1200 40 q 1226 201 1218 139 l 1299 167 q 1265 3 1285 83 q 1226 -93 1253 -57 q 1164 -129 1200 -129 q 1097 -97 1128 -129 q 1047 -8 1065 -65 q 1010 172 1021 76 q 999 433 999 267 l 999 589 l 186 589 l 186 671 m 265 547 q 349 475 299 521 q 429 397 399 429 l 372 336 q 211 486 322 386 l 265 547 m 310 842 l 1167 842 l 1167 764 l 310 764 l 310 842 m 674 196 q 833 96 738 157 q 985 -7 928 35 l 936 -81 q 788 22 879 -39 q 629 125 697 82 l 674 196 m 681 399 q 844 546 779 479 l 901 490 q 735 339 824 413 l 681 399 z "},"水":{"ha":1367,"x_min":60,"x_max":1303,"o":"m 531 682 q 396 318 490 489 q 133 -24 301 147 l 60 60 q 303 357 213 207 q 436 679 393 507 l 106 679 l 106 781 l 531 781 l 531 682 m 539 -15 q 610 10 592 -11 q 628 86 628 31 l 628 1111 l 733 1107 l 733 925 q 842 624 781 753 q 1001 771 919 692 q 1143 918 1083 850 l 1215 839 q 1056 682 1144 764 q 888 535 968 600 q 1063 296 961 404 q 1303 85 1164 188 l 1233 -12 q 924 303 1040 146 q 733 671 807 461 l 733 43 q 718 -52 733 -18 q 669 -102 703 -86 q 575 -124 636 -118 l 429 -136 l 397 -25 l 539 -15 z "},"池":{"ha":1367,"x_min":64,"x_max":1281,"o":"m 192 1069 q 428 881 250 1026 l 371 796 q 136 989 274 878 l 192 1069 m 121 758 l 368 564 l 310 476 l 239 533 q 64 674 129 624 l 121 758 m 101 -86 q 301 390 258 276 l 392 351 l 193 -129 l 101 -86 m 506 664 l 506 989 l 603 983 l 603 694 l 786 753 l 786 1107 l 883 1101 l 883 785 l 1185 881 q 1140 286 1167 558 l 1050 286 q 1086 751 1072 501 l 883 686 l 883 129 l 786 129 l 786 654 l 603 596 l 603 121 q 611 44 603 69 q 644 6 619 18 q 719 -12 668 -7 q 881 -22 796 -22 q 1053 -12 971 -22 q 1130 4 1104 -7 q 1165 36 1156 15 q 1176 99 1174 57 q 1179 219 1179 139 l 1281 190 q 1274 58 1279 135 q 1253 -36 1269 -3 q 1197 -87 1236 -69 q 1083 -111 1157 -104 q 886 -121 992 -121 q 688 -111 781 -121 q 579 -85 618 -104 q 523 -24 540 -65 q 506 89 506 17 l 506 564 l 407 532 l 385 625 l 506 664 z "},"污":{"ha":1367,"x_min":78,"x_max":1286,"o":"m 213 1090 q 338 1003 263 1058 q 454 913 414 947 l 396 826 q 275 921 346 868 q 157 1003 204 974 l 213 1090 m 133 779 q 400 586 214 728 l 339 496 q 210 599 289 539 q 78 694 132 658 l 133 779 m 133 -79 q 324 394 249 181 l 421 356 q 229 -122 336 119 l 133 -79 m 444 706 l 1286 706 l 1286 606 l 714 606 l 678 425 l 1168 425 q 1138 99 1161 331 l 1135 68 q 1106 -36 1126 0 q 1044 -88 1086 -72 q 925 -110 1003 -104 l 726 -125 l 696 -24 l 896 -11 q 974 2 947 -8 q 1015 36 1001 13 q 1033 106 1028 60 q 1057 325 1049 228 l 554 325 l 608 606 l 444 606 l 444 706 m 528 1021 l 1201 1021 l 1201 919 l 528 919 l 528 1021 z "},"沖":{"ha":1367,"x_min":78,"x_max":1238,"o":"m 1238 256 l 911 256 l 911 -142 l 817 -142 l 817 256 l 488 256 l 488 849 l 817 849 l 817 1114 l 911 1110 l 911 849 l 1238 849 l 1238 256 m 135 763 q 254 669 128 768 l 401 554 l 343 467 q 78 679 190 593 l 135 763 m 119 -86 q 209 142 136 -49 q 294 371 282 332 l 343 349 l 390 331 q 301 104 357 246 q 214 -124 246 -37 l 119 -86 m 203 1067 q 451 875 392 925 l 392 790 l 293 869 l 147 985 l 203 1067 m 817 353 l 817 750 l 581 750 l 581 353 l 817 353 m 1143 353 l 1143 750 l 911 750 l 911 353 l 1143 353 z "},"泉":{"ha":1367,"x_min":67,"x_max":1286,"o":"m 1122 493 l 742 493 l 742 457 q 874 264 797 347 q 1013 352 939 301 q 1147 449 1088 403 l 1207 364 q 944 194 1097 285 q 1286 6 1076 82 l 1242 -94 q 949 65 1072 -28 q 742 286 825 158 l 742 35 q 708 -83 742 -47 q 596 -125 674 -118 l 453 -139 l 425 -40 l 564 -29 q 624 -4 607 -25 q 642 65 642 17 l 642 493 l 225 493 l 225 999 l 535 999 q 590 1131 574 1081 l 706 1113 q 656 999 671 1032 l 1122 999 l 1122 493 m 67 -7 q 285 128 197 58 q 432 285 372 199 l 115 285 l 115 371 l 542 371 l 542 281 q 369 75 478 174 q 114 -97 260 -24 l 67 -7 m 1021 579 l 1021 708 l 324 708 l 324 579 l 1021 579 m 1021 788 l 1021 911 l 324 911 l 324 788 l 1021 788 z "},"泌":{"ha":1367,"x_min":72,"x_max":1301,"o":"m 339 371 q 192 -119 288 194 l 96 -89 q 174 156 132 18 q 243 401 215 294 l 339 371 m 129 776 q 354 590 249 682 l 296 503 q 72 694 193 597 l 129 776 m 221 1083 q 451 885 297 1024 l 386 799 q 268 908 340 843 q 157 1003 196 972 l 221 1083 m 349 254 q 418 494 383 354 q 469 738 453 633 l 557 715 q 506 467 540 608 q 440 225 472 325 l 349 254 m 350 -10 q 619 197 497 83 l 619 868 l 718 864 l 718 301 q 923 614 838 440 q 1078 1022 1008 788 l 1176 988 q 981 506 1088 706 q 718 147 875 307 l 718 100 q 725 34 718 56 q 748 3 732 13 q 796 -8 764 -6 q 869 -11 821 -11 q 943 -8 918 -11 q 993 3 976 -6 q 1017 35 1010 13 q 1026 106 1025 58 q 1029 231 1029 189 l 1128 207 l 1122 79 q 1102 -32 1118 7 q 1053 -87 1086 -71 q 957 -110 1019 -104 q 864 -112 926 -112 q 769 -110 801 -112 q 683 -90 714 -106 q 638 -41 653 -75 q 619 56 622 -7 q 417 -100 526 -26 l 350 -10 m 749 1121 q 960 842 811 1049 l 883 767 q 777 920 839 835 q 676 1054 715 1006 l 749 1121 m 1156 669 q 1233 466 1188 594 q 1301 258 1278 338 l 1217 224 q 1147 434 1193 306 q 1069 636 1100 563 l 1156 669 z "},"法":{"ha":1367,"x_min":61,"x_max":1288,"o":"m 890 886 l 1217 886 l 1217 786 l 890 786 l 890 514 l 1288 514 l 1288 415 l 840 415 q 724 209 794 322 q 596 22 653 96 l 828 47 q 922 58 864 51 q 1058 72 981 65 q 925 278 975 211 l 1008 333 q 1141 134 1060 263 q 1268 -79 1222 6 l 1182 -139 l 1114 -18 q 604 -74 842 -46 q 458 -92 556 -78 l 424 14 q 467 33 454 25 q 492 53 481 40 q 603 210 536 104 q 721 415 671 317 l 411 415 l 411 514 l 786 514 l 786 786 l 496 786 l 496 886 l 786 886 l 786 1113 l 890 1107 l 890 886 m 118 774 q 247 677 167 740 q 381 567 326 614 l 321 478 q 191 588 271 524 q 61 688 111 653 l 118 774 m 99 -99 q 286 379 206 143 l 386 346 q 199 -132 306 110 l 99 -99 m 196 1079 q 324 988 242 1049 q 449 889 406 926 l 390 803 q 269 902 349 840 q 140 997 189 964 l 196 1079 z "},"泣":{"ha":1367,"x_min":69,"x_max":1272,"o":"m 618 715 q 698 434 650 610 q 771 154 746 258 l 678 125 q 599 426 646 253 q 524 689 551 600 l 618 715 m 125 778 q 253 683 175 743 q 381 581 332 622 l 321 492 q 196 597 274 535 q 69 693 118 658 l 125 778 m 99 -72 q 195 158 142 25 q 286 396 249 290 l 378 361 q 286 115 338 247 q 194 -110 235 -17 l 99 -72 m 199 1088 q 425 903 354 968 l 372 815 q 143 1004 210 953 l 199 1088 m 378 26 l 847 26 q 947 363 886 146 q 1043 726 1007 579 l 1143 696 q 1048 354 1106 553 q 949 26 990 156 l 1272 26 l 1272 -72 l 378 -72 l 378 26 m 461 893 l 800 893 q 735 1088 767 1001 l 836 1111 q 910 893 885 974 l 1246 893 l 1246 793 l 461 793 l 461 893 z "},"注":{"ha":1367,"x_min":71,"x_max":1285,"o":"m 104 -93 q 199 131 132 -36 q 297 379 267 297 l 396 342 q 325 165 315 140 q 203 -132 231 -68 l 104 -93 m 128 765 q 394 565 249 681 l 336 476 l 71 679 l 128 765 m 199 1078 q 432 904 275 1024 l 376 814 q 142 993 268 899 l 199 1078 m 393 21 l 796 21 l 796 374 l 481 374 l 481 478 l 796 478 l 796 778 l 461 778 l 461 881 l 1250 881 l 1250 778 l 899 778 l 899 478 l 1206 478 l 1206 374 l 899 374 l 899 21 l 1285 21 l 1285 -79 l 393 -79 l 393 21 m 822 1135 l 847 1090 q 938 928 908 986 l 843 883 q 731 1090 799 974 l 822 1135 z "},"泰":{"ha":1367,"x_min":51,"x_max":1289,"o":"m 1201 915 l 686 915 q 657 797 674 856 l 1144 797 l 1144 717 l 629 717 q 576 599 604 649 l 1247 599 l 1247 514 l 919 514 q 1073 375 988 433 q 1289 261 1158 317 l 1244 168 q 982 325 1089 240 q 833 206 900 250 l 772 279 q 911 388 839 319 q 801 514 851 443 l 525 514 q 424 393 479 449 q 568 276 536 307 l 504 207 q 356 332 456 256 q 97 158 250 243 l 51 247 q 257 377 172 313 q 401 514 342 442 l 99 514 l 99 599 l 463 599 q 521 717 497 657 l 201 717 l 201 797 l 550 797 q 582 915 571 867 l 147 915 l 147 1000 l 600 1000 q 618 1122 611 1065 l 724 1115 q 710 1031 721 1090 l 704 1000 l 1201 1000 l 1201 915 m 114 29 q 565 189 374 111 l 593 114 q 144 -62 386 19 l 114 29 m 558 -31 q 615 -7 599 -28 q 632 61 632 14 l 632 456 l 728 451 l 728 19 q 697 -85 728 -56 q 586 -122 667 -115 l 467 -133 l 440 -40 l 558 -31 m 796 194 q 1213 7 1094 65 l 1172 -79 q 757 114 994 7 l 796 194 z "},"津":{"ha":1367,"x_min":67,"x_max":1286,"o":"m 110 -93 q 258 403 194 164 l 351 372 q 203 -124 300 172 l 110 -93 m 121 776 q 249 678 174 739 q 367 578 324 617 l 306 493 q 189 595 265 532 q 67 693 113 658 l 121 776 m 196 1085 q 399 921 261 1040 l 339 836 q 240 926 299 875 q 138 1007 181 976 l 196 1085 m 385 146 l 749 146 l 749 274 l 433 274 l 433 363 l 749 363 l 749 486 l 457 486 l 457 571 l 749 571 l 749 694 l 407 694 l 407 783 l 749 783 l 749 907 l 464 907 l 464 993 l 749 993 l 749 1118 l 844 1114 l 844 993 l 1171 993 l 1171 783 l 1286 783 l 1286 694 l 1171 694 l 1171 486 l 844 486 l 844 363 l 1206 363 l 1206 274 l 844 274 l 844 146 l 1267 146 l 1267 60 l 844 60 l 844 -132 l 749 -132 l 749 60 l 385 60 l 385 146 m 1078 571 l 1078 694 l 844 694 l 844 571 l 1078 571 m 1078 783 l 1078 907 l 844 907 l 844 783 l 1078 783 z "},"流":{"ha":1367,"x_min":63,"x_max":1307,"o":"m 100 -92 q 182 165 133 6 q 249 400 231 324 l 339 371 q 270 128 318 290 q 193 -119 222 -35 l 100 -92 m 118 767 q 363 567 240 672 l 306 485 q 183 592 257 529 q 63 689 108 654 l 118 767 m 165 1075 q 292 979 219 1035 q 408 888 365 924 l 353 803 q 238 901 313 840 q 111 999 163 961 l 165 1075 m 336 -62 q 484 109 444 14 q 524 317 524 204 l 524 464 l 617 458 l 617 315 q 572 68 617 178 q 403 -131 526 -42 l 336 -62 m 433 596 q 488 624 464 607 q 540 678 511 642 q 660 864 588 742 l 439 864 l 439 951 l 710 951 q 790 1114 765 1057 l 885 1082 q 818 951 851 1011 l 1254 951 l 1254 864 l 769 864 q 604 610 689 726 l 1068 644 q 971 776 1011 725 l 1043 819 q 1161 660 1100 747 q 1257 513 1222 574 l 1181 464 l 1124 558 q 458 508 824 542 l 433 596 m 775 464 l 868 458 l 868 -83 l 775 -83 l 775 464 m 1029 464 l 1124 458 l 1124 46 q 1133 -8 1124 6 q 1169 -22 1142 -22 l 1307 -22 l 1299 -108 l 1140 -108 q 1069 -97 1093 -108 q 1038 -58 1046 -85 q 1029 17 1029 -32 l 1029 464 z "},"浮":{"ha":1367,"x_min":67,"x_max":1283,"o":"m 1283 221 l 885 221 l 885 39 q 851 -74 885 -42 q 729 -112 817 -106 l 586 -125 l 557 -26 l 701 -17 q 765 6 747 -12 q 782 67 782 24 l 782 221 l 388 221 l 388 315 l 782 315 l 782 376 l 1024 521 l 476 521 l 476 613 l 1197 613 l 1197 522 l 885 336 l 885 315 l 1283 315 l 1283 221 m 124 774 q 365 568 188 722 l 304 481 q 111 651 285 499 q 67 689 99 661 l 124 774 m 104 -75 q 247 383 146 47 l 344 350 q 281 146 342 342 q 201 -107 214 -71 l 104 -75 m 178 1088 q 406 890 294 989 l 346 806 q 115 1004 229 910 l 178 1088 m 432 1018 q 842 1049 625 1028 q 1215 1099 1058 1069 l 1231 1001 q 843 951 1069 974 q 439 921 617 929 l 432 1018 m 538 897 q 650 700 615 764 l 571 651 q 457 853 494 793 l 538 897 m 808 925 l 878 789 l 914 717 l 829 672 q 778 779 807 719 q 725 885 749 839 l 808 925 m 979 694 q 1058 813 1015 743 q 1128 933 1101 883 l 1207 889 q 1057 643 1158 793 l 979 694 z "},"海":{"ha":1367,"x_min":67,"x_max":1293,"o":"m 93 -92 q 173 144 117 -26 q 253 389 229 314 l 346 358 q 268 117 282 161 q 189 -126 194 -111 l 93 -92 m 122 779 q 363 589 193 724 l 304 503 q 179 608 250 550 q 67 697 108 667 l 122 779 m 181 1086 q 329 968 242 1040 l 415 900 l 360 814 q 122 1008 279 885 l 181 1086 m 374 464 l 485 464 l 514 738 q 453 663 471 683 l 383 738 q 523 926 458 824 q 629 1125 588 1028 l 725 1101 q 671 989 703 1047 l 1257 989 l 1257 896 l 619 896 q 536 769 575 822 l 1190 769 q 1175 464 1186 667 l 1293 464 l 1293 372 l 1169 372 l 1157 160 l 1267 160 l 1267 67 l 1151 67 l 1150 42 q 1103 -88 1144 -49 q 971 -135 1061 -128 l 778 -151 l 750 -58 l 940 -43 q 1023 -13 997 -37 q 1053 67 1049 11 l 442 67 l 474 372 l 374 372 l 374 464 m 1060 160 l 1074 372 l 569 372 l 546 160 l 1060 160 m 1079 464 l 1092 675 l 775 675 q 946 540 897 582 l 896 474 l 835 522 q 722 611 794 556 l 772 675 l 604 675 l 581 464 l 1079 464 m 747 372 l 824 313 q 928 231 882 269 l 874 163 q 696 303 808 219 l 747 372 z "},"消":{"ha":1367,"x_min":71,"x_max":1244,"o":"m 124 -86 q 278 399 222 183 l 376 364 q 224 -117 314 126 l 124 -86 m 128 783 q 251 689 175 751 q 375 582 326 626 l 317 493 q 194 599 268 538 q 71 699 119 661 l 128 783 m 186 1075 q 431 888 257 1028 l 374 799 q 257 896 331 838 q 131 993 183 954 l 186 1075 m 417 -81 q 478 63 460 -7 q 500 217 496 132 q 504 482 504 303 l 504 725 l 799 725 l 799 1117 l 899 1113 l 899 725 l 1201 725 l 1201 15 q 1170 -86 1201 -56 q 1063 -124 1139 -117 l 907 -140 l 879 -44 l 1031 -31 q 1088 -8 1071 -28 q 1104 60 1104 13 l 1104 219 q 643 132 894 169 l 624 233 q 1104 306 904 265 l 1104 636 l 603 636 l 603 514 q 1038 465 832 497 l 1021 378 q 603 432 829 413 l 603 388 q 599 172 603 246 q 575 24 594 97 q 513 -131 556 -50 l 417 -81 m 521 1068 q 621 962 565 1024 q 715 851 676 900 l 643 782 q 453 1004 589 858 l 521 1068 m 981 846 q 1174 1065 1079 942 l 1244 1004 q 1050 781 1175 908 l 981 846 z "},"涌":{"ha":1367,"x_min":69,"x_max":1218,"o":"m 121 -83 q 261 389 207 149 l 357 357 q 218 -118 306 124 l 121 -83 m 131 775 q 250 681 179 739 q 374 575 321 622 l 311 490 q 192 594 263 535 q 69 692 121 653 l 131 775 m 190 1076 q 306 988 235 1044 q 421 892 376 931 l 361 806 q 243 907 313 850 q 129 993 174 964 l 190 1076 m 460 725 l 774 725 q 571 868 668 803 l 628 939 q 767 842 644 928 l 825 800 l 1046 961 l 469 961 l 469 1054 l 1208 1054 l 1208 961 q 907 738 1022 821 l 924 725 l 1218 725 l 1218 14 q 1206 -65 1218 -37 q 1169 -104 1194 -92 q 1100 -122 1144 -117 l 1004 -133 l 975 -36 l 1067 -25 q 1107 -5 1094 -22 q 1119 49 1119 13 l 1119 149 l 886 149 l 886 -104 l 790 -104 l 790 149 l 560 149 l 560 -124 l 460 -124 l 460 725 m 790 239 l 790 392 l 560 392 l 560 239 l 790 239 m 790 481 l 790 632 l 560 632 l 560 481 l 790 481 m 1119 239 l 1119 392 l 886 392 l 886 239 l 1119 239 m 1119 481 l 1119 632 l 886 632 l 886 481 l 1119 481 z "},"涎":{"ha":1367,"x_min":61,"x_max":1276,"o":"m 1226 576 l 1060 576 l 1060 264 l 1254 264 l 1254 175 l 724 175 l 724 264 l 801 264 l 801 776 l 881 772 l 881 264 l 978 264 l 978 940 q 749 914 842 921 l 744 1004 q 995 1033 856 1014 q 1236 1076 1135 1053 l 1249 989 q 1060 953 1171 971 l 1060 667 l 1226 667 l 1226 576 m 117 771 q 235 678 165 735 q 346 581 304 621 l 292 497 q 175 601 244 542 q 61 694 106 661 l 117 771 m 85 -93 q 168 157 119 3 q 242 404 217 311 l 331 383 q 255 127 303 285 q 176 -122 207 -31 l 85 -93 m 165 1088 q 388 906 308 979 l 333 821 q 215 926 281 868 q 113 1010 149 983 l 165 1088 m 307 -58 q 492 164 433 68 q 382 465 424 276 l 457 485 q 536 249 488 343 q 582 388 565 314 q 610 563 599 463 l 396 563 l 396 643 l 592 949 l 388 949 l 388 1036 l 696 1036 l 696 947 l 499 646 l 693 646 l 693 560 q 658 340 682 435 q 594 164 635 246 q 740 65 653 99 q 957 21 826 31 q 1110 15 1025 15 q 1276 22 1207 15 l 1261 -71 q 1101 -78 1174 -78 q 940 -71 1031 -78 q 713 -24 807 -60 q 550 86 618 13 q 379 -124 494 -4 l 307 -58 z "},"液":{"ha":1367,"x_min":72,"x_max":1301,"o":"m 101 -99 q 178 118 124 -40 q 264 378 232 276 l 354 347 q 254 50 331 285 l 193 -131 l 101 -99 m 131 778 q 365 572 274 657 l 303 492 q 188 600 260 535 q 72 701 115 665 l 131 778 m 188 1076 q 360 926 247 1028 l 410 882 l 350 801 q 132 1000 179 960 l 188 1076 m 351 392 q 484 601 424 485 q 583 836 544 717 l 671 811 q 576 578 626 679 l 576 -142 l 481 -142 l 481 413 q 400 301 446 360 l 351 392 m 429 961 l 801 961 l 750 1089 l 854 1118 l 915 961 l 1286 961 l 1286 863 l 429 863 l 429 961 m 588 -57 q 879 144 765 35 q 732 404 794 246 q 651 283 692 338 l 593 357 q 825 840 747 581 l 911 818 q 874 703 893 757 l 1222 703 l 1222 615 q 1135 349 1183 461 q 1013 146 1086 238 q 1301 -35 1119 49 l 1249 -133 q 946 72 1056 -33 q 649 -144 832 -42 l 588 -57 m 790 508 q 944 215 847 328 q 1052 392 1010 296 q 1125 615 1094 489 l 840 615 q 790 508 815 557 m 897 575 q 951 518 922 547 q 994 473 971 497 q 1038 425 1017 449 l 988 368 q 897 468 969 390 q 849 522 860 508 l 897 575 z "},"淵":{"ha":1367,"x_min":65,"x_max":1213,"o":"m 324 394 q 194 -93 251 99 l 104 -69 q 235 421 161 119 l 324 394 m 121 790 q 360 607 186 747 l 300 522 q 177 625 249 567 q 65 713 106 683 l 121 790 m 183 1090 q 294 1005 224 1061 q 411 907 364 949 l 353 825 q 126 1013 272 899 l 183 1090 m 304 -90 q 385 83 357 1 q 424 265 413 164 q 435 525 435 367 l 435 1090 l 524 1085 l 524 786 l 678 786 l 678 1071 l 763 1065 l 763 696 l 524 696 l 524 564 l 1124 564 l 1124 696 l 886 696 l 886 1071 l 972 1065 l 972 786 l 1124 786 l 1124 1085 l 1213 1079 l 1213 -125 l 1124 -125 l 1124 244 l 972 244 l 972 -103 l 886 -103 l 886 339 l 1124 339 l 1124 471 l 524 471 l 519 339 l 763 339 l 763 -103 l 678 -103 l 678 244 l 513 244 q 472 46 500 132 q 393 -132 444 -40 l 304 -90 z "},"清":{"ha":1367,"x_min":65,"x_max":1290,"o":"m 124 -92 q 274 385 174 49 l 371 353 q 282 72 354 303 l 221 -122 l 124 -92 m 124 768 q 368 571 285 642 l 306 481 q 65 681 229 550 l 124 768 m 192 1076 q 419 889 264 1022 l 356 806 q 133 994 251 900 l 192 1076 m 408 658 l 792 658 l 792 753 l 489 753 l 489 825 l 792 825 l 792 911 l 454 911 l 454 992 l 792 992 l 792 1107 l 885 1103 l 885 992 l 1249 992 l 1249 911 l 885 911 l 885 825 l 1218 825 l 1218 753 l 885 753 l 885 658 l 1290 658 l 1290 582 l 408 582 l 408 658 m 419 -79 q 491 64 474 -8 q 508 278 508 136 l 508 489 l 1169 489 l 1169 7 q 1141 -91 1169 -61 q 1043 -128 1113 -121 l 914 -139 l 889 -58 l 1010 -50 q 1066 -31 1051 -47 q 1081 31 1081 -14 l 1081 78 l 588 78 q 559 -29 581 22 q 496 -137 538 -81 l 419 -79 m 1081 151 l 1081 249 l 596 249 l 596 226 q 594 151 596 175 l 1081 151 m 1081 322 l 1081 413 l 596 413 l 596 322 l 1081 322 z "},"渚":{"ha":1367,"x_min":83,"x_max":1293,"o":"m 1064 881 q 1168 1039 1107 938 l 1256 989 q 1040 694 1154 814 l 1293 694 l 1293 603 l 944 603 q 764 464 864 533 l 1157 464 l 1157 -136 l 1058 -136 l 1058 -65 l 642 -65 l 642 -136 l 544 -136 l 544 331 q 404 256 467 288 l 365 351 q 790 603 632 482 l 408 603 l 408 694 l 719 694 l 719 864 l 501 864 l 501 956 l 719 956 l 719 1111 l 819 1107 l 819 956 l 1064 956 l 1064 881 m 138 767 q 392 564 264 671 l 331 478 q 83 682 165 619 l 138 767 m 131 -97 q 275 363 201 108 l 369 332 q 229 -131 304 106 l 131 -97 m 210 1079 q 326 992 250 1051 q 461 888 403 933 l 403 801 q 275 907 353 844 q 154 999 197 969 l 210 1079 m 1058 24 l 1058 158 l 642 158 l 642 24 l 1058 24 m 1058 243 l 1058 375 l 642 375 l 642 243 l 1058 243 m 899 694 q 1051 864 981 771 l 819 864 l 819 694 l 899 694 z "},"渠":{"ha":1367,"x_min":83,"x_max":1279,"o":"m 1251 217 l 733 217 l 733 -140 l 635 -140 l 635 217 l 114 217 l 114 301 l 635 301 l 635 386 l 733 381 l 733 301 l 1251 301 l 1251 217 m 83 -28 q 519 171 346 47 l 569 99 q 368 -17 478 35 q 118 -111 258 -68 l 83 -28 m 149 903 q 354 781 193 881 l 388 760 l 346 678 q 230 756 304 708 q 108 831 156 804 l 149 903 m 135 436 q 280 554 185 474 q 429 685 375 635 l 479 604 q 337 476 431 558 q 193 354 243 394 l 135 436 m 235 1113 q 468 967 414 1001 l 426 886 q 308 967 381 919 q 196 1038 236 1015 l 235 1113 m 486 506 l 549 506 l 549 969 l 486 969 l 486 1051 l 1246 1051 l 1246 969 l 639 969 l 639 868 l 1176 868 l 1176 611 l 639 611 l 639 506 l 1261 506 l 1261 425 l 486 425 l 486 506 m 1085 686 l 1085 793 l 639 793 l 639 686 l 1085 686 m 840 160 q 1050 74 922 128 q 1279 -25 1178 21 l 1239 -115 q 1021 -10 1151 -69 q 803 83 890 50 l 840 160 z "},"溜":{"ha":1367,"x_min":72,"x_max":1257,"o":"m 714 899 q 831 669 772 789 l 758 628 l 738 674 q 525 575 594 610 q 451 535 488 557 l 411 615 q 432 639 426 628 q 438 663 438 650 l 438 1006 q 602 1047 514 1019 q 765 1104 690 1074 l 797 1014 q 660 963 738 989 q 526 922 583 938 l 526 668 l 700 749 q 640 863 671 810 l 714 899 m 128 769 q 244 678 181 729 q 361 581 308 626 l 304 496 q 190 594 263 533 q 72 689 117 656 l 128 769 m 106 -99 q 184 153 129 -32 q 257 408 239 338 l 353 383 q 256 54 346 364 q 203 -129 226 -51 l 106 -99 m 167 1090 q 290 999 219 1053 q 400 913 360 946 l 342 829 q 226 922 289 874 q 113 1008 164 971 l 167 1090 m 460 468 l 1200 468 l 1200 -137 l 1106 -137 l 1106 -74 l 557 -74 l 557 -137 l 460 -137 l 460 468 m 782 11 l 782 157 l 557 157 l 557 11 l 782 11 m 782 238 l 782 381 l 557 381 l 557 238 l 782 238 m 754 558 q 867 704 836 639 q 910 868 899 769 l 917 943 l 835 943 l 835 1033 l 1257 1033 q 1231 714 1246 858 q 1210 623 1225 654 q 1167 577 1196 592 q 1088 557 1139 563 l 996 547 l 968 632 l 1064 642 q 1118 667 1101 646 q 1140 731 1135 688 q 1163 943 1153 825 l 1001 943 l 992 854 q 942 667 976 742 q 824 501 908 592 l 754 558 m 1106 11 l 1106 157 l 878 157 l 878 11 l 1106 11 m 1106 238 l 1106 381 l 878 381 l 878 238 l 1106 238 z "},"溝":{"ha":1367,"x_min":72,"x_max":1290,"o":"m 1215 758 l 1058 758 l 1058 663 l 1271 663 l 1271 586 l 889 586 l 889 493 l 1182 493 l 1182 156 l 1290 156 l 1290 76 l 1182 76 l 1182 14 q 1155 -87 1182 -58 q 1050 -122 1128 -115 l 913 -136 l 888 -53 l 1021 -42 q 1077 -22 1063 -37 q 1092 32 1092 -7 l 1092 76 l 590 76 l 590 -125 l 499 -125 l 499 76 l 393 76 l 393 156 l 499 156 l 499 493 l 799 493 l 799 586 l 428 586 l 428 663 l 640 663 l 640 758 l 475 758 l 475 829 l 640 829 l 640 919 l 460 919 l 460 997 l 640 997 l 640 1115 l 729 1110 l 729 997 l 967 997 l 967 1115 l 1058 1110 l 1058 997 l 1243 997 l 1243 919 l 1058 919 l 1058 829 l 1215 829 l 1215 758 m 126 779 q 240 690 169 747 q 365 585 311 632 l 304 504 q 195 601 264 543 q 72 701 126 660 l 126 779 m 108 -93 q 258 411 199 172 l 350 381 q 201 -122 296 160 l 108 -93 m 182 1081 q 410 894 250 1028 l 351 811 q 240 910 310 851 q 126 1001 169 969 l 182 1081 m 799 156 l 799 249 l 590 249 l 590 156 l 799 156 m 799 321 l 799 418 l 590 418 l 590 321 l 799 321 m 967 663 l 967 758 l 729 758 l 729 663 l 967 663 m 967 829 l 967 919 l 729 919 l 729 829 l 967 829 m 1092 156 l 1092 249 l 889 249 l 889 156 l 1092 156 m 1092 321 l 1092 418 l 889 418 l 889 321 l 1092 321 z "},"溪":{"ha":1367,"x_min":71,"x_max":1276,"o":"m 153 69 q 263 404 239 326 l 350 376 q 188 -124 217 -43 l 100 -93 l 153 69 m 128 779 q 198 722 153 760 q 265 665 243 683 l 360 586 l 303 508 q 182 615 250 557 q 71 707 114 672 l 128 779 m 183 1085 q 257 1026 246 1035 l 401 910 l 344 832 l 128 1011 l 183 1085 m 315 -54 q 602 27 511 -17 q 731 142 693 71 l 379 142 l 379 222 l 757 222 q 767 336 763 260 q 692 331 742 333 q 519 315 601 324 q 436 308 479 314 l 419 388 q 481 396 461 392 q 524 410 501 400 q 796 556 671 481 q 524 535 586 542 l 450 526 l 436 597 q 517 614 494 604 q 757 783 618 676 l 813 729 q 639 606 685 636 l 908 625 q 1061 732 990 676 l 1117 671 q 656 392 913 519 l 1086 428 q 1010 532 1067 457 l 1078 579 q 1249 344 1146 493 l 1176 293 l 1131 363 l 871 343 q 858 222 867 269 l 1264 222 l 1264 142 l 833 142 q 751 19 806 69 q 601 -72 696 -32 q 354 -147 506 -112 l 315 -54 m 419 1024 q 828 1049 590 1029 q 1231 1090 1065 1069 l 1242 1007 q 833 969 1071 988 q 429 943 594 950 l 419 1024 m 525 936 q 646 774 592 851 l 575 724 q 522 794 558 744 q 451 889 476 858 l 525 936 m 824 951 l 868 878 q 926 781 917 799 l 851 738 q 749 913 804 822 l 824 951 m 900 132 q 1276 -58 1131 26 l 1236 -136 q 1071 -44 1156 -87 q 863 60 986 0 l 900 132 m 1000 783 q 1135 965 1072 871 l 1208 921 q 1140 825 1181 879 q 1068 733 1100 771 l 1000 783 z "},"溫":{"ha":1367,"x_min":69,"x_max":1293,"o":"m 356 368 q 190 -126 286 142 l 96 -92 q 265 399 171 110 l 356 368 m 126 772 q 361 586 208 715 l 306 500 q 181 606 250 549 q 69 694 113 663 l 126 772 m 179 1092 q 415 910 303 1001 l 358 824 q 242 921 314 863 q 125 1011 169 979 l 179 1092 m 346 -1 l 447 -1 l 447 415 l 1197 415 l 1197 -1 l 1293 -1 l 1293 -90 l 346 -90 l 346 -1 m 485 1060 l 1161 1060 l 1161 533 l 485 533 l 485 1060 m 667 -1 l 667 329 l 538 329 l 538 -1 l 667 -1 m 1069 619 l 1069 975 l 575 975 l 575 619 l 1069 619 m 599 729 q 733 834 688 783 q 804 957 778 885 l 890 942 q 860 868 876 897 q 1043 731 986 776 l 986 660 q 814 801 928 714 q 649 663 757 731 l 599 729 m 888 -1 l 888 329 l 757 329 l 757 -1 l 888 -1 m 1107 -1 l 1107 329 l 978 329 l 978 -1 l 1107 -1 z "},"滑":{"ha":1367,"x_min":57,"x_max":1264,"o":"m 113 -90 q 181 149 136 -15 q 246 393 226 314 l 347 367 q 218 -118 289 154 l 113 -90 m 114 771 q 358 588 174 729 l 297 497 q 185 590 257 533 q 57 686 113 646 l 114 771 m 185 1079 q 283 1000 229 1042 l 419 888 l 360 804 q 122 996 182 951 l 185 1079 m 392 682 l 499 682 l 499 1057 l 1143 1057 l 1143 682 l 1264 682 l 1264 433 l 1172 433 l 1172 600 l 485 600 l 485 433 l 392 433 l 392 682 m 421 -81 q 502 86 482 -1 q 522 318 522 174 l 522 507 l 1140 507 l 1140 19 q 1130 -60 1140 -32 q 1093 -101 1119 -87 q 1017 -121 1067 -115 l 896 -135 l 872 -51 l 985 -40 q 1035 -19 1022 -37 q 1049 44 1049 -1 l 1049 126 q 667 24 875 74 l 643 103 q 835 144 711 115 q 1049 199 958 174 l 1049 425 l 617 425 l 617 346 q 804 328 697 339 q 968 307 911 317 l 953 233 q 801 256 897 244 q 617 276 704 268 q 592 52 615 143 q 503 -132 568 -39 l 421 -81 m 753 682 l 753 869 l 1047 869 l 1047 976 l 599 976 l 599 682 l 753 682 m 1047 682 l 1047 801 l 840 801 l 840 682 l 1047 682 z "},"滿":{"ha":1367,"x_min":74,"x_max":1301,"o":"m 1301 899 l 1096 899 l 1096 704 l 882 704 l 882 597 l 1239 597 l 1239 14 q 1213 -89 1239 -60 q 1119 -125 1186 -118 l 1022 -136 l 994 -53 l 1094 -42 q 1142 -20 1126 -39 q 1157 44 1157 -1 l 1157 519 l 882 519 l 882 -108 l 797 -108 l 797 76 l 733 50 q 679 222 697 147 q 597 39 649 129 l 536 79 q 657 344 618 207 l 654 375 l 588 375 l 588 442 l 704 442 q 797 79 717 274 l 797 519 l 521 519 l 521 -119 l 438 -119 l 438 597 l 797 597 l 797 704 l 579 704 l 579 899 l 429 899 l 429 982 l 579 982 l 579 1114 l 669 1111 l 669 982 l 1007 982 l 1007 1115 l 1096 1113 l 1096 982 l 1301 982 l 1301 899 m 128 774 q 252 678 179 736 q 364 582 325 619 l 308 501 q 193 604 264 543 q 74 703 122 665 l 128 774 m 118 -92 q 189 156 144 -10 q 253 408 233 322 l 342 388 q 274 118 315 278 q 210 -117 232 -42 l 118 -92 m 178 1086 q 293 992 221 1053 q 422 879 365 931 l 365 804 q 246 913 317 850 q 124 1017 175 975 l 178 1086 m 1007 786 l 1007 899 l 669 899 l 669 786 l 1007 786 m 882 81 q 1000 351 964 224 l 999 376 l 933 376 l 933 443 l 1053 443 q 1078 258 1057 346 q 1140 78 1099 169 l 1076 57 q 1021 224 1036 154 q 946 47 988 122 l 882 81 z "},"漏":{"ha":1367,"x_min":74,"x_max":1269,"o":"m 1269 578 l 914 578 l 914 464 l 1214 464 l 1214 3 q 1191 -90 1214 -62 q 1114 -124 1168 -117 l 1015 -133 l 993 -64 l 1078 -54 q 1121 -37 1108 -51 q 1133 14 1133 -22 l 1133 389 l 914 389 l 914 -104 l 833 -104 l 833 389 l 624 389 l 624 -126 l 543 -126 l 543 464 l 833 464 l 833 578 l 532 578 l 532 656 l 1269 656 l 1269 578 m 128 761 q 343 572 185 715 l 285 494 q 178 595 239 540 q 74 686 118 650 l 128 761 m 100 -90 q 160 147 128 6 q 211 394 192 289 l 299 376 q 251 145 282 288 q 192 -111 219 3 l 100 -90 m 164 1079 q 274 986 210 1042 q 382 889 338 931 l 324 814 q 213 918 278 860 q 108 1007 149 976 l 164 1079 m 272 -67 q 362 143 331 47 q 406 356 393 239 q 418 654 418 474 l 418 1044 l 1208 1044 l 1208 758 l 511 758 l 511 650 q 476 223 511 389 q 358 -104 440 57 l 272 -67 m 1117 835 l 1117 968 l 511 968 l 511 835 l 1117 835 m 638 58 q 771 144 693 90 l 806 85 q 674 0 726 32 l 638 58 m 682 335 q 749 291 713 317 q 806 247 785 265 l 768 188 q 647 279 696 246 l 682 335 m 971 149 q 1100 63 1028 113 l 1064 6 q 938 94 1035 28 l 971 149 m 942 242 q 1063 336 1021 300 l 1100 282 q 983 186 1051 239 l 942 242 z "},"漿":{"ha":1367,"x_min":72,"x_max":1300,"o":"m 1285 583 l 1126 583 l 1126 510 q 1094 394 1126 428 q 978 353 1063 361 l 863 342 l 835 421 l 943 429 q 1017 453 999 433 q 1036 524 1036 472 l 1036 583 l 689 583 l 717 565 q 835 483 806 506 l 788 426 q 661 517 743 461 q 646 527 653 522 q 635 535 639 532 l 676 583 l 556 583 l 556 656 l 1036 656 l 1036 781 l 1126 776 l 1126 656 l 1285 656 l 1285 583 m 72 -29 q 296 88 214 32 q 440 221 378 144 l 139 221 l 139 306 l 551 306 l 551 225 q 385 45 483 124 q 128 -107 288 -33 l 72 -29 m 92 708 l 424 708 l 424 815 l 186 815 l 186 1069 l 272 1065 l 272 901 l 424 901 l 424 1114 l 513 1110 l 513 376 l 424 376 l 424 624 l 293 624 l 293 611 q 267 465 294 524 q 168 340 240 407 l 100 390 q 185 492 164 444 q 208 615 207 539 l 208 624 l 92 624 l 92 708 m 546 -35 q 623 -12 604 -31 q 642 58 642 7 l 642 415 l 738 411 l 738 346 q 857 210 785 269 q 1139 351 999 272 l 1185 279 q 933 153 1054 211 q 1300 -3 1067 67 l 1257 -93 q 942 44 1067 -29 q 738 210 817 117 l 738 26 q 724 -60 738 -31 q 677 -104 710 -90 q 582 -124 644 -118 l 457 -135 l 429 -44 l 546 -35 m 557 933 q 732 1024 651 972 q 869 1133 813 1075 l 936 1096 q 878 1039 906 1063 l 1249 1039 l 1249 971 q 988 790 1147 863 q 606 676 828 717 l 575 743 q 757 783 686 764 q 631 814 692 803 l 647 874 q 800 833 707 864 l 788 792 q 901 831 854 811 q 732 935 832 878 q 597 868 667 899 l 557 933 m 806 965 q 821 956 814 960 q 833 950 828 953 q 906 908 857 936 q 978 864 956 879 q 1129 965 1064 908 l 806 965 z "},"澤":{"ha":1367,"x_min":67,"x_max":1306,"o":"m 1228 1057 l 1228 760 l 881 760 l 881 672 l 1194 672 l 1194 589 l 881 589 l 881 497 l 1290 497 l 1290 411 l 1047 411 l 1015 294 l 1215 294 l 1215 211 l 879 211 l 879 114 l 1306 114 l 1306 29 l 879 29 l 879 -136 l 779 -136 l 779 29 l 372 29 l 372 114 l 779 114 l 779 211 l 444 211 l 444 294 l 640 294 q 608 411 631 336 l 385 411 l 385 497 l 782 497 l 782 589 l 467 589 l 467 672 l 782 672 l 782 760 l 438 760 l 438 1057 l 1228 1057 m 124 793 q 244 699 171 760 q 361 600 318 639 l 303 517 q 186 619 261 556 q 67 715 111 682 l 124 793 m 101 -97 q 176 150 133 3 q 249 414 218 297 l 335 389 q 265 125 306 272 q 193 -122 225 -22 l 101 -97 m 185 1094 l 221 1065 q 410 907 383 931 l 351 824 q 234 928 304 867 q 126 1017 164 989 l 185 1094 m 675 842 l 675 978 l 528 978 l 528 842 l 675 842 m 693 411 q 725 294 715 335 l 931 294 q 961 411 939 325 l 693 411 m 906 842 l 906 978 l 763 978 l 763 842 l 906 842 m 1139 842 l 1139 978 l 993 978 l 993 842 l 1139 842 z "},"濕":{"ha":1367,"x_min":69,"x_max":1282,"o":"m 1181 656 l 990 656 l 1056 618 q 993 537 1029 581 q 929 467 957 493 q 1069 482 1025 475 q 1153 582 1124 544 l 1213 535 q 1077 376 1157 463 q 944 243 997 289 q 1133 265 1013 253 l 1111 308 q 1085 357 1106 319 l 1147 389 q 1261 164 1185 324 l 1196 132 l 1168 190 q 878 164 1021 178 q 856 161 865 163 q 836 158 846 160 l 815 238 q 860 258 838 243 q 1003 404 894 286 q 856 389 903 396 l 818 385 l 799 457 q 842 482 828 469 q 911 559 865 501 q 983 656 957 617 l 586 656 l 651 618 q 584 535 621 578 q 519 467 547 492 q 663 481 619 475 q 754 589 703 526 l 814 542 q 671 381 751 467 q 529 242 590 296 q 707 264 581 249 q 685 315 694 296 q 672 344 676 335 l 735 372 l 828 156 l 761 128 l 740 185 q 593 172 668 181 l 475 163 q 424 157 457 160 l 401 233 q 446 257 429 242 q 592 403 482 285 q 444 388 538 399 l 408 383 l 388 457 q 412 467 401 461 q 432 481 422 472 q 504 559 456 501 q 579 656 553 617 l 463 656 l 463 1057 l 1181 1057 l 1181 656 m 126 769 q 375 571 217 703 l 314 486 q 186 599 261 535 q 69 694 111 663 l 126 769 m 108 -90 q 186 148 144 13 q 257 389 228 283 l 347 361 l 336 325 q 203 -118 263 67 l 108 -90 m 183 1086 l 425 894 l 368 810 q 246 912 313 857 q 126 1008 179 967 l 183 1086 m 333 -104 q 444 146 417 57 l 531 118 q 479 -12 510 61 q 419 -142 449 -86 l 333 -104 m 1086 732 l 1086 819 l 557 819 l 557 732 l 1086 732 m 1086 890 l 1086 981 l 557 981 l 557 890 l 1086 890 m 700 129 q 735 13 717 81 q 764 -97 754 -56 l 681 -111 q 619 110 664 -29 l 700 129 m 936 139 q 954 90 951 97 q 1017 -85 1006 -47 l 932 -107 q 897 3 919 -61 q 854 111 874 67 l 936 139 m 1153 153 q 1282 -97 1242 -10 l 1197 -133 q 1142 -15 1182 -94 q 1074 114 1101 65 l 1153 153 z "},"濟":{"ha":1367,"x_min":64,"x_max":1308,"o":"m 1279 896 l 413 896 l 413 979 l 793 979 q 738 1107 763 1054 l 831 1133 q 885 1014 846 1103 l 900 979 l 1279 979 l 1279 896 m 124 786 q 160 754 139 771 q 251 669 194 722 q 335 590 308 617 l 274 508 q 64 707 138 642 l 124 786 m 88 -93 q 160 151 121 11 q 226 396 200 290 l 319 369 q 299 290 313 346 q 183 -122 229 31 l 88 -93 m 181 1088 q 382 910 278 1007 l 321 829 q 121 1015 221 926 l 181 1088 m 331 415 q 419 519 394 474 q 451 643 444 565 l 456 692 l 374 692 l 374 775 l 706 775 q 694 521 703 640 q 668 447 689 467 q 597 421 647 426 l 538 414 l 515 483 l 568 490 q 608 507 596 494 q 622 549 619 519 l 632 692 l 528 692 q 525 639 528 672 q 489 485 517 544 q 396 361 461 425 l 331 415 m 336 -87 q 431 8 399 -37 q 477 109 464 54 q 492 246 490 164 q 493 393 492 360 l 583 389 l 583 314 l 1060 314 l 1060 392 l 1156 388 l 1156 -131 l 1060 -131 l 1060 56 l 557 56 q 503 -49 539 -1 q 410 -146 468 -97 l 336 -87 m 1060 133 l 1060 232 l 582 232 q 574 133 579 165 l 1060 133 m 726 894 l 828 764 q 921 890 896 851 l 986 849 q 879 707 953 800 l 861 683 l 861 386 l 786 386 l 786 690 q 773 708 781 699 q 757 731 765 718 q 709 793 733 761 q 665 850 685 825 l 726 894 m 926 463 q 949 510 949 483 l 949 749 q 1093 788 1010 763 q 1221 835 1176 814 l 1251 760 q 1158 724 1203 739 q 1213 561 1179 626 q 1308 443 1247 496 l 1260 375 q 1154 514 1192 439 q 1094 701 1117 589 q 1021 681 1033 683 l 1021 507 l 1113 549 l 1125 475 l 1085 458 l 1006 424 q 957 396 974 408 l 926 463 z "},"濼":{"ha":1367,"x_min":71,"x_max":1318,"o":"m 101 -90 q 171 156 132 14 q 235 394 210 299 l 326 371 q 261 129 300 278 l 194 -114 l 101 -90 m 129 782 q 240 690 172 749 q 351 590 308 631 l 288 510 q 179 613 247 551 q 71 706 111 674 l 129 782 m 171 1085 q 317 961 244 1025 l 382 906 l 321 824 q 113 1011 225 914 l 171 1085 m 372 -36 q 665 203 549 81 l 722 144 q 426 -107 621 35 l 372 -36 m 378 781 q 411 808 399 789 q 475 938 432 840 q 544 1106 518 1035 l 613 1075 q 546 920 589 1013 q 475 785 503 828 q 561 799 507 788 q 621 933 611 903 l 683 900 q 588 697 657 828 q 481 510 518 567 q 603 535 540 519 l 578 642 l 636 661 q 696 418 665 553 l 636 401 l 621 464 q 439 425 507 433 q 401 418 426 424 l 379 499 q 413 526 399 507 q 457 601 425 544 q 522 722 489 657 q 424 704 450 710 l 397 700 l 378 781 m 417 329 l 794 329 l 794 438 l 713 438 l 713 999 l 786 999 q 817 1124 811 1090 l 897 1110 q 876 1026 893 1088 q 869 999 875 1019 l 972 999 l 972 438 l 889 438 l 889 329 l 1289 329 l 1289 244 l 889 244 l 889 -136 l 794 -136 l 794 244 l 417 244 l 417 329 m 899 521 l 899 683 l 786 683 l 786 521 l 899 521 m 899 765 l 899 913 l 786 913 l 786 765 l 899 765 m 990 203 l 1028 174 q 1293 -43 1182 56 l 1235 -110 q 943 142 1114 4 l 990 203 m 992 781 q 1008 794 1000 788 q 1019 810 1015 800 q 1078 939 1038 840 q 1143 1107 1119 1038 l 1214 1079 q 1152 924 1193 1018 q 1083 782 1111 831 q 1165 797 1106 785 q 1231 938 1218 908 l 1296 904 q 1197 701 1272 844 q 1092 514 1122 557 q 1214 542 1146 524 l 1201 581 q 1181 649 1190 625 l 1249 669 q 1297 504 1264 624 l 1318 432 l 1249 413 l 1232 472 q 1050 429 1157 454 q 1014 422 1024 424 l 994 506 q 1021 529 1007 513 q 1128 722 1044 558 q 1046 707 1068 710 l 1013 700 l 992 781 z "},"瀆":{"ha":1367,"x_min":69,"x_max":1285,"o":"m 1171 61 l 947 61 q 1285 -57 1181 -18 l 1254 -139 q 1088 -75 1192 -112 q 906 -11 983 -37 l 933 61 l 708 61 l 739 -10 q 561 -81 668 -42 q 381 -140 454 -119 l 356 -57 q 524 -3 426 -37 q 690 61 621 31 l 467 61 l 467 479 l 1171 479 l 1171 61 m 128 774 q 249 668 175 735 q 367 558 324 601 l 304 478 q 192 585 261 521 q 69 693 122 649 l 128 774 m 111 -103 q 251 381 172 78 l 343 351 q 206 -129 271 82 l 111 -103 m 178 1089 q 400 893 256 1026 l 340 808 q 230 913 301 847 q 117 1013 158 978 l 178 1089 m 392 1013 l 769 1013 l 769 1114 l 867 1110 l 867 1013 l 1254 1013 l 1254 943 l 867 943 l 867 881 l 1201 881 l 1201 814 l 433 814 l 433 881 l 769 881 l 769 943 l 392 943 l 392 1013 m 415 751 l 1224 751 l 1224 544 l 415 544 l 415 751 m 660 606 l 660 690 l 499 690 l 499 606 l 660 606 m 1075 125 l 1075 185 l 563 185 l 563 125 l 1075 125 m 1075 242 l 1075 301 l 563 301 l 563 242 l 1075 242 m 1075 360 l 1075 418 l 563 418 l 563 360 l 1075 360 m 896 606 l 896 690 l 739 690 l 739 606 l 896 606 m 1139 606 l 1139 690 l 976 690 l 976 606 l 1139 606 z "},"瀉":{"ha":1367,"x_min":67,"x_max":1249,"o":"m 343 378 q 189 -117 261 99 l 97 -86 q 257 410 181 146 l 343 378 m 125 781 q 241 681 178 736 q 356 578 304 625 l 294 499 q 186 600 254 539 q 67 706 118 661 l 125 781 m 169 1086 q 276 998 211 1054 q 383 904 342 942 l 325 824 q 218 922 285 863 q 114 1011 151 981 l 169 1086 m 315 193 q 442 294 376 232 q 561 426 507 356 l 461 426 l 461 768 l 389 768 l 389 993 l 778 993 l 724 1099 l 818 1126 q 886 993 856 1060 l 1249 993 l 1249 768 l 1161 768 l 1161 910 l 476 910 l 476 793 q 627 820 543 801 q 775 860 711 839 l 788 779 q 547 722 640 736 l 547 651 l 774 651 l 774 583 l 547 583 l 547 496 l 1075 496 l 1075 583 l 850 583 l 850 651 l 1075 651 l 1075 738 l 844 738 l 844 808 l 1160 808 l 1160 426 l 663 426 q 596 335 632 379 l 1233 335 q 1213 31 1226 200 q 1193 -58 1207 -26 q 1151 -103 1179 -89 q 1074 -121 1122 -117 l 949 -131 l 921 -50 l 1046 -43 q 1111 -19 1092 -40 q 1135 60 1131 1 l 1147 254 l 525 254 q 367 115 453 178 l 315 193 m 368 -47 q 430 76 397 3 q 483 207 463 149 l 558 182 q 510 49 542 124 q 447 -82 478 -25 l 368 -47 m 683 193 q 713 82 696 151 q 739 -29 731 13 l 658 -46 q 607 175 632 90 l 683 193 m 851 210 q 926 8 890 118 l 850 -19 q 781 183 819 82 l 851 210 m 1011 225 q 1056 142 1029 194 q 1099 53 1082 89 l 1032 18 q 994 99 1019 47 q 947 190 968 151 l 1011 225 z "},"火":{"ha":1367,"x_min":90,"x_max":1276,"o":"m 231 919 q 364 731 285 847 q 499 526 443 615 l 407 461 q 274 667 350 554 q 140 856 199 779 l 231 919 m 90 -39 q 413 190 294 74 q 583 446 532 307 q 635 771 635 585 l 635 1104 l 733 1100 l 733 751 l 732 701 q 878 285 747 461 q 1276 -32 1008 108 l 1218 -137 q 874 122 1004 -19 q 686 440 744 263 q 501 131 631 272 q 153 -139 371 -11 l 90 -39 m 863 528 q 1002 722 926 611 q 1129 918 1078 833 l 1222 858 q 1089 652 1165 767 q 953 458 1013 538 l 863 528 z "},"灸":{"ha":1367,"x_min":81,"x_max":1290,"o":"m 81 550 q 567 707 354 615 q 929 911 781 799 l 471 911 q 179 701 329 788 l 122 789 q 365 955 249 858 q 556 1143 481 1051 l 651 1097 q 564 1000 626 1065 l 1085 1000 l 1085 911 q 832 728 978 814 q 1290 561 1082 640 l 1257 458 q 719 668 1064 539 q 107 451 453 535 l 81 550 m 81 -44 q 502 156 369 36 q 635 442 635 275 l 635 588 l 732 583 l 732 435 q 1286 -46 775 85 l 1246 -144 q 889 8 1025 -85 q 690 233 753 101 q 496 20 633 114 q 129 -146 358 -74 l 81 -44 m 286 493 q 515 268 386 403 l 446 197 q 221 424 322 331 l 286 493 m 850 271 q 1072 496 997 410 l 1142 428 q 917 200 992 271 l 850 271 z "},"炎":{"ha":1367,"x_min":83,"x_max":1289,"o":"m 874 267 q 1088 474 1018 393 l 1154 403 q 935 196 1044 289 l 874 267 m 83 -35 q 497 159 365 43 q 629 431 629 275 l 629 596 l 733 590 l 733 403 q 897 140 761 247 q 1289 -29 1032 33 l 1249 -139 q 890 13 1026 -78 q 689 231 753 103 q 494 22 631 113 q 129 -143 357 -68 l 83 -35 m 106 575 q 427 676 315 625 q 584 792 539 726 q 629 960 629 858 l 629 1111 l 733 1106 l 733 960 q 711 813 733 875 q 1254 569 961 710 l 1214 474 q 669 731 943 610 q 484 588 610 649 q 142 475 358 528 l 106 575 m 256 1051 q 372 953 303 1015 q 493 838 440 890 l 426 764 q 197 979 308 883 l 256 1051 m 272 465 q 494 261 413 346 l 429 192 q 215 393 318 307 l 272 465 m 878 850 q 994 947 929 889 q 1103 1053 1058 1006 l 1171 986 q 1060 876 1124 936 q 939 771 996 817 l 878 850 z "},"焦":{"ha":1367,"x_min":63,"x_max":1265,"o":"m 1218 853 l 804 853 l 804 732 l 1189 732 l 1189 646 l 804 646 l 804 524 l 1189 524 l 1189 440 l 804 440 l 804 317 l 1246 317 l 1246 226 l 249 226 l 249 719 q 111 557 186 636 l 63 668 q 237 883 158 763 q 358 1118 315 1004 l 465 1094 q 390 940 432 1018 l 715 940 l 700 981 q 654 1103 672 1057 l 757 1128 l 826 940 l 1218 940 l 1218 853 m 100 -101 q 184 41 144 -33 q 243 172 224 115 l 336 132 q 272 -8 313 71 q 192 -153 231 -87 l 100 -101 m 704 317 l 704 440 l 349 440 l 349 317 l 704 317 m 704 524 l 704 646 l 349 646 l 349 524 l 704 524 m 704 732 l 704 853 l 349 853 l 349 732 l 704 732 m 544 156 q 610 -99 581 25 l 510 -118 q 450 138 488 -3 l 544 156 m 829 168 q 931 -78 882 50 l 833 -110 q 788 15 817 -58 q 738 136 758 89 l 829 168 m 1107 178 q 1265 -90 1229 -21 l 1172 -139 q 1017 139 1117 -28 l 1107 178 z "},"然":{"ha":1367,"x_min":76,"x_max":1297,"o":"m 1257 693 l 951 693 q 851 432 932 539 q 601 222 771 325 l 536 299 q 713 419 646 361 q 814 542 779 476 q 861 693 849 607 l 681 693 l 681 783 l 868 783 l 868 1111 l 960 1107 l 960 826 q 958 783 960 797 l 1257 783 l 1257 693 m 76 619 q 250 854 175 728 q 369 1114 325 981 l 464 1103 q 413 972 436 1025 l 689 972 l 689 888 q 595 606 653 724 q 442 392 538 489 q 194 196 347 294 l 132 275 q 352 433 267 357 q 492 597 438 508 q 294 757 417 663 q 118 535 211 632 l 76 619 m 117 -96 q 201 55 160 -28 q 267 213 242 138 l 349 183 q 283 19 324 107 q 204 -140 243 -68 l 117 -96 m 176 581 q 278 561 217 574 q 382 539 339 549 l 363 463 l 236 489 l 161 504 l 176 581 m 360 803 q 529 669 486 706 q 601 882 568 753 l 368 882 l 335 822 l 360 803 m 547 193 q 581 51 564 133 q 607 -89 599 -32 l 515 -101 q 461 181 497 39 l 547 193 m 828 203 q 846 151 843 163 q 882 49 856 124 q 922 -71 908 -25 l 832 -89 q 747 182 810 6 l 828 203 m 1039 606 q 1297 288 1178 444 l 1225 225 q 1108 387 1165 313 q 972 550 1050 461 l 1039 606 m 1058 1071 q 1222 892 1115 1013 l 1165 833 q 1021 997 1111 901 l 1001 1019 l 1058 1071 m 1099 215 q 1178 67 1133 154 q 1249 -76 1222 -19 l 1161 -121 q 1018 181 1119 -15 l 1099 215 z "},"照":{"ha":1367,"x_min":90,"x_max":1282,"o":"m 90 -97 q 231 189 168 18 l 324 158 q 261 -1 299 81 q 186 -144 224 -83 l 90 -97 m 158 1039 l 529 1039 l 529 249 l 158 249 l 158 1039 m 438 342 l 438 600 l 249 600 l 249 342 l 438 342 m 438 692 l 438 951 l 249 951 l 249 692 l 438 692 m 532 168 q 568 36 547 117 q 604 -111 589 -44 l 504 -131 q 478 -3 496 -76 q 457 88 461 71 l 442 149 l 532 168 m 572 704 q 715 808 669 753 q 779 943 761 864 l 783 958 l 611 958 l 611 1051 l 1221 1051 q 1201 806 1213 890 q 1180 728 1196 756 q 1133 688 1164 701 q 1049 669 1103 675 l 929 656 l 907 739 l 1015 750 q 1090 771 1069 754 q 1114 831 1110 788 l 1118 867 q 1122 910 1119 888 q 1126 958 1125 933 l 878 958 l 868 913 q 796 751 850 813 q 626 622 742 689 l 572 704 m 649 588 l 1200 588 l 1200 229 l 649 229 l 649 588 m 824 175 q 884 38 851 117 q 933 -92 917 -40 l 839 -119 q 793 11 824 -67 q 735 150 763 89 l 824 175 m 1110 315 l 1110 506 l 740 506 l 740 315 l 1110 315 m 1103 196 q 1199 51 1147 135 q 1282 -89 1251 -32 l 1190 -139 q 1017 153 1147 -47 l 1103 196 z "},"營":{"ha":1367,"x_min":144,"x_max":1218,"o":"m 1046 279 l 660 279 l 617 206 l 1131 206 l 1131 -139 l 1035 -139 l 1035 -67 l 329 -67 l 329 -139 l 232 -139 l 232 206 l 522 206 l 568 279 l 317 279 l 317 521 l 1046 521 l 1046 279 m 144 671 l 203 671 l 164 739 q 293 815 247 778 q 357 896 339 851 q 375 1007 375 940 l 375 1117 l 464 1111 l 464 1006 q 454 915 464 954 q 654 753 551 840 l 603 689 q 425 840 528 756 q 349 751 399 792 q 221 671 299 710 l 1128 671 q 938 831 1065 728 q 862 751 910 788 q 736 675 814 714 l 696 753 q 817 820 775 786 q 876 898 860 854 q 893 1008 893 942 l 893 1118 l 981 1113 l 981 1008 q 969 903 981 951 q 1186 731 1093 810 l 1138 671 l 1218 671 l 1218 440 l 1125 440 l 1125 594 l 239 594 l 239 440 l 144 440 l 144 671 m 242 1060 q 324 897 278 994 l 256 861 q 175 1029 232 917 l 242 1060 m 1035 13 l 1035 126 l 329 126 l 329 13 l 1035 13 m 956 353 l 956 449 l 407 449 l 407 353 l 956 353 m 517 919 q 607 1071 572 1006 l 667 1032 q 620 954 647 997 q 571 878 593 911 l 517 919 m 768 1065 q 836 896 789 1019 l 771 865 q 741 950 761 899 q 704 1042 721 1001 l 768 1065 m 1032 900 q 1128 1065 1069 956 l 1196 1031 q 1146 943 1176 993 q 1094 863 1115 893 l 1032 900 z "},"爻":{"ha":1367,"x_min":82,"x_max":1281,"o":"m 272 1103 q 557 953 310 1085 q 688 882 599 929 q 1069 1118 893 992 l 1128 1022 q 799 821 981 921 l 1190 610 l 1136 507 q 685 761 904 640 q 194 531 461 644 l 146 636 q 574 822 376 724 q 222 1014 382 929 l 272 1103 m 82 -36 q 383 87 258 29 q 596 203 507 144 q 351 532 463 328 l 440 581 q 682 265 542 388 q 815 405 760 329 q 914 579 869 481 l 1004 525 q 900 345 957 424 q 767 199 843 267 q 988 74 863 131 q 1281 -32 1114 18 l 1238 -140 q 917 -12 1050 -76 q 682 131 783 53 q 451 -4 585 61 q 129 -140 318 -69 l 82 -36 z "},"牖":{"ha":1367,"x_min":69,"x_max":1249,"o":"m 476 -87 q 542 262 525 76 q 560 676 560 447 l 560 1050 q 890 1076 717 1057 q 1193 1118 1063 1094 l 1221 1043 q 646 985 925 997 l 646 918 l 1229 918 l 1229 675 l 646 675 l 646 501 q 621 165 643 335 q 558 -128 599 -4 l 476 -87 m 69 -94 q 145 174 125 44 q 165 542 165 303 l 165 1097 l 251 1092 l 251 719 l 375 719 l 375 1108 l 463 1103 l 463 626 l 251 626 l 251 458 l 463 458 l 463 -122 l 375 -122 l 375 361 l 250 361 q 224 86 244 197 q 160 -133 203 -25 l 69 -94 m 1146 747 l 1146 849 l 646 849 l 646 747 l 1146 747 m 668 554 l 917 554 l 917 635 l 994 629 l 994 554 l 1119 554 q 1072 635 1101 589 l 1131 654 q 1189 554 1150 625 l 1249 554 l 1249 481 l 994 481 l 994 401 l 1233 401 l 1233 -26 q 1165 -132 1233 -124 l 1069 -143 l 1044 -69 l 1119 -60 q 1156 -11 1156 -56 l 1156 42 l 994 42 l 994 -111 l 917 -111 l 917 42 l 763 42 l 763 -137 l 686 -137 l 686 401 l 917 401 l 917 481 l 668 481 l 668 554 m 917 103 l 917 188 l 763 188 l 763 103 l 917 103 m 917 251 l 917 336 l 763 336 l 763 251 l 917 251 m 1156 103 l 1156 188 l 994 188 l 994 103 l 1156 103 m 1156 251 l 1156 336 l 994 336 l 994 251 l 1156 251 z "}}}
